<svg width="595" height="706" viewBox="0 0 595 706" fill="none" xmlns="http://www.w3.org/2000/svg">
<path d="M205.008 659.552C199.243 661.47 193.87 664.544 180.219 672.233C172.24 676.727 163.436 680.72 158.237 682.655C149.141 686.041 138.04 688.045 129.363 690.356C119.821 692.897 114.909 692.667 109.323 694.209C104.09 695.654 90.3449 696.526 76.4106 692.308C68.9228 690.042 65.9887 681.921 64.2441 674.798C61.6251 664.105 62.8922 651.557 66.1505 642.054C68.6483 634.768 71.3499 629.535 74.8161 624.717C79.2026 618.619 82.1414 614.514 85.6019 608.737C88.9247 603.19 89.8365 597.183 90.8128 591.597C91.9833 584.899 90.2525 575.623 86.4049 570.031C80.7468 561.807 76.0177 558.662 69.6572 554.046C62.4553 548.819 57.5311 545.189 51.3612 540.753C45.9589 536.868 40.9625 533.635 36.335 531.307C31.7168 528.984 27.0975 525.917 22.47 523.225C17.6629 520.428 13.2325 517.067 7.06837 510.914C3.15167 507.005 3.2035 500.521 3.00131 483.034C2.91591 475.649 7.03948 470.48 9.92224 465.269C14.6749 456.678 24.7404 450.815 30.3269 447.164C35.2105 443.972 39.7608 441.572 47.4559 437.73C54.0945 434.416 59.3798 426.205 62.8865 420.399C66.7062 414.075 63.2851 402.311 62.7016 396.332C62.1435 390.612 60.5814 382.299 58.4728 376.493C56.7352 371.709 52.5166 368.018 48.8482 363.974C44.2638 358.921 37.4962 353.391 34.7868 348.763C31.7074 343.504 29.778 338.37 29.1946 332.784C28.6743 327.803 27.0744 313.436 29.183 303.702C30.4065 298.054 37.45 293.309 41.6904 288.11C51.3932 276.213 63.262 265.579 66.3469 260.761C69.8947 255.22 72.8981 250.559 74.25 245.55C75.9651 239.195 74.8392 233.62 71.1881 227.45C67.7994 221.724 64.8333 217.052 62.5167 212.234C59.5228 206.007 55.9829 201.638 53.464 197.404C50.4062 192.263 46.3467 186.248 46.1329 169.911C46.0422 162.976 54.7812 161.199 59.4087 159.073C61.8316 157.96 64.4174 156.566 66.9189 155.225C72.0091 152.498 72.5053 145.416 74.25 139.073C77.8896 125.84 68.6924 119.234 64.065 113.255C59.6439 107.542 55.1972 102.666 51.7367 98.0382C48.5288 93.7485 45.9539 88.8006 44.4114 84.1732C43.643 81.8681 43.2502 76.4954 43.6315 69.5687C43.8536 65.5332 46.7049 63.7512 49.0099 62.2145C54.0273 58.8696 61.3209 58.7367 71.113 57.7777C95.8771 55.3525 103.678 61.0244 112.148 63.162C120.675 65.3142 128.728 62.2145 132.575 59.9095C137.75 56.809 139.519 49.9093 142.414 43.9301C144.709 39.1873 148.37 32.2084 151.079 26.2118C154.006 19.7339 158.769 14.0915 164.546 8.49351C172.364 0.917374 189.965 7.50563 194.592 9.23875C199.701 11.152 203.83 15.2007 209.226 19.4353C214.811 23.8187 219.243 30.9837 223.478 35.4204C225.469 37.5067 228.486 38.3205 233.847 38.8982C243.729 39.963 251.976 37.1882 255.436 33.7278C260.091 29.0731 261.993 23.3348 265.269 18.3145C268.496 13.369 271.999 10.6021 277.586 8.10067C282.594 5.85788 288.175 4.82506 293.184 3.47323C300.639 1.46119 310.105 6.35021 316.483 9.04233C326.518 13.2783 337.465 18.2741 342.867 24.2418C351.716 34.0188 362.122 42.9306 366.94 45.825C375.409 50.9127 394.427 44.8948 401.602 41.6077C407.258 39.0164 413.722 36.8069 417.974 31.2205C422.358 25.4612 426.455 21.7866 431.065 17.1591C435.318 12.8905 439.534 9.44672 444.162 7.90424C448.789 6.36177 454.924 5.58764 460.528 3.86029C465.949 2.18923 470.731 6.35021 475.358 8.85168C480.901 11.8482 486.144 19.0367 488.079 24.0569C489.929 28.8544 490.003 35.975 491.355 42.7284C492.685 49.3747 493.469 54.092 495.971 58.7194C498.563 63.5154 504.238 67.1944 508.865 71.0477C513.237 74.6881 519.258 76.8305 524.844 79.332C530.184 81.7231 541.165 83.3702 550.067 85.3055C555.556 86.4988 560.09 88.7659 562.782 91.071C565.066 93.0261 565.498 100.655 565.116 110.47C564.819 118.134 558.588 122.261 553.961 127.657C550.226 132.013 542.828 139.177 537.779 145.376C534.267 149.688 531.621 155.376 527.386 161.927C522.701 169.176 521.222 175.78 519.668 198.455C519.053 207.434 522.354 213.539 524.278 217.976C526.622 223.382 535.041 225.486 543.129 230.87C549.965 235.422 553.92 239.351 559.507 243.586C564.86 247.644 570.096 251.668 574.724 255.527C577.439 257.791 579.351 260.923 581.275 263.228C587.737 270.971 581.304 288.641 578.219 293.269C574.881 298.276 568.224 301.744 563.204 304.829C558.466 307.74 553.967 310.987 549.339 313.881C545.024 316.58 540.864 319.837 536.82 323.506C532.736 327.21 530.465 332.547 527.571 338.324C526.128 341.204 526.214 346.019 526.976 351.403C528.127 359.529 540.795 362.957 547.184 367.221C553.206 371.239 559.697 373.772 564.516 376.274C567.209 377.672 570.108 378.394 572.032 380.121C578.274 385.726 572.06 400.716 568.022 407.065C561.726 416.965 554.359 418.44 549.339 421.335C544.93 423.877 537.051 430.341 531.043 435.581C526.888 439.205 523.926 444.622 521.598 449.25C519.078 454.258 519.281 465.373 520.621 472.358C521.649 477.715 529.634 483.883 536.399 489.689C541.471 494.043 546.595 498.927 554.683 504.322C560.583 508.259 565.475 510.111 570.674 513.184C578.456 517.785 582.806 521.272 586.284 525.507C590.017 530.053 591.679 536.663 591.882 544.75C592.049 551.448 588.236 556.697 584.77 561.134C580.559 566.525 572.084 567.882 564.371 568.465C556.621 569.052 549.738 570.955 544.527 572.891C538.644 575.075 533.169 577.125 527.583 579.817C522.773 582.135 521.985 588.656 520.633 601.504C516.978 636.241 521.592 641.805 522.932 648.934C524.131 655.311 526.976 659.529 526.797 667.224C526.634 674.215 516.231 675.705 508.334 677.074C502.366 678.109 495.433 678.802 478.905 679.004C471.793 679.091 466.548 676.121 460.569 672.661C454.881 669.369 448.824 664.567 444.196 661.875C439.424 659.099 433.041 658.79 426.871 657.438C421.188 656.193 400.458 656.086 387.581 657.426C382.155 657.991 372.243 670.252 364.473 676.872C359.995 680.687 353.317 682.268 345.42 685.728C340.192 688.019 334.831 690.356 323.097 695.734C317.245 698.417 312.485 699.599 306.708 701.142C303.647 701.959 297.106 702.303 289.024 701.731C281.505 701.199 277.823 695.001 273.195 689.998C269.264 685.748 264.72 682.684 260.867 678.056C255.412 671.505 246.626 661.886 242.189 658.218C238.194 654.915 233.154 653.013 228.134 651.47C225.811 650.757 222.744 650.309 219.283 650.881C214.644 654.919 210.808 658.004 207.14 661.655C206.175 662.626 205.031 663.388 203.853 664.174" stroke="url(#paint0_linear_52_167)" stroke-width="6" stroke-linecap="round"/>
<defs>
<linearGradient id="paint0_linear_52_167" x1="297.443" y1="3" x2="297.443" y2="702.014" gradientUnits="userSpaceOnUse">
<stop stop-color="#E6B8C2"/>
<stop offset="1" stop-color="white"/>
</linearGradient>
</defs>
</svg>
