<svg width="578" height="709" viewBox="0 0 578 709" fill="none" xmlns="http://www.w3.org/2000/svg">
<path d="M158.584 692.763C167.925 687.495 182.46 679.869 185.141 679.869C186.319 679.476 187.463 679.095 188.428 678.315C192.096 674.854 196.706 672.543 201.334 670.62C205.961 669.077 210.558 666.719 217.128 664.843C222.53 663.3 228.085 658.914 247.395 661.579C257.192 662.93 263.567 663.104 268.764 667.974C281.063 679.499 288.024 687.535 298.013 693.56C305.35 697.986 314.524 700.571 324.449 700.476C345.397 700.273 353.404 698.622 360.238 694.86L362.001 693.89C373.943 687.32 378.627 684.743 383.716 681.192C393.924 674.069 405.693 662.907 421.879 662.919C438.2 662.93 442.948 664.299 447.437 668.135C454.029 673.768 461.247 686.409 477.582 686.813C507.941 687.564 522.603 685.435 530.633 680.626C536.41 677.165 545.183 675.126 546.214 665.773C546.786 660.585 546.034 655.157 544.66 650.18C542.534 642.479 540.504 636.939 537.531 632.479C534.446 627.852 529.728 622.998 526.364 616.494C523.261 610.498 516.4 602.884 517.328 594.923C517.531 593.19 518.186 591.899 519.46 591.081C522.152 589.354 526.774 587.818 534.105 584.148C549.281 576.552 574.144 565.356 574.134 559.099C574.123 551.595 575.627 543.224 571.038 531.75C568.346 525.02 567.348 516.684 561.598 510.387C555.59 503.807 546.065 495.762 540.991 491.328C536.364 487.284 527.24 481.002 524.827 473.991C522.499 467.226 513.626 444.778 521.569 433.165C524.856 428.358 531.151 423.858 540.65 420.467C548.773 417.566 561.756 413.668 564.325 407.37C567.583 399.38 567.074 382.787 562.563 378.288C558.317 374.054 553.954 371.319 548.114 368.282C542.903 365.573 537.673 362.296 527.883 355.948C521.343 351.708 512.586 343.74 512.314 335.515C512.123 329.743 512.132 322.198 515.41 317.04C519.079 311.268 524.806 307.244 539.316 298.368C547.202 293.544 556.397 290.473 563.753 277.559C566.046 273.532 567.766 268.582 566.035 263.7C564.879 260.442 563.073 255.837 559.669 250.794C554.458 243.076 549.781 236.247 544.845 230.586C540.985 226.16 533.087 222.767 524.792 209.17C516.352 195.334 512.374 181.654 517.143 174.739C520.997 169.152 523.506 163.933 529.281 159.146C534.885 154.502 543.505 150.718 555.486 136.015C561.436 128.713 565.899 125.11 567.208 119.475C568.739 112.884 568.655 103.464 566.422 97.713C564.094 91.7164 561.301 84.6504 558.328 80.1911C556.792 77.8861 540.982 78.8671 518.582 76.5458L517.773 76.4621C505.127 75.1528 495.497 74.1559 490.153 70.5665C488.992 69.7866 487.554 68.664 487.276 62.7675C485.918 33.9457 482.643 24.1118 476.282 18.7577C470.112 13.5641 465.63 9.2576 458.737 7.4C447.397 4.34393 442.076 4.42912 436.998 7.81595C431.221 11.6693 426.523 16.2315 423.145 21.2996C420.06 25.9271 419.099 32.7725 409.829 39.4165C399.632 46.7245 389.887 54.727 378.413 54.5987C360.325 54.3965 350.663 54.9229 340.128 47.2618C334.559 43.2121 330.924 38.4767 328.014 33.7781C324.553 28.1917 321.92 22.4568 317.037 16.6375C312.19 10.8605 305.306 3.96957 299.313 3.17696C296.43 2.79567 293.663 3.01937 291.422 3.95686C286.794 5.89218 281.045 7.17967 277.557 12.2527C273.715 17.8392 273.284 24.0544 269.278 28.2321C264.841 32.8596 261.717 38.3146 256.366 42.0971C249.821 46.7245 243.987 53.2655 232.663 53.2526C222.461 53.2411 215.175 51.4686 211.698 47.2618C207.071 41.6638 202.132 34.9497 198.226 28.3881C195.124 23.1772 192.242 16.7845 186.273 12.2123C180.496 7.78706 175.986 1.99643 171.258 3.18274C166.631 4.34393 155.088 3.905 151.622 13.2175C150.478 16.2909 158.812 21.8756 151.241 37.5043C146.573 47.1405 131.639 66.5773 117.896 65.9622C108.86 65.5578 103.945 63.8546 96.7284 59.7865C91.9219 57.0771 81.9901 41.6304 63.7818 47.0943C56.0809 49.4051 49.7238 50.5935 45.3183 53.6455C40.298 57.1233 32.1181 60.9162 32.0425 69.5035C31.8635 89.8677 31.5788 97.2504 35.3355 100.827C39.1888 104.495 41.9476 109.531 46.5083 112.572C51.1358 115.657 58.9815 118.714 64.8043 123.161C69.6224 126.841 78.8695 130.543 80.3909 139.36C81.1535 143.779 81.7474 148.277 79.5994 150.515C75.3533 154.941 72.1914 159.771 66.1099 163.219C60.3329 166.495 54.4381 170.456 48.7787 175.357C43.0017 180.36 36.7819 184.158 32.8051 189.025C31.0778 191.14 29.7191 194.715 30.5116 198.662C31.0893 201.539 32.5418 203.985 34.9542 205.97C40.3673 210.424 46.7596 216.409 50.1652 222.544C54.9949 231.244 61.0483 250.026 55.9019 259.731C49.1716 272.423 46.7874 279.067 43.0132 283.579C39.1426 288.206 33.1325 291.459 27.7906 295.133C22.2042 298.975 14.5103 302.15 14.5207 309.397C14.5322 317.484 13.8097 324.298 16.6524 328.64C19.9396 333.66 24.1268 338.489 30.3441 342.892C39.6278 349.466 53.2357 359.655 61.1648 367.751C70.7778 377.566 79.4757 383.301 76.3354 395.481C74.1978 403.771 70.8855 411.824 66.6877 417.041C60.3329 424.938 53.1551 430.924 49.1773 436.284C46.4679 439.935 36.8594 448.966 27.5884 455.932C19.1077 462.304 11.1199 466.329 7.38021 473.465C3.34781 481.161 2.00531 489.746 3.74643 497.729C5.68175 506.603 8.94532 516.336 14.9251 522.559C19.177 526.984 25.0717 531.189 31.4937 535.459C37.2708 539.301 42.8282 541.347 47.6637 544.697C52.684 548.175 58.71 552.956 65.1972 557.412C71.9332 562.04 77.4523 566.596 81.9391 572.432C85.7982 577.453 92.3335 582.496 92.3263 593.669C92.3148 611.745 91.7296 620.671 88.0744 626.743C84.5966 632.52 79.899 637.845 76.5202 642.913C73.4353 647.54 68.5227 652.702 68.6345 659.505C68.8367 671.804 69.3622 678.398 79.2528 691.076C84.6428 697.986 89.1261 701.398 93.8803 702.983C98.5078 704.525 114.799 705.917 126.434 704.323C133.563 703.347 139.473 700.505 144.719 698.54C149.346 696.807 153.999 695.349 158.584 692.763Z" stroke="url(#paint0_linear_52_165)" stroke-width="6" stroke-linecap="round"/>
<defs>
<linearGradient id="paint0_linear_52_165" x1="288.681" y1="3" x2="288.681" y2="705.029" gradientUnits="userSpaceOnUse">
<stop stop-color="#E6B8C2"/>
<stop offset="1" stop-color="white"/>
</linearGradient>
</defs>
</svg>
