<svg width="573" height="716" viewBox="0 0 573 716" fill="none" xmlns="http://www.w3.org/2000/svg">
<path d="M110.072 709.9C104.7 710.282 81.7646 711.056 68.4947 708.757C63.0939 707.821 60.4126 700.68 58.0844 696.053C55.7289 691.371 55.7678 669.646 56.9174 655.81C57.3475 650.634 61.152 646.376 63.6535 641.748C66.074 637.271 69.6097 631.748 73.2781 625.578C76.8885 619.506 79.6387 615.18 80.9905 610.361C82.6117 604.583 82.3423 595.191 81.0021 587.64C79.9923 581.952 76.1955 577.051 73.1106 572.423C70.1377 567.964 63.5322 559.373 55.7909 552.781C49.9189 547.781 44.9993 543.544 40.5741 540.644C34.4003 536.598 30.3718 532.752 24.5947 527.559C18.7705 522.323 13.0406 518.125 7.83542 512.538C3.89518 508.309 3.01156 501.949 3.00001 487.732C2.99433 480.747 7.61011 475.767 11.267 470.366C16.2371 463.024 25.288 457.304 31.868 451.296C37.7985 445.881 44.9531 441.867 54.5719 435.518C64.9437 428.672 66.5363 422.225 68.6622 416.639C70.8401 410.916 71.9436 394.981 68.4947 384.478C66.7046 379.026 60.4126 376.009 55.7851 373.49C49.9591 370.319 43.0813 365.61 35.5769 360.405C30.1185 356.619 23.4393 353.663 18.8119 350.578C16.5068 349.041 14.1844 347.493 12.2607 345.766C8.66291 342.535 9.55121 329.861 11.0821 321.889C12.2439 315.839 18.7714 309.387 23.9766 302.449C27.2578 298.075 31.481 294.737 37.2581 291.461C43.5995 287.866 47.6568 282.42 50.3662 277.793C53.6803 272.133 57.6858 267.4 59.0376 258.757C61.514 242.926 55.3981 237.359 51.3541 231.582C47.1236 225.538 42.6885 220.028 39.4129 215.4C35.8601 210.381 33.0523 206.163 30.5509 200.386C29.2709 197.43 29.1933 188.115 29.7652 176.37C30.1085 169.32 38.0206 167.248 43.0409 164.747C47.4654 162.542 52.2784 160.709 57.0965 158.773C59.8598 157.663 62.3074 156.468 63.8442 154.163C65.3809 151.858 66.5478 149.536 67.1255 146.278C68.0278 141.188 66.5594 136.826 65.0227 134.521C61.9822 129.96 56.9463 127.202 51.5505 123.926C46.0678 120.598 43.4511 113.73 42.6769 107.952C41.2768 97.5037 42.2726 83.6887 45.5482 78.8707C49.3939 73.214 53.8267 69.8238 58.0613 65.5776C64.1215 59.5008 79.6156 65.5487 84.6358 68.443C89.0455 70.9853 92.7295 72.8741 95.0346 73.8388C99.9185 75.883 105.428 68.2755 110.246 64.2316C115.124 60.1368 119.293 55.9588 123.729 53.2493C128.266 50.4786 132.002 45.5601 135.48 39.9736C138.58 34.9943 139.72 29.3842 141.263 24.7568C142.92 19.7849 146.63 13.6013 152.609 9.73064C155.073 8.13528 157.433 7.02697 161.263 7.21183C174.722 7.86142 182.424 14.7105 193.418 20.0947C200.423 23.5255 202.482 32.7812 205.77 38.9684C209.003 45.0541 210.582 50.1355 212.696 54.1737C218.263 64.8051 244.077 57.4839 250.623 54.9825C255.862 52.9801 259.491 47.1083 262.766 41.3255C267.323 33.2809 267.971 28.2288 270.663 23.4107C273.693 17.9883 276.429 13.971 281.056 10.8861C285.516 7.9132 292.582 7.40825 298.388 8.55789C303.172 9.50534 307.625 13.1622 316.851 23.3414C328.129 35.7842 329.185 43.9656 335.164 48.6046C339.531 51.9926 344.598 54.3874 362.265 54.399C372.693 54.4058 383.813 41.0077 391.976 33.8037C396.806 29.5417 402.369 26.6806 407.187 23.405C413.088 19.3935 417.39 15.1264 425.853 7.43714C436.492 -2.22888 467.026 6.62257 474.011 8.55789C478.667 9.84802 482.093 17.7608 484.421 25.4847C487.101 34.3769 484.82 47.8247 483.277 53.4111C480.555 63.2702 483.641 78.2583 486.524 80.7598C491.15 84.7745 502.844 86.3462 512.128 89.0499C518.842 91.0051 533.601 90.5981 543.145 93.088C548.781 94.5584 549.5 105.572 552.203 114.059C553.721 118.824 551.834 122.938 549.916 125.243C545.025 131.121 537.229 137.161 531.625 142.765C525.839 148.551 521.423 154.885 516.986 158.947C512.919 162.67 510.632 167.988 508.696 172.806C506.397 178.531 505.617 184.926 505.605 202.026C505.599 212.265 511.371 217.278 516.755 224.597C523.42 233.657 532.908 242.697 539.864 247.527C545.49 251.433 550.262 254.274 555.462 257.348C563.166 261.902 566.438 267.353 568.766 273.131C569.95 276.069 569.927 281.207 569.546 286.978C569.124 293.364 563.018 296.632 558.391 299.717C553.763 302.802 548.39 305.875 542.411 308.96C537.323 311.585 532.977 314.356 528.35 317.239C522.454 320.911 516.432 328.96 513.318 334.373C510.522 339.233 511.001 348.972 513.491 356.32C517.495 368.136 532.538 379.429 537.558 383.866C541.651 387.482 550.609 390.59 561.995 395.42C564.162 396.338 565.283 397.153 566.063 398.118C570.632 403.77 566.854 415.247 565.121 419.874C563.241 424.893 556.478 427.194 550.499 431.047C544.994 434.595 537.599 436.83 527.217 442.78C519.742 447.065 518.327 455.293 516.016 461.844C513.309 469.517 514.467 485.242 515.998 494.976C516.934 500.925 524.45 504.214 530.811 509.222C539.529 516.087 547.951 520.782 553.151 524.63C562.256 531.368 564.52 540.031 567.414 544.659C568.739 546.777 568.772 551.193 568.391 556.386C567.935 562.592 561.863 565.843 558.194 569.697C554.747 573.318 549.153 575.087 542.417 578.553C532.564 583.623 519.921 595.468 512.37 604.151C510.917 605.823 509.869 607.045 509.47 608.207C507.923 612.714 514.444 617.444 518.691 622.072C522.092 625.778 524.473 630.154 527.356 635.353C531.414 642.672 534.086 648.248 536.415 654.227C538.428 659.398 540.649 666.341 540.47 679.617C540.33 689.999 521.446 692.939 510.464 696.792C502.77 699.492 494.109 699.502 485.617 700.461C474.099 701.761 468.667 697.584 463.647 694.51C457.827 690.948 454.409 684.897 449.204 678.918C445.51 674.675 440.937 668.721 434.958 663.701C429.993 659.532 424.368 657.537 416.685 655.792C396.236 651.149 380.462 665.602 374.685 669.444C368.759 673.385 362.392 686.307 358.111 694.863C355.063 700.954 348.111 704.493 343.293 707.387C336.927 711.212 327.706 711.818 321.727 712.402C315.71 712.989 308.827 712.604 303.24 709.144C298.542 706.233 293.044 702.598 284.188 694.337C278.026 688.589 274.557 680.668 269.537 675.065C264.168 669.072 257.989 665.232 252.789 663.308C244.693 660.313 227.301 659.062 215.429 660.402C210.027 661.012 205.995 664.446 200.027 668.288C191.988 673.464 186.723 679.837 181.731 683.696C175.471 688.536 171.332 692.939 166.705 695.833C162.39 698.532 157.467 700.264 152.84 702.766C148.491 705.117 142.84 706.041 137.82 707.584C132.811 709.126 124.376 709.9 117.796 710.859C116.254 711.056 114.347 711.056 112.383 711.056" stroke="url(#paint0_linear_52_166)" stroke-width="6" stroke-linecap="round"/>
<defs>
<linearGradient id="paint0_linear_52_166" x1="286.39" y1="3" x2="286.39" y2="712.628" gradientUnits="userSpaceOnUse">
<stop stop-color="#E6B8C2"/>
<stop offset="1" stop-color="white"/>
</linearGradient>
</defs>
</svg>
