<svg xmlns="http://www.w3.org/2000/svg" version="1.1" xmlns:xlink="http://www.w3.org/1999/xlink" xmlns:svgjs="http://svgjs.dev/svgjs" viewBox="0 0 800 800" opacity="0.28" width="800" height="800"><g stroke-width="3" stroke="#1b1f3bff" fill="none"><circle r="3.6578947368421053" cx="0" cy="0" fill="#1b1f3bff" stroke="none"></circle><circle r="3.6578947368421053" cx="80" cy="0" fill="#1b1f3bff" stroke="none"></circle><circle r="3.6578947368421053" cx="160" cy="0" fill="#1b1f3bff" stroke="none"></circle><circle r="3.6578947368421053" cx="240" cy="0" fill="#1b1f3bff" stroke="none"></circle><circle r="3.6578947368421053" cx="320" cy="0" fill="#1b1f3bff" stroke="none"></circle><circle r="3.6578947368421053" cx="400" cy="0" fill="#1b1f3bff" stroke="none"></circle><circle r="3.6578947368421053" cx="480" cy="0" fill="#1b1f3bff" stroke="none"></circle><circle r="3.6578947368421053" cx="560" cy="0" fill="#1b1f3bff" stroke="none"></circle><circle r="3.6578947368421053" cx="640" cy="0" fill="#1b1f3bff" stroke="none"></circle><circle r="3.6578947368421053" cx="720" cy="0" fill="#1b1f3bff" stroke="none"></circle><circle r="3.6578947368421053" cx="800" cy="0" fill="#1b1f3bff" stroke="none"></circle><circle r="3.6578947368421053" cx="0" cy="80" fill="#1b1f3bff" stroke="none"></circle><circle r="3.6578947368421053" cx="80" cy="80" fill="#1b1f3bff" stroke="none"></circle><circle r="3.6578947368421053" cx="160" cy="80" fill="#1b1f3bff" stroke="none"></circle><circle r="3.6578947368421053" cx="240" cy="80" fill="#1b1f3bff" stroke="none"></circle><circle r="3.6578947368421053" cx="320" cy="80" fill="#1b1f3bff" stroke="none"></circle><circle r="3.6578947368421053" cx="400" cy="80" fill="#1b1f3bff" stroke="none"></circle><circle r="3.6578947368421053" cx="480" cy="80" fill="#1b1f3bff" stroke="none"></circle><circle r="3.6578947368421053" cx="560" cy="80" fill="#1b1f3bff" stroke="none"></circle><circle r="3.6578947368421053" cx="640" cy="80" fill="#1b1f3bff" stroke="none"></circle><circle r="3.6578947368421053" cx="720" cy="80" fill="#1b1f3bff" stroke="none"></circle><circle r="3.6578947368421053" cx="800" cy="80" fill="#1b1f3bff" stroke="none"></circle><circle r="3.6578947368421053" cx="0" cy="160" fill="#1b1f3bff" stroke="none"></circle><circle r="3.6578947368421053" cx="80" cy="160" fill="#1b1f3bff" stroke="none"></circle><circle r="3.6578947368421053" cx="160" cy="160" fill="#1b1f3bff" stroke="none"></circle><circle r="3.6578947368421053" cx="240" cy="160" fill="#1b1f3bff" stroke="none"></circle><circle r="3.6578947368421053" cx="320" cy="160" fill="#1b1f3bff" stroke="none"></circle><circle r="3.6578947368421053" cx="400" cy="160" fill="#1b1f3bff" stroke="none"></circle><circle r="3.6578947368421053" cx="480" cy="160" fill="#1b1f3bff" stroke="none"></circle><circle r="3.6578947368421053" cx="560" cy="160" fill="#1b1f3bff" stroke="none"></circle><circle r="3.6578947368421053" cx="640" cy="160" fill="#1b1f3bff" stroke="none"></circle><circle r="3.6578947368421053" cx="720" cy="160" fill="#1b1f3bff" stroke="none"></circle><circle r="3.6578947368421053" cx="800" cy="160" fill="#1b1f3bff" stroke="none"></circle><circle r="3.6578947368421053" cx="0" cy="240" fill="#1b1f3bff" stroke="none"></circle><circle r="3.6578947368421053" cx="80" cy="240" fill="#1b1f3bff" stroke="none"></circle><circle r="3.6578947368421053" cx="160" cy="240" fill="#1b1f3bff" stroke="none"></circle><circle r="3.6578947368421053" cx="240" cy="240" fill="#1b1f3bff" stroke="none"></circle><circle r="3.6578947368421053" cx="320" cy="240" fill="#1b1f3bff" stroke="none"></circle><circle r="3.6578947368421053" cx="400" cy="240" fill="#1b1f3bff" stroke="none"></circle><circle r="3.6578947368421053" cx="480" cy="240" fill="#1b1f3bff" stroke="none"></circle><circle r="3.6578947368421053" cx="560" cy="240" fill="#1b1f3bff" stroke="none"></circle><circle r="3.6578947368421053" cx="640" cy="240" fill="#1b1f3bff" stroke="none"></circle><circle r="3.6578947368421053" cx="720" cy="240" fill="#1b1f3bff" stroke="none"></circle><circle r="3.6578947368421053" cx="800" cy="240" fill="#1b1f3bff" stroke="none"></circle><circle r="3.6578947368421053" cx="0" cy="320" fill="#1b1f3bff" stroke="none"></circle><circle r="3.6578947368421053" cx="80" cy="320" fill="#1b1f3bff" stroke="none"></circle><circle r="3.6578947368421053" cx="160" cy="320" fill="#1b1f3bff" stroke="none"></circle><circle r="3.6578947368421053" cx="240" cy="320" fill="#1b1f3bff" stroke="none"></circle><circle r="3.6578947368421053" cx="320" cy="320" fill="#1b1f3bff" stroke="none"></circle><circle r="3.6578947368421053" cx="400" cy="320" fill="#1b1f3bff" stroke="none"></circle><circle r="3.6578947368421053" cx="480" cy="320" fill="#1b1f3bff" stroke="none"></circle><circle r="3.6578947368421053" cx="560" cy="320" fill="#1b1f3bff" stroke="none"></circle><circle r="3.6578947368421053" cx="640" cy="320" fill="#1b1f3bff" stroke="none"></circle><circle r="3.6578947368421053" cx="720" cy="320" fill="#1b1f3bff" stroke="none"></circle><circle r="3.6578947368421053" cx="800" cy="320" fill="#1b1f3bff" stroke="none"></circle><circle r="3.6578947368421053" cx="0" cy="400" fill="#1b1f3bff" stroke="none"></circle><circle r="3.6578947368421053" cx="80" cy="400" fill="#1b1f3bff" stroke="none"></circle><circle r="3.6578947368421053" cx="160" cy="400" fill="#1b1f3bff" stroke="none"></circle><circle r="3.6578947368421053" cx="240" cy="400" fill="#1b1f3bff" stroke="none"></circle><circle r="3.6578947368421053" cx="320" cy="400" fill="#1b1f3bff" stroke="none"></circle><circle r="3.6578947368421053" cx="400" cy="400" fill="#1b1f3bff" stroke="none"></circle><circle r="3.6578947368421053" cx="480" cy="400" fill="#1b1f3bff" stroke="none"></circle><circle r="3.6578947368421053" cx="560" cy="400" fill="#1b1f3bff" stroke="none"></circle><circle r="3.6578947368421053" cx="640" cy="400" fill="#1b1f3bff" stroke="none"></circle><circle r="3.6578947368421053" cx="720" cy="400" fill="#1b1f3bff" stroke="none"></circle><circle r="3.6578947368421053" cx="800" cy="400" fill="#1b1f3bff" stroke="none"></circle><circle r="3.6578947368421053" cx="0" cy="480" fill="#1b1f3bff" stroke="none"></circle><circle r="3.6578947368421053" cx="80" cy="480" fill="#1b1f3bff" stroke="none"></circle><circle r="3.6578947368421053" cx="160" cy="480" fill="#1b1f3bff" stroke="none"></circle><circle r="3.6578947368421053" cx="240" cy="480" fill="#1b1f3bff" stroke="none"></circle><circle r="3.6578947368421053" cx="320" cy="480" fill="#1b1f3bff" stroke="none"></circle><circle r="3.6578947368421053" cx="400" cy="480" fill="#1b1f3bff" stroke="none"></circle><circle r="3.6578947368421053" cx="480" cy="480" fill="#1b1f3bff" stroke="none"></circle><circle r="3.6578947368421053" cx="560" cy="480" fill="#1b1f3bff" stroke="none"></circle><circle r="3.6578947368421053" cx="640" cy="480" fill="#1b1f3bff" stroke="none"></circle><circle r="3.6578947368421053" cx="720" cy="480" fill="#1b1f3bff" stroke="none"></circle><circle r="3.6578947368421053" cx="800" cy="480" fill="#1b1f3bff" stroke="none"></circle><circle r="3.6578947368421053" cx="0" cy="560" fill="#1b1f3bff" stroke="none"></circle><circle r="3.6578947368421053" cx="80" cy="560" fill="#1b1f3bff" stroke="none"></circle><circle r="3.6578947368421053" cx="160" cy="560" fill="#1b1f3bff" stroke="none"></circle><circle r="3.6578947368421053" cx="240" cy="560" fill="#1b1f3bff" stroke="none"></circle><circle r="3.6578947368421053" cx="320" cy="560" fill="#1b1f3bff" stroke="none"></circle><circle r="3.6578947368421053" cx="400" cy="560" fill="#1b1f3bff" stroke="none"></circle><circle r="3.6578947368421053" cx="480" cy="560" fill="#1b1f3bff" stroke="none"></circle><circle r="3.6578947368421053" cx="560" cy="560" fill="#1b1f3bff" stroke="none"></circle><circle r="3.6578947368421053" cx="640" cy="560" fill="#1b1f3bff" stroke="none"></circle><circle r="3.6578947368421053" cx="720" cy="560" fill="#1b1f3bff" stroke="none"></circle><circle r="3.6578947368421053" cx="800" cy="560" fill="#1b1f3bff" stroke="none"></circle><circle r="3.6578947368421053" cx="0" cy="640" fill="#1b1f3bff" stroke="none"></circle><circle r="3.6578947368421053" cx="80" cy="640" fill="#1b1f3bff" stroke="none"></circle><circle r="3.6578947368421053" cx="160" cy="640" fill="#1b1f3bff" stroke="none"></circle><circle r="3.6578947368421053" cx="240" cy="640" fill="#1b1f3bff" stroke="none"></circle><circle r="3.6578947368421053" cx="320" cy="640" fill="#1b1f3bff" stroke="none"></circle><circle r="3.6578947368421053" cx="400" cy="640" fill="#1b1f3bff" stroke="none"></circle><circle r="3.6578947368421053" cx="480" cy="640" fill="#1b1f3bff" stroke="none"></circle><circle r="3.6578947368421053" cx="560" cy="640" fill="#1b1f3bff" stroke="none"></circle><circle r="3.6578947368421053" cx="640" cy="640" fill="#1b1f3bff" stroke="none"></circle><circle r="3.6578947368421053" cx="720" cy="640" fill="#1b1f3bff" stroke="none"></circle><circle r="3.6578947368421053" cx="800" cy="640" fill="#1b1f3bff" stroke="none"></circle><circle r="3.6578947368421053" cx="0" cy="720" fill="#1b1f3bff" stroke="none"></circle><circle r="3.6578947368421053" cx="80" cy="720" fill="#1b1f3bff" stroke="none"></circle><circle r="3.6578947368421053" cx="160" cy="720" fill="#1b1f3bff" stroke="none"></circle><circle r="3.6578947368421053" cx="240" cy="720" fill="#1b1f3bff" stroke="none"></circle><circle r="3.6578947368421053" cx="320" cy="720" fill="#1b1f3bff" stroke="none"></circle><circle r="3.6578947368421053" cx="400" cy="720" fill="#1b1f3bff" stroke="none"></circle><circle r="3.6578947368421053" cx="480" cy="720" fill="#1b1f3bff" stroke="none"></circle><circle r="3.6578947368421053" cx="560" cy="720" fill="#1b1f3bff" stroke="none"></circle><circle r="3.6578947368421053" cx="640" cy="720" fill="#1b1f3bff" stroke="none"></circle><circle r="3.6578947368421053" cx="720" cy="720" fill="#1b1f3bff" stroke="none"></circle><circle r="3.6578947368421053" cx="800" cy="720" fill="#1b1f3bff" stroke="none"></circle><circle r="3.6578947368421053" cx="0" cy="800" fill="#1b1f3bff" stroke="none"></circle><circle r="3.6578947368421053" cx="80" cy="800" fill="#1b1f3bff" stroke="none"></circle><circle r="3.6578947368421053" cx="160" cy="800" fill="#1b1f3bff" stroke="none"></circle><circle r="3.6578947368421053" cx="240" cy="800" fill="#1b1f3bff" stroke="none"></circle><circle r="3.6578947368421053" cx="320" cy="800" fill="#1b1f3bff" stroke="none"></circle><circle r="3.6578947368421053" cx="400" cy="800" fill="#1b1f3bff" stroke="none"></circle><circle r="3.6578947368421053" cx="480" cy="800" fill="#1b1f3bff" stroke="none"></circle><circle r="3.6578947368421053" cx="560" cy="800" fill="#1b1f3bff" stroke="none"></circle><circle r="3.6578947368421053" cx="640" cy="800" fill="#1b1f3bff" stroke="none"></circle><circle r="3.6578947368421053" cx="720" cy="800" fill="#1b1f3bff" stroke="none"></circle><circle r="3.6578947368421053" cx="800" cy="800" fill="#1b1f3bff" stroke="none"></circle></g></svg>