<svg width="567" height="716" viewBox="0 0 567 716" fill="none" xmlns="http://www.w3.org/2000/svg">
<path d="M35.6292 193.993C67.286 178.626 77.8206 160.224 82.7051 150.23C87.0131 141.416 64.6985 131.101 59.4114 127.993C54.6072 125.168 47.9856 122.732 41.154 117.227C34.323 111.723 31.2464 102.507 30.1308 95.6691C27.8985 81.9844 31.6424 64.2236 34.7381 58.2566C39.7526 48.5911 62.8767 56.25 74.5269 60.2038C86.5151 64.2723 101.161 60.2368 110.184 56.9299C116.024 54.7894 120.091 46.1906 123.847 38.2434C126.931 31.7173 126.269 25.0421 130.441 18.6592C135.751 10.535 157.425 9.1741 173.972 11.8012C181.588 13.0102 186.098 19.7088 189.854 24.9959C196.475 34.3175 210.732 45.6889 221.497 49.4249C235.46 54.2706 242.415 46.5866 247.933 43.2929C253.647 39.882 254.322 31.6427 257.18 23.7286C259.928 16.1189 259.603 10.5206 263.992 6.54704C268.378 2.57696 276.289 3.02228 294.745 3.00908C300.647 3.00486 303.603 5.64935 306.236 6.96288C312.649 10.1612 314.599 19.2599 317.246 26.3094C320.005 33.6559 327.352 36.8705 335.695 42.1576C357.455 55.9471 388.5 45.2665 397.972 42.1906C404.438 40.0911 407.88 32.9629 412.949 27.4579C417.879 22.1046 422.401 18.8639 427.906 16.0058C434.215 12.7304 444.368 13.1345 452.547 15.5437C461.944 18.312 469.504 31.5899 471.266 37.0949C474.699 47.8187 473.464 65.0157 480.045 79.7484C483.563 87.6238 497.174 87.0619 507.966 88.1576C526.61 90.0506 540.685 87.0619 550.679 88.8111C554.567 89.4916 557.504 93.6493 560.58 96.283C567.336 102.068 561.939 118.692 555.57 131.676C549.134 144.793 541.266 152.593 535.979 156.798C531.572 160.303 526.745 164.923 523.867 171.082C519.096 181.29 523.18 192.62 526.705 200.349C529.67 206.85 537.675 214.191 544.078 222.125C550.76 230.405 554.415 238.824 557.293 245.458C560.227 252.223 562.362 273.042 559.735 285.062C558.398 291.18 549.636 295.167 542.586 299.372C539.425 301.257 535.537 301.795 532.679 303.768C526.773 307.846 524.976 324.158 525.821 345.504C526.642 366.261 544.276 373.029 549.147 380.111C554.93 388.518 558.824 403.418 560.817 410.243C561.498 412.572 561.042 416.144 559.953 418.811C556.121 428.192 545.675 430.27 536.652 434.026C530.91 436.416 527.616 442.151 524.527 448.534C521.908 453.946 521.887 461.504 521.873 477.319C521.866 486.684 529.332 492.316 534.837 499.352C541.547 507.929 544.751 513.438 550.896 523.108C555.76 530.761 562.335 542.455 563.029 558.732C563.369 566.724 551.827 570.204 546.54 571.986C539.952 574.207 535.537 584.699 532.23 591.333C530.956 593.888 530.679 602.283 531.114 613.497C531.483 622.99 540.342 628.29 543.649 633.577C546.944 638.845 547.84 655.035 546.309 666.356C545.006 675.99 535.537 686.375 530.698 691.88C527.918 695.044 525.411 698.705 522.778 701.564C518.014 706.733 499.55 704.884 479.306 698.778C448.851 689.593 429.504 672.765 423.134 671.669C408.014 669.068 387.708 670.111 380.87 672.527C371.462 675.851 367.88 681.095 359.972 689.669C354.527 695.573 347.233 704.831 336.877 710.811C329.367 715.147 300.342 712.804 272.659 705.577C262.384 702.894 258.309 695.669 253.471 690.6C249.047 685.965 243.365 680.276 238.507 674.758C233.583 669.166 227.075 667.049 221.57 666.382C211.276 665.135 190.19 671.379 178.89 679.557C172.824 683.947 166.798 691.207 159.748 696.943C153.18 702.287 147.867 706.626 141.266 709.933C133.667 713.74 123.233 712.356 88.3553 712.369C73.602 712.374 62.5599 698.811 55.451 688.204C49.6899 679.608 47.5104 668.408 48.3817 659.405C49.7696 645.063 60.6853 641.095 70.1375 631.656C76.6341 625.168 75.2332 607.748 72.6061 592.494C71.2994 584.907 64.6985 578.626 59.6292 572.89C55.1639 567.838 49.3058 562.336 42.2695 555.524C24.9688 538.775 11.4708 531.55 5.72161 524.27C1.7894 519.29 2.6259 506.943 5.03514 498.963C7.61653 490.412 21.4774 473.517 30.5401 460.481C38.529 448.989 42.6523 440.884 45.2992 434.943C49.0806 426.456 49.7018 420.21 49.9328 401.326C50.0502 391.732 42.2563 382.375 38.0714 374.012C28.6609 355.206 21.1342 346.283 16.2827 337.042C14.3412 333.344 14.5071 325.187 15.1606 315.293C15.8053 305.531 29.3982 296.144 36.2695 287.531C42.6962 279.474 47.484 273.676 51.2398 267.94C52.8037 265.551 52.7909 259.167 52.1375 251.035C51.4014 241.875 43.5764 237.583 39.385 232.514C35.4095 227.706 31.2464 223.062 29.0351 217.775C26.8848 212.633 26.3883 206.349 27.0417 200.633C31.6556 196.197 35.616 194.877 38.2497 193.781C39.5764 193.121 40.8833 192.25 42.2299 191.352" stroke="url(#paint0_linear_52_352)" stroke-width="6" stroke-linecap="round"/>
<defs>
<linearGradient id="paint0_linear_52_352" x1="283.35" y1="3" x2="283.35" y2="712.988" gradientUnits="userSpaceOnUse">
<stop stop-color="#E6B8C2"/>
<stop offset="1" stop-color="white"/>
</linearGradient>
</defs>
</svg>
