<svg width="568" height="716" viewBox="0 0 568 716" fill="none" xmlns="http://www.w3.org/2000/svg">
<path d="M36.2244 193.993C67.8811 178.627 78.4158 160.224 83.3003 150.231C87.6082 141.417 65.2937 131.102 60.0065 127.993C55.2024 125.168 48.5808 122.733 41.7491 117.228C34.9182 111.723 31.8415 102.508 30.726 95.6699C28.4936 81.9851 32.2376 64.2243 35.3333 58.2573C40.3478 48.5919 63.4719 56.2507 75.122 60.2045C87.1103 64.2731 101.756 60.2375 110.779 56.9306C116.619 54.7901 120.686 46.1913 124.442 38.2441C127.526 31.7181 126.865 25.0428 131.036 18.66C136.346 10.5357 158.02 9.17483 174.568 11.8019C182.183 13.0109 186.693 19.7095 190.449 24.9966C197.07 34.3182 211.327 45.6897 222.092 49.4257C236.056 54.2713 243.01 46.5874 248.528 43.2936C254.242 39.8828 254.917 31.6435 257.775 23.7293C260.524 16.1196 260.198 10.5214 264.587 6.54777C268.973 2.57769 276.884 3.02302 295.34 3.00982C301.242 3.00559 304.198 5.65008 306.832 6.96361C313.244 10.1619 315.195 19.2606 317.841 26.3101C320.6 33.6566 327.947 36.8712 336.29 42.1583C358.05 55.9478 389.096 45.2672 398.568 42.1913C405.033 40.0918 408.475 32.9636 413.544 27.4587C418.474 22.1053 422.997 18.8646 428.502 16.0065C434.81 12.7311 444.964 13.1352 453.142 15.5445C462.539 18.3127 470.099 31.5907 471.861 37.0956C475.294 47.8194 474.059 65.0164 480.64 79.7491C484.158 87.6245 497.769 87.0626 508.561 88.1583C527.206 90.0513 541.28 87.0626 551.274 88.8118C555.162 89.4923 558.099 93.6501 561.175 96.2837C567.932 102.069 562.535 118.693 556.165 131.676C549.73 144.794 541.861 152.594 536.574 156.799C532.167 160.303 527.34 164.924 524.462 171.082C519.691 181.291 523.775 192.62 527.3 200.35C530.265 206.851 538.271 214.191 544.673 222.125C551.355 230.406 555.01 238.825 557.888 245.459C560.822 252.223 562.957 273.043 560.33 285.063C558.993 291.181 550.231 295.168 543.181 299.373C540.021 301.258 536.132 301.795 533.274 303.769C527.368 307.847 525.571 324.158 526.416 345.505C527.237 366.261 544.871 373.03 549.742 380.112C555.525 388.519 559.419 403.419 561.412 410.244C562.093 412.573 561.637 416.145 560.548 418.812C556.716 428.193 546.271 430.271 537.247 434.026C531.505 436.417 528.211 442.152 525.122 448.535C522.503 453.947 522.482 461.505 522.469 477.32C522.461 486.684 529.927 492.317 535.432 499.353C542.143 507.93 545.346 513.439 551.492 523.109C556.355 530.762 562.931 542.455 563.624 558.733C563.964 566.725 552.422 570.205 547.135 571.987C540.547 574.207 536.132 584.7 532.825 591.333C531.551 593.888 531.274 602.284 531.709 613.498C532.078 622.99 540.937 628.29 544.244 633.577C547.54 638.846 548.436 655.036 546.904 666.356C545.601 675.991 536.132 686.376 531.294 691.881C528.513 695.045 526.007 698.706 523.373 701.564C518.609 706.734 500.145 704.884 479.901 698.779C449.446 689.594 430.099 672.766 423.729 671.67C408.609 669.069 388.304 670.112 381.465 672.528C372.057 675.852 368.475 681.096 360.568 689.67C355.122 695.574 347.828 704.832 337.472 710.812C329.962 715.148 300.937 712.805 273.254 705.577C262.979 702.895 258.904 695.67 254.066 690.601C249.642 685.966 243.96 680.277 239.102 674.759C234.179 669.166 227.67 667.049 222.165 666.383C211.871 665.136 190.785 671.379 179.485 679.558C173.419 683.948 167.393 691.208 160.343 696.944C153.775 702.288 148.462 706.627 141.861 709.934C134.262 713.741 123.828 712.356 88.9504 712.37C74.1972 712.375 63.155 698.812 56.0461 688.205C50.285 679.608 48.1055 668.409 48.9768 659.406C50.3648 645.064 61.2805 641.096 70.7326 631.657C77.2292 625.169 75.8283 607.749 73.2012 592.495C71.8945 584.908 65.2937 578.627 60.2244 572.891C55.7591 567.838 49.9009 562.337 42.8646 555.525C25.5639 538.776 12.0659 531.551 6.31676 524.271C2.38456 519.291 3.22105 506.944 5.6303 498.964C8.21168 490.413 22.0725 473.518 31.1352 460.482C39.1241 448.99 43.2475 440.884 45.8943 434.944C49.6757 426.457 50.297 420.211 50.528 401.327C50.6454 391.733 42.8514 382.376 38.6666 374.013C29.2561 355.207 21.7293 346.284 16.8778 337.043C14.9363 333.345 15.1022 325.188 15.7557 315.294C16.4004 305.532 29.9933 296.145 36.8646 287.531C43.2913 279.475 48.0791 273.676 51.8349 267.94C53.3989 265.552 53.3861 259.168 52.7326 251.036C51.9965 241.876 44.1715 237.584 39.9801 232.515C36.0047 227.707 31.8415 223.063 29.6303 217.775C27.48 212.634 26.9834 206.35 27.6369 200.634C32.2508 196.198 36.2112 194.878 38.8448 193.782C40.1715 193.122 41.4785 192.251 42.825 191.353" stroke="url(#paint0_linear_7_300)" stroke-width="6" stroke-linecap="round"/>
<defs>
<linearGradient id="paint0_linear_7_300" x1="283.945" y1="3.00073" x2="283.945" y2="712.989" gradientUnits="userSpaceOnUse">
<stop stop-color="#E6B8C2"/>
<stop offset="1" stop-color="white"/>
</linearGradient>
</defs>
</svg>
