<svg width="1920" height="3340" viewBox="0 0 1920 3340" fill="none" xmlns="http://www.w3.org/2000/svg">
<g clip-path="url(#clip0_13_478)">
<path opacity="0.59" d="M777.558 771.419L731.577 765.694C705.828 762.487 688.08 739.449 691.242 713.335L737.223 719.061C762.972 722.267 780.72 745.305 777.558 771.419Z" fill="#E6B8C2" fill-opacity="0.5"/>
<path opacity="0.47" d="M656.239 1637.71L629.642 1663.75C614.748 1678.34 591.744 1677.93 577.361 1662.83L603.958 1636.78C618.852 1622.19 641.856 1622.6 656.239 1637.71Z" fill="#E6B8C2" fill-opacity="0.5"/>
<path opacity="0.5" d="M355.204 1411.66L322.59 1433.14C304.326 1445.17 280.657 1440.07 268.796 1421.54L301.41 1400.06C319.674 1388.03 343.343 1393.14 355.204 1411.66Z" fill="#E6B8C2" fill-opacity="0.5"/>
<path opacity="0.77" d="M967.471 957.43L961.156 896.489C957.619 862.362 981.279 832.73 1014.93 829.143L1021.24 890.084C1024.78 924.211 1001.12 953.843 967.471 957.43Z" fill="#E6B8C2" fill-opacity="0.5"/>
<path opacity="0.87" d="M1293.25 1146.3L1330.06 1088.81C1350.67 1056.62 1391.81 1047.75 1423.55 1068.66L1386.74 1126.15C1366.13 1158.34 1324.99 1167.21 1293.25 1146.3Z" fill="#E6B8C2" fill-opacity="0.5"/>
<path opacity="0.77" d="M971.018 510.087L961.661 450.171C956.421 416.618 978.298 386.079 1011.38 380.765L1020.74 440.681C1025.98 474.234 1004.1 504.773 971.018 510.087Z" fill="#E6B8C2" fill-opacity="0.5"/>
<path opacity="0.38" d="M1864.03 991.68L1860.4 1021.7C1858.36 1038.51 1843.74 1050.1 1827.17 1048.03L1830.8 1018.01C1832.84 1001.2 1847.46 989.616 1864.03 991.68Z" fill="#E6B8C2" fill-opacity="0.5"/>
<path opacity="0.67" d="M849.516 956.17L810.381 920.433C788.465 900.421 786.75 867.233 806.483 845.006L845.619 880.743C867.534 900.756 869.249 933.944 849.516 956.17Z" fill="#E6B8C2" fill-opacity="0.5"/>
<path opacity="0.65" d="M1706.49 1371.55L1663.71 1343.37C1639.75 1327.59 1633.15 1296.1 1648.71 1271.8L1691.49 1299.98C1715.45 1315.76 1722.05 1347.25 1706.49 1371.55Z" fill="#E6B8C2" fill-opacity="0.5"/>
<path opacity="0.68" d="M843.874 465.189L805.14 428.557C783.449 408.043 782.299 374.64 802.526 352.642L841.26 389.274C862.951 409.788 864.101 443.191 843.874 465.189Z" fill="#E6B8C2" fill-opacity="0.5"/>
<path opacity="0.8" d="M1118.03 456.01L1125.67 392.869C1129.95 357.51 1160.71 333.139 1195.57 337.481L1187.93 400.622C1183.65 435.981 1152.89 460.352 1118.03 456.01Z" fill="#E6B8C2" fill-opacity="0.5"/>
<path opacity="0.55" d="M749.522 587.515L707.303 595.838C683.661 600.499 661.473 585.321 656.878 561.343L699.097 553.021C722.739 548.36 744.927 563.537 749.522 587.515Z" fill="#E6B8C2" fill-opacity="0.5"/>
<path opacity="0.86" d="M1365.36 995.326L1402.11 937.937C1422.69 905.799 1463.75 896.946 1495.44 917.816L1458.69 975.206C1438.11 1007.34 1397.05 1016.2 1365.36 995.326Z" fill="#E6B8C2" fill-opacity="0.5"/>
<path opacity="0.59" d="M1763.5 981.538L1717.57 974.992C1691.85 971.326 1674.49 947.952 1678.1 921.868L1724.03 928.414C1749.75 932.08 1767.11 955.455 1763.5 981.538Z" fill="#E6B8C2" fill-opacity="0.5"/>
<path opacity="0.59" d="M280.305 1904.04L234.372 1897.49C208.65 1893.82 191.28 1870.45 194.895 1844.36L240.828 1850.91C266.55 1854.57 283.92 1877.95 280.305 1904.04Z" fill="#E6B8C2" fill-opacity="0.5"/>
<path opacity="0.5" d="M357.604 1579.61L324.99 1601.09C306.726 1613.12 283.057 1608.01 271.196 1589.49L303.81 1568.01C322.074 1555.98 345.743 1561.08 357.604 1579.61Z" fill="#E6B8C2" fill-opacity="0.5"/>
<path opacity="0.77" d="M974.671 670.215L968.356 609.274C964.819 575.147 988.479 545.515 1022.13 541.928L1028.44 602.869C1031.98 636.996 1008.32 666.628 974.671 670.215Z" fill="#E6B8C2" fill-opacity="0.5"/>
<path opacity="0.53" d="M333.949 382.637L295.075 396.986C273.305 405.022 249.974 393.989 242.051 371.911L280.925 357.561C302.695 349.525 326.026 360.558 333.949 382.637Z" fill="#E6B8C2" fill-opacity="0.5"/>
<path opacity="0.47" d="M651.439 1467.32L624.842 1493.37C609.948 1507.96 586.944 1507.55 572.561 1492.45L599.158 1466.4C614.052 1451.81 637.056 1452.22 651.439 1467.32Z" fill="#E6B8C2" fill-opacity="0.5"/>
<path opacity="0.8" d="M1503.18 624.428L1509.72 561.38C1513.38 526.073 1543.6 501.247 1578.42 504.958L1571.88 568.007C1568.22 603.314 1538 628.139 1503.18 624.428Z" fill="#E6B8C2" fill-opacity="0.5"/>
<path opacity="0.74" d="M1286.31 160.182L1268.32 104.047C1258.25 72.6107 1274.69 39.8857 1305.69 29.6716L1323.68 85.8071C1333.75 117.243 1317.31 149.968 1286.31 160.182Z" fill="#E6B8C2" fill-opacity="0.5"/>
<path opacity="0.59" d="M1729.9 1711.75L1683.97 1705.2C1658.25 1701.53 1640.89 1678.16 1644.5 1652.08L1690.43 1658.62C1716.15 1662.29 1733.51 1685.66 1729.9 1711.75Z" fill="#E6B8C2" fill-opacity="0.5"/>
<path opacity="0.63" d="M1907.67 324.795L1862.39 305.305C1837.04 294.39 1825.57 265.611 1836.33 239.898L1881.61 259.388C1906.96 270.303 1918.43 299.082 1907.67 324.795Z" fill="#E6B8C2" fill-opacity="0.5"/>
<path opacity="0.74" d="M909.286 1581.35L887.758 1527.31C875.702 1497.05 889.675 1463.67 919.514 1451.44L941.042 1505.48C953.098 1535.74 939.125 1569.13 909.286 1581.35Z" fill="#E6B8C2" fill-opacity="0.5"/>
<path opacity="0.58" d="M613.551 259.792L568.406 258.993C543.125 258.545 523.607 238.048 524.049 212.408L569.194 213.208C594.475 213.655 613.992 234.152 613.551 259.792Z" fill="#E6B8C2" fill-opacity="0.5"/>
<path opacity="0.59" d="M787.158 1263.09L741.177 1257.37C715.428 1254.16 697.68 1231.12 700.842 1205.01L746.823 1210.73C772.572 1213.94 790.32 1236.98 787.158 1263.09Z" fill="#E6B8C2" fill-opacity="0.5"/>
<path opacity="0.38" d="M1864.03 1137.72L1860.4 1167.74C1858.36 1184.55 1843.74 1196.14 1827.17 1194.07L1830.8 1164.05C1832.84 1147.24 1847.46 1135.66 1864.03 1137.72Z" fill="#E6B8C2" fill-opacity="0.5"/>
<path opacity="0.86" d="M1346.16 652.128L1382.91 594.739C1403.49 562.602 1444.55 553.749 1476.24 574.619L1439.49 632.008C1418.91 664.146 1377.85 672.999 1346.16 652.128Z" fill="#E6B8C2" fill-opacity="0.5"/>
<path opacity="0.73" d="M1836.66 227.492L1812.65 175.258C1799.2 146.007 1811.29 112.307 1840.14 98.6667L1864.15 150.901C1877.6 180.152 1865.51 213.852 1836.66 227.492Z" fill="#E6B8C2" fill-opacity="0.5"/>
<path opacity="0.38" d="M1868.83 828.601L1865.2 858.619C1863.16 875.429 1848.54 887.015 1831.97 884.951L1835.6 854.933C1837.64 838.123 1852.26 826.537 1868.83 828.601Z" fill="#E6B8C2" fill-opacity="0.5"/>
<path opacity="0.78" d="M32.7838 1698.95L29.5971 1637.28C27.8125 1602.75 53.1649 1574.19 87.2162 1572.38L90.4029 1634.05C92.1875 1668.58 66.835 1697.14 32.7838 1698.95Z" fill="#E6B8C2" fill-opacity="0.5"/>
<path opacity="0.44" d="M630.945 1851.9L612.105 1881.32C601.555 1897.79 580.501 1902.33 564.255 1891.63L583.095 1862.21C593.645 1845.73 614.699 1841.2 630.945 1851.9Z" fill="#E6B8C2" fill-opacity="0.5"/>
<path opacity="0.76" d="M1413.74 140.473L1401.42 81.7008C1394.53 48.7883 1414.61 17.4318 1447.06 10.436L1459.38 69.2084C1466.27 102.121 1446.19 133.477 1413.74 140.473Z" fill="#E6B8C2" fill-opacity="0.5"/>
<path opacity="0.71" d="M860.003 641.493L829.07 594.983C811.748 568.937 818.316 534.67 843.997 517.102L874.93 563.612C892.252 589.657 885.684 623.925 860.003 641.493Z" fill="#E6B8C2" fill-opacity="0.5"/>
<path opacity="0.38" d="M1864.03 534.084L1860.4 564.102C1858.36 580.913 1843.74 592.499 1827.17 590.435L1830.8 560.416C1832.84 543.606 1847.46 532.02 1864.03 534.084Z" fill="#E6B8C2" fill-opacity="0.5"/>
<path opacity="0.8" d="M1034.98 1640.5L1039.33 1577.48C1041.76 1542.18 1071.02 1516.39 1105.82 1518.86L1101.47 1581.88C1099.04 1617.18 1069.78 1642.97 1034.98 1640.5Z" fill="#E6B8C2" fill-opacity="0.5"/>
<path opacity="0.8" d="M1020.58 1280.27L1024.93 1217.24C1027.36 1181.95 1056.62 1156.16 1091.42 1158.62L1087.07 1221.65C1084.64 1256.94 1055.38 1282.73 1020.58 1280.27Z" fill="#E6B8C2" fill-opacity="0.5"/>
<path opacity="0.5" d="M362.404 1209.64L329.79 1231.12C311.526 1243.14 287.857 1238.04 275.996 1219.52L308.61 1198.04C326.874 1186.01 350.543 1191.11 362.404 1209.64Z" fill="#E6B8C2" fill-opacity="0.5"/>
<path opacity="0.71" d="M1860.81 115.775L1829.86 69.2421C1812.53 43.1837 1819.1 8.89907 1844.79 -8.67753L1875.74 37.8553C1893.07 63.9137 1886.5 98.1983 1860.81 115.775Z" fill="#E6B8C2" fill-opacity="0.5"/>
<path opacity="0.83" d="M952.015 146.365L969.795 83.4764C979.753 48.2589 1014.86 28.5225 1049.59 38.621L1031.8 101.509C1021.85 136.727 986.74 156.463 952.015 146.365Z" fill="#E6B8C2" fill-opacity="0.5"/>
<path opacity="0.81" d="M619.107 137.408L631.226 74.1772C638.013 38.7679 670.778 16.3542 705.693 23.2371L693.574 86.4681C686.787 121.877 654.022 144.291 619.107 137.408Z" fill="#E6B8C2" fill-opacity="0.5"/>
<path opacity="0.71" d="M1607.74 1074.96L1577.57 1027.85C1560.68 1001.47 1567.85 967.279 1593.86 950.147L1624.03 997.257C1640.92 1023.64 1633.75 1057.83 1607.74 1074.96Z" fill="#E6B8C2" fill-opacity="0.5"/>
<path opacity="0.85" d="M1621.75 219.018L1653.01 159.4C1670.51 126.014 1710.13 113.73 1743.05 131.482L1711.79 191.1C1694.29 224.486 1654.67 236.77 1621.75 219.018Z" fill="#E6B8C2" fill-opacity="0.5"/>
<path opacity="0.65" d="M225.471 1369.4L181.79 1343.82C157.329 1329.5 149.206 1298.76 163.329 1273.95L207.01 1299.52C231.471 1313.85 239.594 1344.59 225.471 1369.4Z" fill="#E6B8C2" fill-opacity="0.5"/>
<path opacity="0.86" d="M1355.76 1611.13L1392.51 1553.74C1413.09 1521.61 1454.15 1512.75 1485.84 1533.62L1449.09 1591.01C1428.51 1623.15 1387.45 1632 1355.76 1611.13Z" fill="#E6B8C2" fill-opacity="0.5"/>
<path opacity="0.8" d="M1039.78 800.764L1044.13 737.739C1046.56 702.446 1075.82 676.654 1110.62 679.122L1106.27 742.146C1103.84 777.44 1074.58 803.232 1039.78 800.764Z" fill="#E6B8C2" fill-opacity="0.5"/>
<path opacity="0.65" d="M208.672 1566.56L164.99 1540.98C140.529 1526.66 132.406 1495.91 146.529 1471.1L190.21 1496.68C214.671 1511 222.794 1541.75 208.672 1566.56Z" fill="#E6B8C2" fill-opacity="0.5"/>
<path opacity="0.59" d="M1737.1 1173.83L1691.17 1167.28C1665.45 1163.61 1648.09 1140.24 1651.7 1114.16L1697.63 1120.7C1723.35 1124.37 1740.71 1147.74 1737.1 1173.83Z" fill="#E6B8C2" fill-opacity="0.5"/>
<path opacity="0.59" d="M1739.5 830.628L1693.57 824.082C1667.85 820.417 1650.49 797.042 1654.1 770.958L1700.03 777.505C1725.75 781.17 1743.11 804.545 1739.5 830.628Z" fill="#E6B8C2" fill-opacity="0.5"/>
<path opacity="0.72" d="M1158.38 129.547L1131.94 79.1241C1117.14 50.8871 1127.38 16.9042 1155.22 1.89028L1181.66 52.3136C1196.46 80.5506 1186.22 114.533 1158.38 129.547Z" fill="#E6B8C2" fill-opacity="0.5"/>
<path opacity="0.69" d="M1776.62 343.965L1741.26 302.711C1721.46 279.609 1723.8 245.679 1746.58 225.596L1781.94 266.85C1801.74 289.952 1799.4 323.883 1776.62 343.965Z" fill="#E6B8C2" fill-opacity="0.5"/>
<path opacity="0.78" d="M42.3838 1095.31L39.1971 1033.64C37.4125 999.108 62.7649 970.552 96.8162 968.742L100.003 1030.41C101.787 1064.94 76.435 1093.5 42.3838 1095.31Z" fill="#E6B8C2" fill-opacity="0.5"/>
<path opacity="0.63" d="M814.476 1107.73L769.518 1086.47C744.341 1074.56 733.784 1045.14 745.524 1019.61L790.482 1040.87C815.659 1052.78 826.216 1082.19 814.476 1107.73Z" fill="#E6B8C2" fill-opacity="0.5"/>
<path opacity="0.87" d="M1314.02 1308.32L1351.91 1251.34C1373.13 1219.44 1414.52 1211.28 1445.98 1232.8L1408.09 1289.77C1386.87 1321.68 1345.48 1329.84 1314.02 1308.32Z" fill="#E6B8C2" fill-opacity="0.5"/>
<path opacity="0.65" d="M1706.49 714.361L1663.71 686.183C1639.75 670.404 1633.15 638.914 1648.71 614.616L1691.49 642.793C1715.45 658.573 1722.05 690.063 1706.49 714.361Z" fill="#E6B8C2" fill-opacity="0.5"/>
<path opacity="0.65" d="M1677.69 1911.9L1634.91 1883.72C1610.95 1867.94 1604.35 1836.45 1619.91 1812.16L1662.69 1840.33C1686.65 1856.11 1693.25 1887.6 1677.69 1911.9Z" fill="#E6B8C2" fill-opacity="0.5"/>
<path opacity="0.59" d="M256.305 801.424L210.372 794.877C184.65 791.211 167.28 767.833 170.895 741.746L216.828 748.293C242.55 751.959 259.92 775.337 256.305 801.424Z" fill="#E6B8C2" fill-opacity="0.5"/>
<path opacity="0.4" d="M480.318 672.635L471.091 703.244C465.923 720.385 448.584 729.735 431.682 724.495L440.909 693.886C446.077 676.745 463.416 667.394 480.318 672.635Z" fill="#E6B8C2" fill-opacity="0.5"/>
<path opacity="0.4" d="M463.518 1278.71L454.291 1309.32C449.123 1326.46 431.783 1335.81 414.882 1330.57L424.109 1299.96C429.277 1282.82 446.616 1273.47 463.518 1278.71Z" fill="#E6B8C2" fill-opacity="0.5"/>
<path opacity="0.38" d="M1866.43 1420.07L1862.8 1450.09C1860.76 1466.9 1846.14 1478.48 1829.57 1476.42L1833.2 1446.4C1835.24 1429.59 1849.86 1418 1866.43 1420.07Z" fill="#E6B8C2" fill-opacity="0.5"/>
<path opacity="0.94" d="M753.53 80.9517L818.618 47.3177C855.067 28.4827 898.298 42.7283 916.87 79.6941L851.782 113.328C815.333 132.163 772.102 117.917 753.53 80.9517Z" fill="#E6B8C2" fill-opacity="0.5"/>
<path opacity="0.42" d="M1865.5 1576.25L1850.93 1606.54C1842.78 1623.5 1823.23 1630.33 1806.5 1622.06L1821.07 1591.77C1829.22 1574.8 1848.77 1567.98 1865.5 1576.25Z" fill="#E6B8C2" fill-opacity="0.5"/>
<path opacity="0.8" d="M1010.98 1457.95L1015.33 1394.93C1017.76 1359.63 1047.02 1333.84 1081.82 1336.31L1077.47 1399.33C1075.04 1434.63 1045.78 1460.42 1010.98 1457.95Z" fill="#E6B8C2" fill-opacity="0.5"/>
<path opacity="0.76" d="M903.692 1929.65L890.389 1871.21C882.939 1838.48 902.439 1806.83 934.708 1799.28L948.011 1857.72C955.461 1890.44 935.961 1922.09 903.692 1929.65Z" fill="#E6B8C2" fill-opacity="0.5"/>
<path opacity="0.59" d="M261.105 969.372L215.172 962.825C189.45 959.158 172.08 935.781 175.695 909.694L221.628 916.241C247.35 919.907 264.72 943.285 261.105 969.372Z" fill="#E6B8C2" fill-opacity="0.5"/>
<path opacity="0.85" d="M1214.7 1008.57L1244.83 948.593C1261.7 915.006 1300.98 902.062 1334.1 919.176L1303.97 979.153C1287.1 1012.74 1247.82 1025.68 1214.7 1008.57Z" fill="#E6B8C2" fill-opacity="0.5"/>
<path opacity="0.59" d="M767.958 1774.24L721.977 1768.51C696.228 1765.3 678.48 1742.27 681.642 1716.15L727.623 1721.88C753.372 1725.08 771.12 1748.12 767.958 1774.24Z" fill="#E6B8C2" fill-opacity="0.5"/>
<path opacity="0.83" d="M1450.55 1159.04L1471.7 1096.76C1483.54 1061.88 1519.86 1043.92 1554.25 1055.93L1533.1 1118.2C1521.26 1153.08 1484.94 1171.04 1450.55 1159.04Z" fill="#E6B8C2" fill-opacity="0.5"/>
<path opacity="0.54" d="M694.332 414.521L653.136 424.938C630.066 430.771 607.42 416.972 601.668 393.575L642.864 383.158C665.934 377.324 688.58 391.124 694.332 414.521Z" fill="#E6B8C2" fill-opacity="0.5"/>
<path opacity="0.84" d="M1173.85 828.083L1198.41 766.433C1212.16 731.909 1249.71 715.743 1283.75 729.692L1259.19 791.341C1245.44 825.865 1207.89 842.032 1173.85 828.083Z" fill="#E6B8C2" fill-opacity="0.5"/>
<path opacity="0.83" d="M1132.42 1517.57L1152.42 1455.14C1163.62 1420.18 1199.51 1401.64 1233.98 1413L1213.98 1475.42C1202.78 1510.38 1166.89 1528.93 1132.42 1517.57Z" fill="#E6B8C2" fill-opacity="0.5"/>
<path opacity="0.38" d="M1859.23 677.691L1855.6 707.71C1853.56 724.52 1838.94 736.106 1822.37 734.042L1826 704.024C1828.04 687.214 1842.66 675.627 1859.23 677.691Z" fill="#E6B8C2" fill-opacity="0.5"/>
<path opacity="0.78" d="M44.7838 915.192L41.5971 853.524C39.8125 818.99 65.1649 790.434 99.2162 788.624L102.403 850.292C104.187 884.826 78.835 913.382 44.7838 915.192Z" fill="#E6B8C2" fill-opacity="0.5"/>
<path opacity="0.9" d="M1341.36 454.597L1391.69 405.296C1419.88 377.688 1463.42 378.458 1490.64 407.048L1440.31 456.348C1412.12 483.957 1368.58 483.186 1341.36 454.597Z" fill="#E6B8C2" fill-opacity="0.5"/>
<path opacity="0.87" d="M1316.42 836.119L1354.31 779.145C1375.53 747.239 1416.92 739.079 1448.38 760.6L1410.49 817.574C1389.27 849.48 1347.88 857.64 1316.42 836.119Z" fill="#E6B8C2" fill-opacity="0.5"/>
<path opacity="0.42" d="M1867.9 1724.73L1853.33 1755.02C1845.18 1771.98 1825.63 1778.8 1808.9 1770.53L1823.47 1740.24C1831.62 1723.28 1851.17 1716.45 1867.9 1724.73Z" fill="#E6B8C2" fill-opacity="0.5"/>
<path opacity="0.79" d="M979.683 1788.03V1725.72C979.683 1690.83 1006.71 1663.42 1041.12 1663.42V1725.72C1041.12 1760.61 1014.09 1788.03 979.683 1788.03Z" fill="#E6B8C2" fill-opacity="0.5"/>
<path opacity="0.77" d="M80.6204 432.19L71.2645 372.282C66.0251 338.733 87.8998 308.199 120.98 302.885L130.336 362.793C135.575 396.342 113.7 426.877 80.6204 432.19Z" fill="#E6B8C2" fill-opacity="0.5"/>
<path opacity="0.4" d="M528.943 1729.25L519.118 1759.91C513.617 1777.08 495.99 1786.19 479.057 1780.61L488.882 1749.95C494.384 1732.78 512.01 1723.67 528.943 1729.25Z" fill="#E6B8C2" fill-opacity="0.5"/>
<path opacity="0.85" d="M1400.95 1917.96L1432.21 1858.35C1449.71 1824.96 1489.33 1812.68 1522.24 1830.43L1490.99 1890.05C1473.49 1923.43 1433.87 1935.71 1400.95 1917.96Z" fill="#E6B8C2" fill-opacity="0.5"/>
<path opacity="0.57" d="M266.337 239.205L221.963 241.564C197.113 242.884 176.565 224.121 175.263 198.919L219.637 196.56C244.487 195.239 265.035 214.003 266.337 239.205Z" fill="#E6B8C2" fill-opacity="0.5"/>
<path opacity="0.52" d="M146.067 71.8408L109.359 89.2008C88.8021 98.9223 65.1189 90.1802 55.5332 69.3322L92.2413 51.9723C112.798 42.2507 136.481 50.9929 146.067 71.8408Z" fill="#E6B8C2" fill-opacity="0.5"/>
<path opacity="0.74" d="M894.886 1406.1L873.358 1352.06C861.302 1321.8 875.275 1288.42 905.114 1276.19L926.642 1330.23C938.698 1360.49 924.725 1393.88 894.886 1406.1Z" stroke="#E6B8C2" stroke-opacity="0.5" stroke-width="1.43672"/>
<path opacity="0.94" d="M1425.18 331.188L1491.69 299.733C1528.94 282.118 1571.85 297.959 1589.22 335.734L1522.71 367.189C1485.46 384.804 1442.55 368.964 1425.18 331.188Z" stroke="#E6B8C2" stroke-opacity="0.5" stroke-width="1.83473"/>
<path opacity="0.74" d="M894.886 812.201L873.358 758.162C861.302 727.9 875.275 694.516 905.114 682.289L926.642 736.328C938.698 766.59 924.725 799.974 894.886 812.201Z" stroke="#E6B8C2" stroke-opacity="0.5" stroke-width="1.43672"/>
<path opacity="0.44" d="M609.345 759.019L590.505 788.441C579.955 804.917 558.901 809.456 542.655 798.756L561.495 769.334C572.045 752.858 593.099 748.319 609.345 759.019Z" stroke="#E6B8C2" stroke-opacity="0.5" stroke-width="0.86478"/>
<path opacity="0.81" d="M1065.37 1107.26L1075.24 1044.06C1080.77 1008.67 1112.53 985.261 1147.43 990.867L1137.56 1054.07C1132.03 1089.46 1100.27 1112.87 1065.37 1107.26Z" stroke="#E6B8C2" stroke-opacity="0.5" stroke-width="1.5774"/>
<path opacity="0.51" d="M711.721 926.232L676.55 945.198C656.855 955.819 633.151 948.469 622.679 928.494L657.85 909.528C677.545 898.907 701.249 906.257 711.721 926.232Z" stroke="#E6B8C2" stroke-opacity="0.5" stroke-width="0.995843"/>
<path opacity="0.81" d="M1050.97 1932.4L1060.84 1869.19C1066.37 1833.8 1098.13 1810.39 1133.03 1816L1123.16 1879.2C1117.63 1914.6 1085.87 1938 1050.97 1932.4Z" stroke="#E6B8C2" stroke-opacity="0.5" stroke-width="1.5774"/>
<path opacity="0.85" d="M1217.1 692.148L1247.23 632.17C1264.1 598.583 1303.38 585.639 1336.5 602.753L1306.37 662.73C1289.5 696.318 1250.22 709.262 1217.1 692.148Z" stroke="#E6B8C2" stroke-opacity="0.5" stroke-width="1.65934"/>
<path opacity="0.89" d="M1564.15 334.142L1611.44 282.704C1637.93 253.899 1681.05 252.372 1709.45 279.233L1662.16 330.67C1635.67 359.475 1592.55 361.003 1564.15 334.142Z" stroke="#E6B8C2" stroke-opacity="0.5" stroke-width="1.73372"/>
<path opacity="0.4" d="M531.343 933.322L521.518 963.987C516.016 981.16 498.39 990.268 481.457 984.689L491.282 954.024C496.783 936.851 514.41 927.743 531.343 933.322Z" stroke="#E6B8C2" stroke-opacity="0.5" stroke-width="0.794809"/>
<path opacity="0.82" d="M1662.5 112.193L1680.25 49.4163C1690.19 14.2611 1725.24 -5.44039 1759.9 4.64019L1742.15 67.4173C1732.21 102.572 1697.16 122.274 1662.5 112.193Z" stroke="#E6B8C2" stroke-opacity="0.5" stroke-width="1.60985"/>
<path opacity="0.43" d="M407.432 827.368L391.645 857.48C382.805 874.342 362.795 880.546 346.168 871.58L361.955 841.469C370.795 824.607 390.805 818.402 407.432 827.368Z" stroke="#E6B8C2" stroke-opacity="0.5" stroke-width="0.840664"/>
<path opacity="0.78" d="M47.1838 1913.14L43.9971 1851.47C42.2125 1816.94 67.565 1788.38 101.616 1786.57L104.803 1848.24C106.587 1882.78 81.235 1911.33 47.1838 1913.14Z" stroke="#E6B8C2" stroke-opacity="0.5" stroke-width="1.52223"/>
<path opacity="0.5" d="M352.804 659.547L320.19 681.027C301.926 693.056 278.257 687.953 266.396 669.431L299.01 647.951C317.274 635.922 340.943 641.024 352.804 659.547Z" stroke="#E6B8C2" stroke-opacity="0.5" stroke-width="0.972189"/>
<path opacity="0.78" d="M39.9838 579.297L36.7971 517.629C35.0125 483.095 60.3649 454.539 94.4162 452.729L97.6029 514.397C99.3875 548.931 74.035 577.487 39.9838 579.297Z" stroke="#E6B8C2" stroke-opacity="0.5" stroke-width="1.52223"/>
<path opacity="0.42" d="M1865.5 1284.17L1850.93 1314.46C1842.78 1331.42 1823.23 1338.25 1806.5 1329.97L1821.07 1299.68C1829.22 1282.72 1848.77 1275.9 1865.5 1284.17Z" stroke="#E6B8C2" stroke-opacity="0.5" stroke-width="0.830717"/>
<path opacity="0.42" d="M1855.9 1858.6L1841.33 1888.89C1833.18 1905.85 1813.63 1912.68 1796.9 1904.4L1811.47 1874.11C1819.62 1857.15 1839.17 1850.32 1855.9 1858.6Z" stroke="#E6B8C2" stroke-opacity="0.5" stroke-width="0.830717"/>
<path opacity="0.47" d="M661.039 1094.92L634.442 1120.97C619.548 1135.55 596.544 1135.15 582.161 1120.04L608.758 1093.99C623.652 1079.41 646.656 1079.81 661.039 1094.92Z" stroke="#E6B8C2" stroke-opacity="0.5" stroke-width="0.924341"/>
<path opacity="0.84" d="M1154.65 1358.7L1179.21 1297.05C1192.96 1262.53 1230.51 1246.36 1264.55 1260.31L1239.99 1321.96C1226.24 1356.48 1188.69 1372.65 1154.65 1358.7Z" stroke="#E6B8C2" stroke-opacity="0.5" stroke-width="1.63905"/>
<path opacity="0.85" d="M1214.7 1918.9L1244.83 1858.92C1261.7 1825.33 1300.98 1812.39 1334.1 1829.5L1303.97 1889.48C1287.1 1923.07 1247.82 1936.01 1214.7 1918.9Z" stroke="#E6B8C2" stroke-opacity="0.5" stroke-width="1.65934"/>
<path opacity="0.76" d="M1555.33 1622.83L1543.01 1564.03C1536.1 1531.09 1556.2 1499.72 1588.67 1492.72L1600.99 1551.53C1607.9 1584.46 1587.8 1615.83 1555.33 1622.83Z" stroke="#E6B8C2" stroke-opacity="0.5" stroke-width="1.48203"/>
<path opacity="0.59" d="M799.158 1596.55L753.177 1590.83C727.428 1587.62 709.68 1564.58 712.842 1538.47L758.823 1544.19C784.572 1547.4 802.32 1570.44 799.158 1596.55Z" stroke="#E6B8C2" stroke-opacity="0.5" stroke-width="1.15816"/>
<path opacity="0.93" d="M1320.9 242.448L1382.96 204.631C1417.71 183.454 1461.42 194.507 1482.3 229.752L1420.24 267.569C1385.49 288.747 1341.78 277.694 1320.9 242.448Z" stroke="#E6B8C2" stroke-opacity="0.5" stroke-width="1.80998"/>
<path opacity="0.46" d="M380.022 1724.14L356.949 1752.03C344.028 1767.64 321.777 1769.62 306.378 1756.51L329.451 1728.63C342.372 1713.01 364.623 1711.04 380.022 1724.14Z" stroke="#E6B8C2" stroke-opacity="0.5" stroke-width="0.897379"/>
<path opacity="0.79" d="M863.358 307.056L866.606 244.189C868.425 208.984 897.129 182.772 931.843 184.617L928.594 247.484C926.775 282.689 898.071 308.901 863.358 307.056Z" stroke="#E6B8C2" stroke-opacity="0.5" stroke-width="1.55182"/>
<path opacity="0.59" d="M1744.3 572.623L1698.37 566.076C1672.65 562.411 1655.29 539.036 1658.9 512.953L1704.83 519.499C1730.55 523.164 1747.91 546.539 1744.3 572.623Z" stroke="#E6B8C2" stroke-opacity="0.5" stroke-width="1.15945"/>
<path opacity="0.8" d="M1515.18 926.248L1521.72 863.199C1525.38 827.892 1555.6 803.067 1590.42 806.778L1583.88 869.826C1580.22 905.133 1550 929.958 1515.18 926.248Z" stroke="#E6B8C2" stroke-opacity="0.5" stroke-width="1.56274"/>
<path opacity="0.74" d="M76.5975 741.892L56.7908 686.702C45.699 655.796 60.9282 622.674 91.4025 611.425L111.209 666.615C122.301 697.521 107.072 730.643 76.5975 741.892Z" stroke="#E6B8C2" stroke-opacity="0.5" stroke-width="1.44777"/>
<path opacity="0.85" d="M1197.9 1641.42L1228.03 1581.44C1244.9 1547.85 1284.18 1534.91 1317.3 1552.02L1287.17 1612C1270.3 1645.59 1231.02 1658.53 1197.9 1641.42Z" stroke="#E6B8C2" stroke-opacity="0.5" stroke-width="1.65934"/>
<path opacity="0.8" d="M1507.98 1301.09L1514.52 1238.04C1518.18 1202.73 1548.4 1177.91 1583.22 1181.62L1576.68 1244.67C1573.02 1279.97 1542.8 1304.8 1507.98 1301.09Z" stroke="#E6B8C2" stroke-opacity="0.5" stroke-width="1.56274"/>
<path opacity="0.63" d="M800.076 1923.13L755.118 1901.86C729.941 1889.96 719.384 1860.54 731.124 1835.01L776.082 1856.27C801.259 1868.17 811.816 1897.59 800.076 1923.13Z" stroke="#E6B8C2" stroke-opacity="0.5" stroke-width="1.24015"/>
<path opacity="0.77" d="M45.8514 283.528L37.5045 223.295C32.8303 189.564 55.2897 159.337 88.5486 154.597L96.8955 214.83C101.57 248.56 79.1103 278.787 45.8514 283.528Z" stroke="#E6B8C2" stroke-opacity="0.5" stroke-width="1.49937"/>
<path opacity="0.54" d="M528.602 86.6284L488.194 98.3797C465.565 104.96 442.686 92.0991 436.198 69.1494L476.606 57.398C499.235 50.8173 522.114 63.6787 528.602 86.6284Z" stroke="#E6B8C2" stroke-opacity="0.5" stroke-width="1.05093"/>
<path opacity="0.35" d="M308.367 43.9165L311.232 71.5679C312.837 87.0527 302.102 100.498 286.833 102.126L283.968 74.4742C282.363 58.9894 293.098 45.544 308.367 43.9165Z" stroke="#E6B8C2" stroke-opacity="0.5" stroke-width="0.685377"/>
<path opacity="0.4" d="M492.318 1578.09L483.091 1608.7C477.923 1625.84 460.584 1635.19 443.682 1629.95L452.909 1599.34C458.077 1582.2 475.416 1572.85 492.318 1578.09Z" stroke="#E6B8C2" stroke-opacity="0.5" stroke-width="0.789008"/>
<path opacity="0.81" d="M1544.19 500.708L1555.19 437.412C1561.36 401.967 1593.66 379.027 1628.61 385.277L1617.61 448.573C1611.44 484.018 1579.14 506.958 1544.19 500.708Z" stroke="#E6B8C2" stroke-opacity="0.5" stroke-width="1.58434"/>
<path opacity="0.59" d="M1775.98 447.709L1729.98 441.98C1704.21 438.772 1686.46 415.723 1689.62 389.595L1735.62 395.324C1761.39 398.532 1779.14 421.581 1775.98 447.709Z" stroke="#E6B8C2" stroke-opacity="0.5" stroke-width="1.15874"/>
<path opacity="0.46" d="M387.222 1015.84L364.149 1043.73C351.228 1059.34 328.977 1061.32 313.578 1048.21L336.651 1020.33C349.572 1004.71 371.823 1002.73 387.222 1015.84Z" stroke="#E6B8C2" stroke-opacity="0.5" stroke-width="0.897379"/>
<path opacity="0.4" d="M489.918 1427.18L480.691 1457.79C475.523 1474.93 458.184 1484.28 441.282 1479.04L450.509 1448.43C455.677 1431.29 473.016 1421.94 489.918 1427.18Z" stroke="#E6B8C2" stroke-opacity="0.5" stroke-width="0.789008"/>
<path opacity="0.82" d="M1099.3 625.414L1113.67 562.273C1121.72 526.914 1155.44 505.546 1190.3 513.709L1175.93 576.85C1167.88 612.209 1134.16 633.577 1099.3 625.414Z" stroke="#E6B8C2" stroke-opacity="0.5" stroke-width="1.59741"/>
<path opacity="0.88" d="M1214.92 327.836L1257.04 273.157C1280.63 242.537 1322.89 237.275 1353.08 261.198L1310.96 315.877C1287.37 346.498 1245.11 351.76 1214.92 327.836Z" stroke="#E6B8C2" stroke-opacity="0.5" stroke-width="1.71048"/>
<path opacity="0.42" d="M582.747 545.918L569.395 576.332C561.918 593.365 542.847 600.789 526.053 593.206L539.405 562.791C546.883 545.759 565.953 538.335 582.747 545.918Z" stroke="#E6B8C2" stroke-opacity="0.5" stroke-width="0.820686"/>
<path opacity="0.71" d="M876.803 1748.97L845.87 1702.46C828.548 1676.42 835.116 1642.15 860.797 1624.58L891.73 1671.09C909.052 1697.14 902.484 1731.41 876.803 1748.97Z" stroke="#E6B8C2" stroke-opacity="0.5" stroke-width="1.38292"/>
<path opacity="0.83" d="M1462.55 1453.55L1483.7 1391.28C1495.54 1356.4 1531.86 1338.43 1566.25 1350.44L1545.1 1412.72C1533.26 1447.59 1496.94 1465.56 1462.55 1453.55Z" stroke="#E6B8C2" stroke-opacity="0.5" stroke-width="1.62362"/>
<path opacity="0.74" d="M892.486 1255.19L870.958 1201.15C858.902 1170.89 872.875 1137.51 902.714 1125.28L924.242 1179.32C936.298 1209.58 922.325 1242.97 892.486 1255.19Z" stroke="#E6B8C2" stroke-opacity="0.5" stroke-width="1.43672"/>
<path opacity="0.65" d="M215.871 1758.85L172.19 1733.27C147.729 1718.95 139.606 1688.2 153.729 1663.39L197.41 1688.97C221.871 1703.29 229.994 1734.04 215.871 1758.85Z" stroke="#E6B8C2" stroke-opacity="0.5" stroke-width="1.26097"/>
<path opacity="0.43" d="M421.832 498.775L406.045 528.886C397.205 545.749 377.195 551.953 360.568 542.987L376.355 512.876C385.195 496.013 405.205 489.809 421.832 498.775Z" stroke="#E6B8C2" stroke-opacity="0.5" stroke-width="0.840664"/>
<path opacity="0.78" d="M1005.9 350.921L1001.65 289.367C999.276 254.896 1024.11 225.919 1058.1 223.508L1062.35 285.063C1064.72 319.533 1039.89 348.511 1005.9 350.921Z" stroke="#E6B8C2" stroke-opacity="0.5" stroke-width="1.52106"/>
<path opacity="0.82" d="M1094.5 951.573L1108.87 888.432C1116.92 853.073 1150.64 831.705 1185.5 839.868L1171.13 903.009C1163.08 938.368 1129.36 959.737 1094.5 951.573Z" stroke="#E6B8C2" stroke-opacity="0.5" stroke-width="1.59741"/>
<path opacity="0.76" d="M932.492 1111.82L919.189 1053.38C911.739 1020.65 931.239 989 963.508 981.445L976.811 1039.88C984.261 1072.61 964.761 1104.26 932.492 1111.82Z" stroke="#E6B8C2" stroke-opacity="0.5" stroke-width="1.47846"/>
<path opacity="0.71" d="M743.759 308.411L713.512 261.175C696.574 234.722 703.758 200.441 729.841 183.262L760.088 230.499C777.026 256.951 769.842 291.233 743.759 308.411Z" stroke="#E6B8C2" stroke-opacity="0.5" stroke-width="1.38839"/>
<path opacity="0.78" d="M42.3838 1287.6L39.1971 1225.93C37.4125 1191.4 62.765 1162.84 96.8162 1161.03L100.003 1222.7C101.787 1257.23 76.435 1285.79 42.3838 1287.6Z" stroke="#E6B8C2" stroke-opacity="0.5" stroke-width="1.52223"/>
<path opacity="0.8" d="M1493.58 782.64L1500.12 719.592C1503.78 684.285 1534 659.459 1568.82 663.17L1562.28 726.218C1558.62 761.526 1528.4 786.351 1493.58 782.64Z" stroke="#E6B8C2" stroke-opacity="0.5" stroke-width="1.56274"/>
<path opacity="0.94" d="M1459.22 195.35L1524.24 161.753C1560.64 142.939 1603.83 157.169 1622.38 194.094L1557.36 227.691C1520.95 246.505 1477.77 232.275 1459.22 195.35Z" stroke="#E6B8C2" stroke-opacity="0.5" stroke-width="1.82421"/>
<path opacity="0.59" d="M1741.9 1514.59L1695.97 1508.04C1670.25 1504.38 1652.89 1481 1656.5 1454.92L1702.43 1461.47C1728.15 1465.13 1745.51 1488.51 1741.9 1514.59Z" stroke="#E6B8C2" stroke-opacity="0.5" stroke-width="1.15945"/>
<path opacity="0.44" d="M628.545 1279.9L609.705 1309.32C599.155 1325.8 578.101 1330.34 561.855 1319.64L580.695 1290.21C591.245 1273.74 612.299 1269.2 628.545 1279.9Z" stroke="#E6B8C2" stroke-opacity="0.5" stroke-width="0.86478"/>
<path opacity="0.87" d="M1278.85 1470.03L1315.66 1412.54C1336.27 1380.35 1377.41 1371.48 1409.15 1392.39L1372.34 1449.87C1351.73 1482.06 1310.59 1490.93 1278.85 1470.03Z" stroke="#E6B8C2" stroke-opacity="0.5" stroke-width="1.68967"/>
<path opacity="0.84" d="M1514.62 112.506L1539.19 50.8241C1552.95 16.282 1590.52 0.107114 1624.58 14.063L1600.01 75.7453C1586.25 110.287 1548.68 126.462 1514.62 112.506Z" stroke="#E6B8C2" stroke-opacity="0.5" stroke-width="1.63991"/>
<path opacity="0.59" d="M258.705 565.324L212.772 558.777C187.05 555.111 169.68 531.734 173.295 505.647L219.228 512.194C244.95 515.86 262.32 539.237 258.705 565.324Z" stroke="#E6B8C2" stroke-opacity="0.5" stroke-width="1.1596"/>
<path opacity="0.8" d="M1488.78 1780.59L1495.32 1717.54C1498.98 1682.23 1529.2 1657.41 1564.02 1661.12L1557.48 1724.17C1553.82 1759.47 1523.6 1784.3 1488.78 1780.59Z" stroke="#E6B8C2" stroke-opacity="0.5" stroke-width="1.56274"/>
<path opacity="0.41" d="M441.318 1856.42L430.315 1887.08C424.154 1904.25 406.011 1912.83 389.082 1906.58L400.085 1875.92C406.246 1858.75 424.389 1850.17 441.318 1856.42Z" stroke="#E6B8C2" stroke-opacity="0.5" stroke-width="0.804262"/>
<path opacity="0.46" d="M430.898 215.614L407.22 243.239C393.96 258.71 371.556 260.298 356.302 246.85L379.981 219.225C393.24 203.755 415.644 202.166 430.898 215.614Z" stroke="#E6B8C2" stroke-opacity="0.5" stroke-width="0.902302"/>
<path opacity="0.78" d="M37.5838 1484.75L34.3971 1423.09C32.6125 1388.55 57.9649 1360 92.0162 1358.19L95.2029 1419.85C96.9875 1454.39 71.635 1482.94 37.5838 1484.75Z" stroke="#E6B8C2" stroke-opacity="0.5" stroke-width="1.52223"/>
<path opacity="0.83" d="M1125.22 1785.31L1145.22 1722.88C1156.42 1687.92 1192.31 1669.38 1226.78 1680.74L1206.78 1743.17C1195.58 1778.13 1159.69 1796.67 1125.22 1785.31Z" stroke="#E6B8C2" stroke-opacity="0.5" stroke-width="1.61804"/>
<path opacity="0.59" d="M796.758 1428.61L750.777 1422.88C725.028 1419.67 707.28 1396.64 710.442 1370.52L756.423 1376.25C782.172 1379.45 799.92 1402.49 796.758 1428.61Z" stroke="#E6B8C2" stroke-opacity="0.5" stroke-width="1.15816"/>
<path opacity="0.65" d="M230.271 1167.38L186.59 1141.8C162.129 1127.48 154.006 1096.73 168.129 1071.92L211.81 1097.5C236.271 1111.82 244.394 1142.57 230.271 1167.38Z" stroke="#E6B8C2" stroke-opacity="0.5" stroke-width="1.26097"/>
<path opacity="0.84" d="M1166.65 1202.92L1191.21 1141.27C1204.96 1106.75 1242.51 1090.58 1276.55 1104.53L1251.99 1166.18C1238.24 1200.71 1200.69 1216.87 1166.65 1202.92Z" stroke="#E6B8C2" stroke-opacity="0.5" stroke-width="1.63905"/>
<path opacity="0.78" d="M1129.52 272.763L1126.32 210.946C1124.53 176.329 1149.95 147.704 1184.08 145.889L1187.28 207.706C1189.07 242.324 1163.65 270.949 1129.52 272.763Z" stroke="#E6B8C2" stroke-opacity="0.5" stroke-width="1.52592"/>
<path opacity="0.44" d="M510.456 366.642L492.204 396.265C481.983 412.854 461.101 417.744 444.744 407.378L462.996 377.755C473.217 361.166 494.099 356.276 510.456 366.642Z" stroke="#E6B8C2" stroke-opacity="0.5" stroke-width="0.861065"/>
<path opacity="0.43" d="M1891.78 397.369L1874.75 427.289C1865.21 444.044 1844.74 449.609 1828.22 439.935L1845.25 410.015C1854.79 393.26 1875.26 387.696 1891.78 397.369Z" stroke="#E6B8C2" stroke-opacity="0.5" stroke-width="0.851644"/>
<path opacity="0.4" d="M499.518 1118.06L490.291 1148.67C485.123 1165.81 467.784 1175.16 450.882 1169.92L460.109 1139.31C465.277 1122.17 482.616 1112.82 499.518 1118.06Z" stroke="#E6B8C2" stroke-opacity="0.5" stroke-width="0.789008"/>
<path opacity="0.86" d="M1226.21 523.847L1259.75 464.928C1278.54 431.934 1318.86 420.977 1351.39 440.027L1317.85 498.945C1299.06 531.94 1258.74 542.897 1226.21 523.847Z" stroke="#E6B8C2" stroke-opacity="0.5" stroke-width="1.67706"/>
<path opacity="0.87" d="M1290.85 1771.85L1327.66 1714.36C1348.27 1682.17 1389.41 1673.3 1421.15 1694.2L1384.34 1751.69C1363.73 1783.88 1322.59 1792.75 1290.85 1771.85Z" stroke="#E6B8C2" stroke-opacity="0.5" stroke-width="1.68967"/>
<rect x="1124" y="865.092" width="100" height="101.418" fill="#D9D9D9"/>
</g>
<g clip-path="url(#clip1_13_478)">
<path opacity="0.59" d="M1151.48 3047.83L1198.71 3053.36C1225.16 3056.46 1243.39 3078.72 1240.15 3103.94L1192.92 3098.4C1166.47 3095.3 1148.24 3073.05 1151.48 3047.83Z" fill="#E6B8C2" fill-opacity="0.5"/>
<path opacity="0.47" d="M1276.1 2211.05L1303.41 2185.89C1318.71 2171.8 1342.34 2172.2 1357.11 2186.79L1329.8 2211.95C1314.5 2226.04 1290.87 2225.64 1276.1 2211.05Z" fill="#E6B8C2" fill-opacity="0.5"/>
<path opacity="0.5" d="M1585.29 2429.4L1618.79 2408.65C1637.55 2397.03 1661.86 2401.97 1674.04 2419.86L1640.55 2440.61C1621.79 2452.23 1597.48 2447.29 1585.29 2429.4Z" fill="#E6B8C2" fill-opacity="0.5"/>
<path opacity="0.77" d="M956.413 2868.15L962.906 2927.02C966.542 2959.99 942.248 2988.61 907.692 2992.07L901.2 2933.2C897.564 2900.23 921.858 2871.61 956.413 2868.15Z" fill="#E6B8C2" fill-opacity="0.5"/>
<path opacity="0.87" d="M621.814 2685.74L584.009 2741.26C562.839 2772.36 520.584 2780.92 487.977 2760.72L525.781 2705.19C546.952 2674.1 589.206 2665.54 621.814 2685.74Z" fill="#E6B8C2" fill-opacity="0.5"/>
<path opacity="0.77" d="M952.771 3300.26L962.388 3358.14C967.773 3390.56 945.309 3420.05 911.334 3425.18L901.718 3367.3C896.333 3334.89 918.796 3305.39 952.771 3300.26Z" fill="#E6B8C2" fill-opacity="0.5"/>
<path opacity="0.38" d="M35.5491 2835.06L39.2792 2806.07C41.368 2789.83 56.3882 2778.64 73.416 2780.64L69.6859 2809.63C67.597 2825.87 52.5769 2837.06 35.5491 2835.06Z" fill="#E6B8C2" fill-opacity="0.5"/>
<path opacity="0.67" d="M1077.57 2869.37L1117.77 2903.89C1140.28 2923.22 1142.05 2955.28 1121.78 2976.75L1081.58 2942.22C1059.07 2922.89 1057.31 2890.83 1077.57 2869.37Z" fill="#E6B8C2" fill-opacity="0.5"/>
<path opacity="0.65" d="M197.361 2468.15L241.307 2495.37C265.916 2510.62 272.699 2541.03 256.721 2564.5L212.775 2537.28C188.165 2522.03 181.383 2491.62 197.361 2468.15Z" fill="#E6B8C2" fill-opacity="0.5"/>
<path opacity="0.55" d="M1180.28 3225.46L1223.64 3217.43C1247.93 3212.93 1270.72 3227.6 1275.44 3250.76L1232.08 3258.8C1207.8 3263.3 1185.01 3248.63 1180.28 3225.46Z" fill="#E6B8C2" fill-opacity="0.5"/>
<path opacity="0.86" d="M547.745 2831.55L510.004 2886.98C488.87 2918.03 446.687 2926.57 414.135 2906.41L451.875 2850.98C473.01 2819.93 515.192 2811.39 547.745 2831.55Z" fill="#E6B8C2" fill-opacity="0.5"/>
<path opacity="0.59" d="M138.804 2844.86L185.978 2851.19C212.396 2854.74 230.238 2877.31 226.528 2902.5L179.354 2896.18C152.936 2892.63 135.094 2870.05 138.804 2844.86Z" fill="#E6B8C2" fill-opacity="0.5"/>
<path opacity="0.59" d="M1662.22 1953.79L1709.4 1960.12C1735.82 1963.66 1753.66 1986.24 1749.95 2011.43L1702.77 2005.11C1676.35 2001.56 1658.51 1978.98 1662.22 1953.79Z" fill="#E6B8C2" fill-opacity="0.5"/>
<path opacity="0.5" d="M1582.83 2267.17L1616.32 2246.42C1635.08 2234.8 1659.39 2239.74 1671.58 2257.63L1638.08 2278.38C1619.32 2290 1595.01 2285.06 1582.83 2267.17Z" fill="#E6B8C2" fill-opacity="0.5"/>
<path opacity="0.77" d="M949.018 3145.59L955.511 3204.46C959.147 3237.43 934.853 3266.05 900.297 3269.51L893.804 3210.64C890.169 3177.67 914.463 3149.05 949.018 3145.59Z" fill="#E6B8C2" fill-opacity="0.5"/>
<path opacity="0.47" d="M1281.03 2375.63L1308.34 2350.47C1323.64 2336.38 1347.27 2336.78 1362.04 2351.37L1334.73 2376.53C1319.43 2390.62 1295.8 2390.22 1281.03 2375.63Z" fill="#E6B8C2" fill-opacity="0.5"/>
<path opacity="0.8" d="M406.184 3189.83L399.478 3250.72C395.723 3284.83 364.673 3308.8 328.909 3305.21L335.614 3244.32C339.369 3210.21 370.42 3186.24 406.184 3189.83Z" fill="#E6B8C2" fill-opacity="0.5"/>
<path opacity="0.59" d="M173.318 2139.53L220.493 2145.86C246.911 2149.41 264.753 2171.98 261.043 2197.17L213.868 2190.84C187.451 2187.3 169.609 2164.72 173.318 2139.53Z" fill="#E6B8C2" fill-opacity="0.5"/>
<path opacity="0.74" d="M1016.18 2265.49L1038.3 2317.69C1050.68 2346.92 1036.33 2379.17 1005.69 2390.98L983.575 2338.77C971.19 2309.54 985.536 2277.29 1016.18 2265.49Z" fill="#E6B8C2" fill-opacity="0.5"/>
<path opacity="0.59" d="M1141.62 2572.91L1188.85 2578.45C1215.3 2581.55 1233.53 2603.8 1230.29 2629.02L1183.06 2623.49C1156.61 2620.39 1138.38 2598.13 1141.62 2572.91Z" fill="#E6B8C2" fill-opacity="0.5"/>
<path opacity="0.38" d="M35.5527 2694.01L39.2827 2665.02C41.3716 2648.78 56.3917 2637.59 73.4195 2639.59L69.6894 2668.58C67.6006 2684.82 52.5804 2696.01 35.5527 2694.01Z" fill="#E6B8C2" fill-opacity="0.5"/>
<path opacity="0.86" d="M567.465 3163.07L529.725 3218.5C508.59 3249.54 466.408 3258.09 433.855 3237.92L471.596 3182.49C492.73 3151.45 534.913 3142.9 567.465 3163.07Z" fill="#E6B8C2" fill-opacity="0.5"/>
<path opacity="0.38" d="M30.6189 2992.59L34.349 2963.6C36.4379 2947.36 51.458 2936.17 68.4858 2938.17L64.7557 2967.16C62.6669 2983.4 47.6467 2994.59 30.6189 2992.59Z" fill="#E6B8C2" fill-opacity="0.5"/>
<path opacity="0.78" d="M1916.44 2151.9L1919.72 2211.47C1921.56 2244.83 1895.53 2272.41 1860.56 2274.15L1857.28 2214.58C1855.44 2181.22 1881.47 2153.64 1916.44 2151.9Z" fill="#E6B8C2" fill-opacity="0.5"/>
<path opacity="0.44" d="M1302.08 2004.15L1321.42 1975.73C1332.26 1959.82 1353.88 1955.44 1370.57 1965.77L1351.23 1994.19C1340.39 2010.11 1318.76 2014.49 1302.08 2004.15Z" fill="#E6B8C2" fill-opacity="0.5"/>
<path opacity="0.71" d="M1066.8 3173.33L1098.58 3218.26C1116.37 3243.42 1109.63 3276.52 1083.25 3293.49L1051.48 3248.56C1033.68 3223.4 1040.43 3190.3 1066.8 3173.33Z" fill="#E6B8C2" fill-opacity="0.5"/>
<path opacity="0.38" d="M35.5491 3277.08L39.2792 3248.09C41.368 3231.85 56.3882 3220.66 73.416 3222.66L69.6859 3251.65C67.597 3267.89 52.5769 3279.08 35.5491 3277.08Z" fill="#E6B8C2" fill-opacity="0.5"/>
<path opacity="0.8" d="M887.083 2208.36L882.626 2269.23C880.13 2303.32 850.079 2328.23 814.328 2325.84L818.785 2264.97C821.281 2230.88 851.332 2205.97 887.083 2208.36Z" fill="#E6B8C2" fill-opacity="0.5"/>
<path opacity="0.8" d="M901.874 2556.33L897.417 2617.21C894.921 2651.3 864.869 2676.21 829.119 2673.82L833.576 2612.94C836.072 2578.85 866.123 2553.94 901.874 2556.33Z" fill="#E6B8C2" fill-opacity="0.5"/>
<path opacity="0.5" d="M1577.9 2624.55L1611.39 2603.8C1630.15 2592.18 1654.46 2597.11 1666.65 2615.01L1633.15 2635.76C1614.39 2647.37 1590.08 2642.44 1577.9 2624.55Z" fill="#E6B8C2" fill-opacity="0.5"/>
<path opacity="0.71" d="M298.788 2754.64L329.775 2800.15C347.128 2825.64 339.772 2858.66 313.058 2875.21L282.071 2829.7C264.718 2804.21 272.074 2771.19 298.788 2754.64Z" fill="#E6B8C2" fill-opacity="0.5"/>
<path opacity="0.65" d="M1718.54 2470.22L1763.4 2494.93C1788.53 2508.77 1796.88 2538.47 1782.38 2562.43L1737.51 2537.72C1712.38 2523.88 1704.03 2494.18 1718.54 2470.22Z" fill="#E6B8C2" fill-opacity="0.5"/>
<path opacity="0.86" d="M557.608 2236.73L519.868 2292.16C498.733 2323.2 456.551 2331.75 423.999 2311.58L461.739 2256.15C482.873 2225.11 525.056 2216.56 557.608 2236.73Z" fill="#E6B8C2" fill-opacity="0.5"/>
<path opacity="0.8" d="M882.153 3019.49L877.696 3080.37C875.2 3114.46 845.149 3139.37 809.398 3136.98L813.855 3076.1C816.351 3042.01 846.402 3017.1 882.153 3019.49Z" fill="#E6B8C2" fill-opacity="0.5"/>
<path opacity="0.65" d="M1735.79 2279.78L1780.66 2304.49C1805.79 2318.33 1814.13 2348.02 1799.63 2371.98L1754.76 2347.27C1729.64 2333.44 1721.29 2303.74 1735.79 2279.78Z" fill="#E6B8C2" fill-opacity="0.5"/>
<path opacity="0.59" d="M165.923 2659.14L213.098 2665.47C239.515 2669.01 257.357 2691.59 253.648 2716.78L206.473 2710.45C180.055 2706.91 162.213 2684.33 165.923 2659.14Z" fill="#E6B8C2" fill-opacity="0.5"/>
<path opacity="0.59" d="M163.455 2990.64L210.629 2996.96C237.047 3000.51 254.889 3023.08 251.179 3048.27L204.004 3041.95C177.587 3038.4 159.745 3015.83 163.455 2990.64Z" fill="#E6B8C2" fill-opacity="0.5"/>
<path opacity="0.78" d="M1906.58 2734.99L1909.86 2794.56C1911.7 2827.92 1885.67 2855.5 1850.7 2857.24L1847.42 2797.67C1845.58 2764.31 1871.61 2736.73 1906.58 2734.99Z" fill="#E6B8C2" fill-opacity="0.5"/>
<path opacity="0.63" d="M1113.56 2722.99L1159.74 2743.53C1185.6 2755.03 1196.45 2783.45 1184.4 2808.11L1138.22 2787.57C1112.35 2776.07 1101.51 2747.65 1113.56 2722.99Z" fill="#E6B8C2" fill-opacity="0.5"/>
<path opacity="0.87" d="M600.48 2529.23L561.564 2584.26C539.771 2615.08 497.256 2622.96 464.939 2602.17L503.855 2547.14C525.648 2516.32 568.163 2508.44 600.48 2529.23Z" fill="#E6B8C2" fill-opacity="0.5"/>
<path opacity="0.65" d="M197.357 3102.95L241.303 3130.17C265.913 3145.41 272.695 3175.83 256.717 3199.3L212.771 3172.07C188.162 3156.83 181.379 3126.41 197.357 3102.95Z" fill="#E6B8C2" fill-opacity="0.5"/>
<path opacity="0.65" d="M226.942 1946.19L270.888 1973.41C295.497 1988.66 302.279 2019.07 286.302 2042.54L242.356 2015.32C217.746 2000.08 210.964 1969.66 226.942 1946.19Z" fill="#E6B8C2" fill-opacity="0.5"/>
<path opacity="0.59" d="M1686.87 3018.85L1734.05 3025.18C1760.47 3028.72 1778.31 3051.3 1774.6 3076.49L1727.42 3070.16C1701 3066.62 1683.16 3044.04 1686.87 3018.85Z" fill="#E6B8C2" fill-opacity="0.5"/>
<path opacity="0.4" d="M1456.79 3143.25L1466.26 3113.68C1471.57 3097.13 1489.38 3088.1 1506.74 3093.16L1497.27 3122.72C1491.96 3139.28 1474.15 3148.31 1456.79 3143.25Z" fill="#E6B8C2" fill-opacity="0.5"/>
<path opacity="0.4" d="M1474.04 2557.83L1483.52 2528.26C1488.82 2511.71 1506.63 2502.68 1524 2507.74L1514.52 2537.31C1509.22 2553.86 1491.4 2562.89 1474.04 2557.83Z" fill="#E6B8C2" fill-opacity="0.5"/>
<path opacity="0.38" d="M33.0873 2421.28L36.8174 2392.28C38.9062 2376.05 53.9264 2364.86 70.9542 2366.85L67.2241 2395.85C65.1353 2412.08 50.1151 2423.27 33.0873 2421.28Z" fill="#E6B8C2" fill-opacity="0.5"/>
<path opacity="0.42" d="M34.0472 2270.41L49.0065 2241.16C57.3837 2224.77 77.4649 2218.18 94.6456 2226.17L79.6863 2255.43C71.309 2271.81 51.2278 2278.41 34.0472 2270.41Z" fill="#E6B8C2" fill-opacity="0.5"/>
<path opacity="0.8" d="M911.734 2384.7L907.277 2445.57C904.781 2479.66 874.73 2504.57 838.979 2502.18L843.436 2441.31C845.932 2407.22 875.983 2382.31 911.734 2384.7Z" fill="#E6B8C2" fill-opacity="0.5"/>
<path opacity="0.76" d="M1021.92 1929.05L1035.59 1985.5C1043.25 2017.12 1023.22 2047.69 990.086 2054.98L976.417 1998.53C968.763 1966.91 988.786 1936.34 1021.92 1929.05Z" fill="#E6B8C2" fill-opacity="0.5"/>
<path opacity="0.59" d="M1681.94 2856.62L1729.12 2862.94C1755.54 2866.49 1773.38 2889.07 1769.67 2914.26L1722.49 2907.93C1696.07 2904.39 1678.23 2881.81 1681.94 2856.62Z" fill="#E6B8C2" fill-opacity="0.5"/>
<path opacity="0.85" d="M702.49 2818.76L671.545 2876.69C654.215 2909.13 613.868 2921.63 579.848 2905.1L610.793 2847.16C628.123 2814.72 668.47 2802.22 702.49 2818.76Z" fill="#E6B8C2" fill-opacity="0.5"/>
<path opacity="0.59" d="M1161.34 2079.17L1208.57 2084.7C1235.02 2087.8 1253.25 2110.06 1250.01 2135.28L1202.78 2129.74C1176.33 2126.64 1158.1 2104.39 1161.34 2079.17Z" fill="#E6B8C2" fill-opacity="0.5"/>
<path opacity="0.83" d="M460.244 2673.44L438.531 2733.59C426.372 2767.27 389.063 2784.62 353.738 2773.02L375.451 2712.87C387.61 2679.18 424.919 2661.83 460.244 2673.44Z" fill="#E6B8C2" fill-opacity="0.5"/>
<path opacity="0.84" d="M744.449 2993.1L719.228 3052.65C705.104 3086 666.531 3101.61 631.561 3088.13L656.783 3028.58C670.907 2995.24 709.48 2979.62 744.449 2993.1Z" fill="#E6B8C2" fill-opacity="0.5"/>
<path opacity="0.83" d="M786.999 2327.11L766.461 2387.41C754.96 2421.17 718.102 2439.08 682.691 2428.1L703.229 2367.81C714.73 2334.04 751.589 2316.13 786.999 2327.11Z" fill="#E6B8C2" fill-opacity="0.5"/>
<path opacity="0.38" d="M40.4794 3138.36L44.2095 3109.37C46.2983 3093.13 61.3185 3081.94 78.3462 3083.94L74.6162 3112.93C72.5273 3129.17 57.5072 3140.36 40.4794 3138.36Z" fill="#E6B8C2" fill-opacity="0.5"/>
<path opacity="0.78" d="M1904.12 2908.95L1907.39 2968.52C1909.23 3001.88 1883.2 3029.47 1848.23 3031.21L1844.95 2971.64C1843.12 2938.28 1869.15 2910.7 1904.12 2908.95Z" fill="#E6B8C2" fill-opacity="0.5"/>
<path opacity="0.9" d="M572.398 3353.87L520.698 3401.49C491.746 3428.16 447.026 3427.41 419.062 3399.79L470.761 3352.17C499.713 3325.5 544.433 3326.25 572.398 3353.87Z" fill="#E6B8C2" fill-opacity="0.5"/>
<path opacity="0.87" d="M598.011 2985.34L559.095 3040.37C537.303 3071.19 494.787 3079.07 462.47 3058.27L501.386 3003.24C523.179 2972.42 565.694 2964.55 598.011 2985.34Z" fill="#E6B8C2" fill-opacity="0.5"/>
<path opacity="0.42" d="M31.582 2126.99L46.5413 2097.73C54.9185 2081.35 74.9997 2074.76 92.1804 2082.75L77.2211 2112.01C68.8438 2128.39 48.7626 2134.98 31.582 2126.99Z" fill="#E6B8C2" fill-opacity="0.5"/>
<path opacity="0.79" d="M943.882 2065.86L943.889 2126.04C943.893 2159.74 916.126 2186.21 880.783 2186.21L880.776 2126.03C880.772 2092.33 908.539 2065.85 943.882 2065.86Z" fill="#E6B8C2" fill-opacity="0.5"/>
<path opacity="0.4" d="M1406.84 2122.62L1416.93 2093C1422.58 2076.42 1440.69 2067.62 1458.08 2073.01L1447.99 2102.63C1442.34 2119.22 1424.24 2128.02 1406.84 2122.62Z" fill="#E6B8C2" fill-opacity="0.5"/>
<path opacity="0.85" d="M511.187 1940.34L479.089 1997.92C461.114 2030.17 420.422 2042.03 386.608 2024.88L418.706 1967.3C436.68 1935.05 477.372 1923.19 511.187 1940.34Z" fill="#E6B8C2" fill-opacity="0.5"/>
<path opacity="0.74" d="M1016.63 1925.08L1038.61 1978.93C1050.92 2009.08 1037.23 2042.59 1007.49 2055.07L985.513 2001.22C973.203 1971.07 986.894 1937.56 1016.63 1925.08Z" stroke="#E6B8C2" stroke-opacity="0.5" stroke-width="1.43672"/>
<path opacity="0.94" d="M495.4 3004.54L429.154 3036.57C392.056 3054.51 349.012 3039.04 331.326 3001.42L397.572 2969.39C434.67 2951.45 477.714 2966.92 495.4 3004.54Z" stroke="#E6B8C2" stroke-opacity="0.5" stroke-width="1.83473"/>
<path opacity="0.74" d="M1021.63 2518.96L1043.61 2572.81C1055.92 2602.97 1042.23 2636.47 1012.49 2648.95L990.51 2595.1C978.2 2564.95 991.891 2531.44 1021.63 2518.96Z" stroke="#E6B8C2" stroke-opacity="0.5" stroke-width="1.43672"/>
<path opacity="0.44" d="M1307.6 2569.67L1326.2 2540.08C1336.61 2523.52 1357.62 2518.8 1373.96 2529.35L1355.37 2558.94C1344.95 2575.51 1323.94 2580.23 1307.6 2569.67Z" stroke="#E6B8C2" stroke-opacity="0.5" stroke-width="0.86478"/>
<path opacity="0.81" d="M848.666 2225.38L839.328 2288.67C834.098 2324.11 802.533 2347.79 767.588 2342.48L776.927 2279.2C782.156 2243.76 813.721 2220.08 848.666 2225.38Z" stroke="#E6B8C2" stroke-opacity="0.5" stroke-width="1.5774"/>
<path opacity="0.51" d="M1203.82 2403.35L1238.84 2384.08C1258.44 2373.29 1282.21 2380.43 1292.85 2400.31L1257.84 2419.58C1238.23 2430.37 1214.46 2423.23 1203.82 2403.35Z" stroke="#E6B8C2" stroke-opacity="0.5" stroke-width="0.995843"/>
<path opacity="0.81" d="M856.123 1400.15L846.785 1463.44C841.555 1498.88 809.99 1522.56 775.045 1517.26L784.384 1453.97C789.613 1418.53 821.178 1394.85 856.123 1400.15Z" stroke="#E6B8C2" stroke-opacity="0.5" stroke-width="1.5774"/>
<path opacity="0.85" d="M700.437 2641.79L670.81 2702.03C654.218 2735.76 615.049 2749.05 581.788 2732.22L611.415 2671.98C628.007 2638.25 667.176 2624.97 700.437 2641.79Z" stroke="#E6B8C2" stroke-opacity="0.5" stroke-width="1.65934"/>
<path opacity="0.89" d="M356.414 3002.79L309.553 3054.64C283.31 3083.67 240.199 3085.57 211.571 3058.96L258.433 3007.11C284.675 2978.08 327.787 2976.18 356.414 3002.79Z" stroke="#E6B8C2" stroke-opacity="0.5" stroke-width="1.73372"/>
<path opacity="0.4" d="M1384.14 2394.7L1393.7 2363.95C1399.06 2346.73 1416.61 2337.47 1433.59 2342.9L1424.02 2373.65C1418.67 2390.87 1401.12 2400.13 1384.14 2394.7Z" stroke="#E6B8C2" stroke-opacity="0.5" stroke-width="0.794809"/>
<path opacity="0.82" d="M259.929 3225.58L242.709 3288.51C233.065 3323.75 198.187 3343.76 163.439 3333.98L180.66 3271.05C190.303 3235.81 225.182 3215.8 259.929 3225.58Z" stroke="#E6B8C2" stroke-opacity="0.5" stroke-width="1.60985"/>
<path opacity="0.43" d="M1508.93 2499.57L1524.47 2469.33C1533.17 2452.39 1553.12 2446.01 1569.82 2454.83L1554.29 2485.08C1545.59 2502.02 1525.64 2508.4 1508.93 2499.57Z" stroke="#E6B8C2" stroke-opacity="0.5" stroke-width="0.840664"/>
<path opacity="0.78" d="M1860.03 1410.72L1863.74 1472.36C1865.82 1506.88 1840.7 1535.65 1806.67 1537.76L1802.96 1476.12C1800.89 1441.6 1826 1412.83 1860.03 1410.72Z" stroke="#E6B8C2" stroke-opacity="0.5" stroke-width="1.52223"/>
<path opacity="0.5" d="M1564.97 2666.92L1597.41 2645.15C1615.57 2632.97 1639.28 2637.86 1651.29 2656.28L1618.86 2678.05C1600.7 2690.23 1576.99 2685.33 1564.97 2666.92Z" stroke="#E6B8C2" stroke-opacity="0.5" stroke-width="0.972189"/>
<path opacity="0.78" d="M1878.46 2744.46L1882.16 2806.09C1884.24 2840.61 1859.13 2869.38 1825.09 2871.49L1821.39 2809.85C1819.31 2775.33 1844.42 2746.56 1878.46 2744.46Z" stroke="#E6B8C2" stroke-opacity="0.5" stroke-width="1.52223"/>
<path opacity="0.42" d="M47.0774 2055.41L61.3885 2024.99C69.4028 2007.96 88.8948 2000.97 105.689 2009.09L91.3775 2039.51C83.3633 2056.54 63.8712 2063.54 47.0774 2055.41Z" stroke="#E6B8C2" stroke-opacity="0.5" stroke-width="0.830717"/>
<path opacity="0.42" d="M51.844 1480.92L66.1551 1450.5C74.1694 1433.47 93.6614 1426.47 110.455 1434.6L96.1441 1465.02C88.1299 1482.05 68.6378 1489.04 51.844 1480.92Z" stroke="#E6B8C2" stroke-opacity="0.5" stroke-width="0.830717"/>
<path opacity="0.47" d="M1253.09 2234.23L1279.46 2207.95C1294.23 2193.23 1317.24 2193.44 1331.75 2208.42L1305.37 2234.7C1290.6 2249.41 1267.6 2249.21 1253.09 2234.23Z" stroke="#E6B8C2" stroke-opacity="0.5" stroke-width="0.924341"/>
<path opacity="0.84" d="M757.278 1974.73L733.237 2036.59C719.775 2071.23 682.359 2087.72 648.202 2074.07L672.242 2012.21C685.705 1977.56 723.12 1961.07 757.278 1974.73Z" stroke="#E6B8C2" stroke-opacity="0.5" stroke-width="1.63905"/>
<path opacity="0.85" d="M692.515 1415.07L662.888 1475.31C646.297 1509.04 607.127 1522.32 573.866 1505.5L603.494 1445.26C620.085 1411.53 659.254 1398.24 692.515 1415.07Z" stroke="#E6B8C2" stroke-opacity="0.5" stroke-width="1.65934"/>
<path opacity="0.76" d="M354.383 1714.07L367.203 1772.77C374.382 1805.64 354.556 1837.19 322.144 1844.47L309.325 1785.77C302.146 1752.9 321.971 1721.35 354.383 1714.07Z" stroke="#E6B8C2" stroke-opacity="0.5" stroke-width="1.48203"/>
<path opacity="0.59" d="M1110.75 1733.81L1156.78 1739.13C1182.55 1742.12 1200.5 1765 1197.55 1791.14L1151.53 1785.81C1125.75 1782.83 1107.81 1759.95 1110.75 1733.81Z" stroke="#E6B8C2" stroke-opacity="0.5" stroke-width="1.15816"/>
<path opacity="0.93" d="M600.424 3092.38L538.686 3130.73C504.113 3152.21 460.309 3141.53 439.132 3106.47L500.87 3068.12C535.443 3046.64 579.247 3057.31 600.424 3092.38Z" stroke="#E6B8C2" stroke-opacity="0.5" stroke-width="1.80998"/>
<path opacity="0.46" d="M1528.8 1602.6L1551.64 1574.51C1564.43 1558.78 1586.66 1556.62 1602.17 1569.59L1579.33 1597.67C1566.54 1613.4 1544.31 1615.57 1528.8 1602.6Z" stroke="#E6B8C2" stroke-opacity="0.5" stroke-width="0.897379"/>
<path opacity="0.79" d="M1057.4 3023.81L1054.68 3086.7C1053.16 3121.92 1024.68 3148.38 989.951 3146.84L992.671 3083.95C994.194 3048.73 1022.68 3022.27 1057.4 3023.81Z" stroke="#E6B8C2" stroke-opacity="0.5" stroke-width="1.55182"/>
<path opacity="0.59" d="M174.26 2765.88L220.24 2772.03C245.989 2775.47 263.553 2798.69 260.158 2824.81L214.177 2818.66C188.429 2815.22 170.865 2791.99 174.26 2765.88Z" stroke="#E6B8C2" stroke-opacity="0.5" stroke-width="1.15945"/>
<path opacity="0.8" d="M400.393 2410.28L394.39 2473.39C391.028 2508.72 361.009 2533.81 326.166 2530.4L332.169 2467.3C335.531 2431.96 365.55 2406.88 400.393 2410.28Z" stroke="#E6B8C2" stroke-opacity="0.5" stroke-width="1.56274"/>
<path opacity="0.74" d="M1840.48 2582.18L1860.75 2637.2C1872.1 2668.01 1857.15 2701.26 1826.77 2712.77L1806.5 2657.76C1795.15 2626.95 1810.1 2593.69 1840.48 2582.18Z" stroke="#E6B8C2" stroke-opacity="0.5" stroke-width="1.44777"/>
<path opacity="0.85" d="M711.649 1692.39L682.022 1752.63C665.431 1786.36 626.261 1799.65 593 1782.82L622.628 1722.58C639.219 1688.85 678.388 1675.57 711.649 1692.39Z" stroke="#E6B8C2" stroke-opacity="0.5" stroke-width="1.65934"/>
<path opacity="0.8" d="M404.439 2035.4L398.436 2098.5C395.074 2133.84 365.055 2158.92 330.212 2155.51L336.215 2092.41C339.577 2057.07 369.595 2031.99 404.439 2035.4Z" stroke="#E6B8C2" stroke-opacity="0.5" stroke-width="1.56274"/>
<path opacity="0.63" d="M1107.09 1407.25L1152.22 1428.12C1177.5 1439.81 1188.3 1469.14 1176.78 1494.77L1131.64 1473.9C1106.37 1462.21 1095.56 1432.89 1107.09 1407.25Z" stroke="#E6B8C2" stroke-opacity="0.5" stroke-width="1.24015"/>
<path opacity="0.77" d="M1875.08 3040.26L1883.93 3100.42C1888.89 3134.11 1866.69 3164.53 1833.47 3169.56L1824.61 3109.4C1819.66 3075.71 1841.86 3045.29 1875.08 3040.26Z" stroke="#E6B8C2" stroke-opacity="0.5" stroke-width="1.49937"/>
<path opacity="0.54" d="M1394 3241.33L1434.31 3229.23C1456.88 3222.46 1479.87 3235.12 1486.55 3258.01L1446.24 3270.11C1423.67 3276.89 1400.68 3264.23 1394 3241.33Z" stroke="#E6B8C2" stroke-opacity="0.5" stroke-width="1.05093"/>
<path opacity="0.35" d="M1614.59 3282.14L1611.49 3254.51C1609.76 3239.04 1620.38 3225.5 1635.63 3223.75L1638.73 3251.37C1640.46 3266.84 1629.84 3280.38 1614.59 3282.14Z" stroke="#E6B8C2" stroke-opacity="0.5" stroke-width="0.685377"/>
<path opacity="0.4" d="M1417.74 1749.61L1426.71 1718.92C1431.73 1701.74 1448.99 1692.24 1465.93 1697.33L1456.96 1728.02C1451.94 1745.21 1434.68 1754.71 1417.74 1749.61Z" stroke="#E6B8C2" stroke-opacity="0.5" stroke-width="0.789008"/>
<path opacity="0.81" d="M374.967 2836.06L364.495 2899.45C358.631 2934.94 326.522 2958.16 291.521 2952.22L301.993 2888.83C307.857 2853.33 339.966 2830.11 374.967 2836.06Z" stroke="#E6B8C2" stroke-opacity="0.5" stroke-width="1.58434"/>
<path opacity="0.59" d="M143.631 2891.06L189.682 2896.39C215.471 2899.38 233.42 2922.27 230.477 2948.42L184.426 2943.09C158.638 2940.11 140.688 2917.21 143.631 2891.06Z" stroke="#E6B8C2" stroke-opacity="0.5" stroke-width="1.15874"/>
<path opacity="0.46" d="M1527.56 2310.93L1550.4 2282.85C1563.19 2267.12 1585.42 2264.95 1600.93 2277.92L1578.09 2306.01C1565.3 2321.74 1543.07 2323.9 1527.56 2310.93Z" stroke="#E6B8C2" stroke-opacity="0.5" stroke-width="0.897379"/>
<path opacity="0.4" d="M1421.41 1900.49L1430.37 1869.81C1435.4 1852.62 1452.66 1843.12 1469.6 1848.22L1460.63 1878.9C1455.61 1896.09 1438.35 1905.59 1421.41 1900.49Z" stroke="#E6B8C2" stroke-opacity="0.5" stroke-width="0.789008"/>
<path opacity="0.82" d="M818.794 2707.51L804.953 2770.77C797.201 2806.2 763.664 2827.86 728.732 2820L742.573 2756.73C750.325 2721.3 783.862 2699.65 818.794 2707.51Z" stroke="#E6B8C2" stroke-opacity="0.5" stroke-width="1.59741"/>
<path opacity="0.88" d="M705.68 3006.07L664.018 3061.12C640.688 3091.94 598.477 3097.57 568.084 3073.91L609.746 3018.86C633.076 2988.04 675.287 2982.41 705.68 3006.07Z" stroke="#E6B8C2" stroke-opacity="0.5" stroke-width="1.71048"/>
<path opacity="0.42" d="M1335.99 2782.53L1349.09 2752C1356.42 2734.91 1375.43 2727.32 1392.29 2734.75L1379.19 2765.28C1371.86 2782.38 1352.85 2789.97 1335.99 2782.53Z" stroke="#E6B8C2" stroke-opacity="0.5" stroke-width="0.820686"/>
<path opacity="0.71" d="M1031.83 1582.06L1063.15 1628.3C1080.69 1654.2 1074.41 1688.52 1048.88 1706.31L1017.56 1660.07C1000.02 1634.18 1006.29 1599.85 1031.83 1582.06Z" stroke="#E6B8C2" stroke-opacity="0.5" stroke-width="1.38292"/>
<path opacity="0.83" d="M448.584 1882.54L427.965 1945C416.418 1979.98 380.248 1998.26 345.761 1986.55L366.38 1924.09C377.927 1889.11 414.097 1870.83 448.584 1882.54Z" stroke="#E6B8C2" stroke-opacity="0.5" stroke-width="1.62362"/>
<path opacity="0.74" d="M1020.3 2075.96L1042.28 2129.81C1054.59 2159.97 1040.9 2193.47 1011.16 2205.96L989.183 2152.11C976.873 2121.95 990.564 2088.44 1020.3 2075.96Z" stroke="#E6B8C2" stroke-opacity="0.5" stroke-width="1.43672"/>
<path opacity="0.65" d="M1692.65 1566.47L1736.55 1591.67C1761.13 1605.78 1769.51 1636.45 1755.6 1661.38L1711.7 1636.19C1687.12 1622.08 1678.74 1591.4 1692.65 1566.47Z" stroke="#E6B8C2" stroke-opacity="0.5" stroke-width="1.26097"/>
<path opacity="0.43" d="M1497.3 2828.28L1512.83 2798.03C1521.53 2781.09 1541.49 2774.72 1558.19 2783.54L1542.66 2813.78C1533.96 2830.72 1514 2837.1 1497.3 2828.28Z" stroke="#E6B8C2" stroke-opacity="0.5" stroke-width="0.840664"/>
<path opacity="0.78" d="M914.5 2981.18L919.262 3042.7C921.929 3077.14 897.336 3106.34 863.369 3109.04L858.607 3047.53C855.94 3013.08 880.533 2983.89 914.5 2981.18Z" stroke="#E6B8C2" stroke-opacity="0.5" stroke-width="1.52106"/>
<path opacity="0.82" d="M820.85 2381.32L807.008 2444.58C799.257 2480.01 765.72 2501.67 730.787 2493.81L744.629 2430.54C752.38 2395.12 785.918 2373.46 820.85 2381.32Z" stroke="#E6B8C2" stroke-opacity="0.5" stroke-width="1.59741"/>
<path opacity="0.76" d="M981.501 2219.68L995.295 2278C1003.02 2310.66 983.787 2342.48 951.583 2350.31L937.788 2291.99C930.064 2259.33 949.297 2227.51 981.501 2219.68Z" stroke="#E6B8C2" stroke-opacity="0.5" stroke-width="1.47846"/>
<path opacity="0.71" d="M1176.99 3021.42L1207.63 3068.39C1224.79 3094.7 1217.89 3129.04 1191.96 3146.44L1161.31 3099.47C1144.15 3073.17 1151.05 3038.82 1176.99 3021.42Z" stroke="#E6B8C2" stroke-opacity="0.5" stroke-width="1.38839"/>
<path opacity="0.78" d="M1870.1 2036.2L1873.8 2097.84C1875.88 2132.36 1850.77 2161.13 1816.73 2163.24L1813.03 2101.6C1810.95 2067.08 1836.06 2038.31 1870.1 2036.2Z" stroke="#E6B8C2" stroke-opacity="0.5" stroke-width="1.52223"/>
<path opacity="0.8" d="M423.2 2553.7L417.197 2616.8C413.835 2652.14 383.817 2677.23 348.973 2673.82L354.977 2610.71C358.338 2575.38 388.357 2550.29 423.2 2553.7Z" stroke="#E6B8C2" stroke-opacity="0.5" stroke-width="1.56274"/>
<path opacity="0.94" d="M462.502 3140.67L397.772 3174.83C361.523 3193.96 318.222 3180.1 299.361 3143.34L364.091 3109.18C400.34 3090.05 443.641 3103.91 462.502 3140.67Z" stroke="#E6B8C2" stroke-opacity="0.5" stroke-width="1.82421"/>
<path opacity="0.59" d="M168.734 1823.92L214.714 1830.07C240.463 1833.52 258.027 1856.74 254.632 1882.85L208.652 1876.71C182.903 1873.26 165.339 1850.04 168.734 1823.92Z" stroke="#E6B8C2" stroke-opacity="0.5" stroke-width="1.15945"/>
<path opacity="0.44" d="M1284.02 2048.97L1302.61 2019.39C1313.03 2002.82 1334.04 1998.1 1350.38 2008.66L1331.78 2038.24C1321.37 2054.81 1300.36 2059.53 1284.02 2048.97Z" stroke="#E6B8C2" stroke-opacity="0.5" stroke-width="0.86478"/>
<path opacity="0.87" d="M632.144 1864.48L595.818 1922.28C575.476 1954.65 534.415 1963.88 502.498 1943.25L538.823 1885.44C559.165 1853.07 600.227 1843.85 632.144 1864.48Z" stroke="#E6B8C2" stroke-opacity="0.5" stroke-width="1.68967"/>
<path opacity="0.84" d="M407.805 3223.99L383.752 3285.88C370.282 3320.54 332.847 3337.04 298.671 3323.38L322.724 3261.49C336.194 3226.83 373.629 3210.33 407.805 3223.99Z" stroke="#E6B8C2" stroke-opacity="0.5" stroke-width="1.63991"/>
<path opacity="0.59" d="M1659.86 2760.32L1705.85 2766.47C1731.6 2769.91 1749.17 2793.14 1745.77 2819.26L1699.78 2813.11C1674.03 2809.66 1656.47 2786.44 1659.86 2760.32Z" stroke="#E6B8C2" stroke-opacity="0.5" stroke-width="1.1596"/>
<path opacity="0.8" d="M419.604 1555.74L413.601 1618.85C410.239 1654.18 380.22 1679.27 345.377 1675.86L351.38 1612.76C354.742 1577.42 384.76 1552.33 419.604 1555.74Z" stroke="#E6B8C2" stroke-opacity="0.5" stroke-width="1.56274"/>
<path opacity="0.41" d="M1466.39 1470.85L1477.14 1440.1C1483.15 1422.88 1501.22 1414.14 1518.2 1420.24L1507.46 1450.99C1501.44 1468.22 1483.37 1476.95 1466.39 1470.85Z" stroke="#E6B8C2" stroke-opacity="0.5" stroke-width="0.804262"/>
<path opacity="0.46" d="M1490.62 3111.51L1514.06 3083.68C1527.19 3068.09 1549.58 3066.31 1564.95 3079.63L1541.5 3107.46C1528.37 3123.04 1505.98 3124.82 1490.62 3111.51Z" stroke="#E6B8C2" stroke-opacity="0.5" stroke-width="0.902302"/>
<path opacity="0.78" d="M1873.24 1839.01L1876.94 1900.65C1879.02 1935.17 1853.91 1963.94 1819.87 1966.04L1816.17 1904.41C1814.09 1869.89 1839.2 1841.12 1873.24 1839.01Z" stroke="#E6B8C2" stroke-opacity="0.5" stroke-width="1.52223"/>
<path opacity="0.83" d="M783.11 1547.88L763.636 1610.48C752.731 1645.53 717.004 1664.38 682.44 1653.32L701.914 1590.73C712.819 1555.67 748.546 1536.82 783.11 1547.88Z" stroke="#E6B8C2" stroke-opacity="0.5" stroke-width="1.61804"/>
<path opacity="0.59" d="M1114.56 1901.73L1160.59 1907.05C1186.37 1910.04 1204.31 1932.92 1201.37 1959.06L1155.34 1953.73C1129.56 1950.75 1111.62 1927.87 1114.56 1901.73Z" stroke="#E6B8C2" stroke-opacity="0.5" stroke-width="1.15816"/>
<path opacity="0.65" d="M1683.23 2158.04L1727.12 2183.24C1751.7 2197.35 1760.09 2228.03 1746.17 2252.96L1702.28 2227.76C1677.7 2213.65 1669.31 2182.97 1683.23 2158.04Z" stroke="#E6B8C2" stroke-opacity="0.5" stroke-width="1.26097"/>
<path opacity="0.84" d="M746.589 2130.6L722.548 2192.46C709.086 2227.1 671.67 2243.59 637.513 2229.94L661.553 2168.08C675.016 2133.44 712.431 2116.95 746.589 2130.6Z" stroke="#E6B8C2" stroke-opacity="0.5" stroke-width="1.63905"/>
<path opacity="0.78" d="M791.542 3060.41L795.256 3122.19C797.336 3156.79 772.164 3185.64 738.047 3187.75L734.333 3125.96C732.253 3091.36 757.425 3062.52 791.542 3060.41Z" stroke="#E6B8C2" stroke-opacity="0.5" stroke-width="1.52592"/>
<path opacity="0.44" d="M1409.79 2961.17L1427.79 2931.39C1437.87 2914.72 1458.71 2909.65 1475.16 2919.87L1457.16 2949.65C1447.08 2966.33 1426.23 2971.4 1409.79 2961.17Z" stroke="#E6B8C2" stroke-opacity="0.5" stroke-width="0.861065"/>
<path opacity="0.43" d="M28.2552 2942.4L45.0357 2912.33C54.4328 2895.5 74.8605 2889.76 91.4623 2899.29L74.6818 2929.35C65.2847 2946.19 44.857 2951.93 28.2552 2942.4Z" stroke="#E6B8C2" stroke-opacity="0.5" stroke-width="0.851644"/>
<path opacity="0.4" d="M1414.41 2209.69L1423.38 2179C1428.4 2161.81 1445.66 2152.31 1462.6 2157.41L1453.64 2188.1C1448.61 2205.28 1431.35 2214.78 1414.41 2209.69Z" stroke="#E6B8C2" stroke-opacity="0.5" stroke-width="0.789008"/>
<path opacity="0.86" d="M692.739 2810.17L659.695 2869.37C641.19 2902.53 600.964 2913.84 568.272 2895.07L601.316 2835.86C619.821 2802.71 660.047 2791.4 692.739 2810.17Z" stroke="#E6B8C2" stroke-opacity="0.5" stroke-width="1.67706"/>
<path opacity="0.87" d="M617.605 1562.78L581.279 1620.58C560.937 1652.95 519.876 1662.17 487.959 1641.54L524.284 1583.74C544.626 1551.37 585.687 1542.14 617.605 1562.78Z" stroke="#E6B8C2" stroke-opacity="0.5" stroke-width="1.68967"/>
</g>
<defs>
<clipPath id="clip0_13_478">
<rect width="1920" height="1947.22" fill="white"/>
</clipPath>
<clipPath id="clip1_13_478">
<rect width="1920" height="1947.22" fill="white" transform="matrix(-0.999963 0.00865401 -0.00841378 -0.999965 1923.31 3323.38)"/>
</clipPath>
</defs>
</svg>
