<svg width="1920" height="2549" viewBox="0 0 1920 2549" fill="none" xmlns="http://www.w3.org/2000/svg">
<path d="M1715.6 2286.43C1736.1 2285.98 1771.4 2280.98 1802.37 2281.95C1830.33 2264.92 1851.09 2247.73 1879.2 2241.64C1887.1 2239.93 1893.26 2240.94 1895.82 2245.22C1901.07 2254 1903.64 2271.03 1914.27 2290.91C1927.47 2315.6 1965.44 2399.63 1917.64 2421.76C1913.24 2423.79 1908.71 2425 1904.15 2425.56C1895.09 2426.67 1885.88 2425.21 1877.25 2422.55C1865.86 2419.04 1851.1 2416.19 1845.66 2402.23C1837.78 2382.05 1830.72 2364.5 1823.71 2353.99C1816.7 2343.48 1783.42 2331.31 1746.4 2340.95C1736.07 2343.63 1743.68 2348.35 1748.3 2355.04C1756.74 2367.26 1770.32 2383.09 1779.98 2396.65C1790.47 2411.37 1796.31 2423.42 1785.9 2425.23C1770.96 2427.84 1756.1 2421.98 1743.74 2418.15C1718.26 2410.24 1696.41 2405.18 1671.65 2393.51C1625.09 2371.56 1531.36 2336.83 1469.61 2333.86C1414.31 2331.2 1329.89 2326.89 1268.52 2323.32C1222.81 2320.66 1117.25 2316.28 1044.51 2312.78C989.258 2310.12 887.055 2307.1 802.133 2302.24C755.602 2299.58 720.815 2290.63 591.215 2287.3C523.526 2285.56 417.419 2284.36 356.347 2286.46C279.594 2289.09 145.598 2289.9 185.057 2290.83C260.571 2292.62 366.271 2296.26 445.14 2300.5C527.847 2304.95 594.218 2312.88 641.751 2316.31C678.665 2318.97 816.231 2304.81 779.473 2340.95C773.255 2347.06 759.585 2352.59 746.881 2354.09C702.695 2359.34 653.432 2358.94 609.843 2365.5C592.348 2368.14 520.716 2373.72 400.111 2366.29C341.934 2362.71 289.208 2358.33 259.201 2350.48C198.705 2334.67 157.373 2326.37 119.713 2303.9C74.1304 2276.71 44.8475 2267.06 23.2256 2238.93C14.478 2227.54 111.468 2216.82 261.888 2223.22C323.754 2225.86 341.516 2226.39 358.033 2228.49C392.417 2232.87 438.044 2235.22 477.47 2239.03C522.683 2243.4 589.243 2243.37 647.917 2249.57C689.31 2253.94 727.929 2255.54 762.031 2260.11C794.703 2264.48 833.417 2264.98 875.407 2270.65C921.069 2276.81 970.034 2283.95 1017 2284.69C1072.31 2285.56 1112.43 2289.04 1212.56 2289.96C1307.44 2290.83 1486.56 2290.83 1578.8 2289.94C1671.05 2289.04 1676.26 2287.3 1715.6 2286.43Z" fill="#E5EFF5"/>
<path d="M-68.0448 2232.87C-41.9073 2267.7 10.8946 2334.67 28.4952 2353.99C50.521 2378.16 79.4001 2387.37 107.487 2401.44C141.381 2418.42 167.192 2429.53 208.454 2438.36C225.145 2441.93 256.671 2448.87 315.296 2456.77C450.532 2475.01 493.911 2448.92 519.416 2444.55C553.327 2438.73 588.659 2438.38 621.278 2429.63C664.727 2417.98 690.68 2419.09 716.159 2412.06C738.424 2405.91 766.141 2398.02 790.829 2390.98C812.224 2384.88 836.438 2376.94 868.083 2373.41C894.713 2370.44 920.753 2359.34 948.893 2354.09C975.753 2349.09 996.32 2340.05 1037.53 2337.39C1118.84 2332.14 1228.18 2336.47 1254.53 2347.88C1284.45 2360.83 1331.68 2366.29 1365.2 2375.12C1393.7 2382.63 1421.37 2394.43 1457.39 2410.22C1482.13 2421.06 1510.95 2429.53 1546.08 2443.6C1587.4 2460.15 1619.82 2468.21 1644.51 2475.24C1667.5 2481.79 1695.39 2485.81 1719.16 2491.05C1749.6 2497.77 1781.5 2499.83 1896.22 2496.4C1919.2 2495.71 1918.61 2480.75 1917.74 2471.9C1914.88 2442.76 1899.33 2422.68 1861.89 2307.96C1848.82 2267.93 1754.94 2285.56 1715.6 2286.43C1676.26 2287.3 1671.05 2289.04 1578.8 2289.94C1486.56 2290.83 1307.44 2290.83 1212.56 2289.96C1112.43 2289.04 1072.31 2285.56 1017 2284.69C970.034 2283.95 921.069 2276.81 875.407 2270.65C833.417 2264.98 794.703 2264.48 762.031 2260.11C727.929 2255.54 689.31 2253.94 647.917 2249.57C589.243 2243.37 522.683 2243.4 477.47 2239.03C438.044 2235.22 392.417 2232.87 358.033 2228.49C341.516 2226.39 323.754 2225.86 261.888 2223.22C111.468 2216.82 14.478 2227.54 23.2256 2238.93C44.8475 2267.06 74.1304 2276.71 119.713 2303.9C157.373 2326.37 198.705 2334.67 259.201 2350.48C289.208 2358.33 341.934 2362.71 400.111 2366.29C520.716 2373.72 592.348 2368.14 609.843 2365.5C653.432 2358.94 702.695 2359.34 746.881 2354.09C759.585 2352.59 773.255 2347.06 779.473 2340.95C816.231 2304.81 678.665 2318.97 641.751 2316.31C594.218 2312.88 527.847 2304.95 445.14 2300.5C366.271 2296.26 260.571 2292.62 185.057 2290.83C145.598 2289.9 279.594 2289.09 356.347 2286.46C417.419 2284.36 523.526 2285.56 591.215 2287.3C720.815 2290.63 755.602 2299.58 802.133 2302.24C887.055 2307.1 989.258 2310.12 1044.51 2312.78C1117.25 2316.28 1222.81 2320.66 1268.52 2323.32C1329.89 2326.89 1414.31 2331.2 1469.61 2333.86C1531.36 2336.83 1625.09 2371.56 1671.65 2393.51C1696.41 2405.18 1718.26 2410.24 1743.74 2418.15C1756.1 2421.98 1770.96 2427.84 1785.9 2425.23C1805.91 2421.74 1765.9 2380.52 1748.3 2355.04C1743.68 2348.35 1736.07 2343.63 1746.4 2340.95C1783.42 2331.31 1816.7 2343.48 1823.71 2353.99C1830.72 2364.5 1837.78 2382.05 1845.66 2402.23C1851.1 2416.19 1865.86 2419.04 1877.25 2422.55C1890.23 2426.54 1904.49 2427.84 1917.64 2421.76C1965.44 2399.63 1927.47 2315.6 1914.27 2290.91C1903.64 2271.03 1901.07 2254 1895.82 2245.22C1893.26 2240.94 1887.1 2239.93 1879.2 2241.64C1840.03 2250.13 1815.12 2280.19 1765.11 2301.29C1730.95 2315.71 1707.93 2325.93 1692.05 2339.94C1732.12 2373.25 1809.53 2411.93 1835.09 2427.79C1841.26 2431.32 1848.21 2434.8 1865.92 2448.92" stroke="#E5EFF5" stroke-width="100" stroke-linecap="round"/>
<rect x="0.5" y="24.5" width="1919" height="2249" fill="#E5EFF5" stroke="#E5EFF5"/>
<path d="M-23.9081 17.5912C-18.433 20.641 -3.77162 25.5281 11.5604 27.0806C20.2591 27.9615 32.349 26.1896 43.1154 24.3339C55.2839 22.2366 66.0445 18.8405 86.5576 17.288C91.1933 16.9372 94.2282 16.3786 128.833 16.0662C163.438 15.7539 229.524 15.7539 264.478 16.057C301.261 16.376 320.708 17.5912 348.561 17.8943C358.835 18.0061 361.256 18.8038 392.214 19.1161C423.172 19.4284 482.59 19.4284 515.017 19.7316C563.341 20.1833 585.403 22.4783 604.657 23.7093C626.019 25.0749 638.059 27.9901 651.848 28.9179C666.893 29.9303 681.565 31.6646 696.548 32.5924C712.785 33.5979 737.271 35.3391 786.134 36.267C806.554 36.6547 817.523 39.0137 828.234 39.9415C831.015 40.1823 833.434 35.6515 911.986 36.267C990.539 36.8825 1145.14 37.4888 1226.91 37.1948C1308.68 36.9008 1312.92 40.8877 1317.23 39.9599C1334.74 36.1902 1359.41 35.3759 1379.7 33.8234C1384.01 33.4939 1388.25 32.914 1414.08 32.6016C1439.92 32.2893 1487.21 32.2893 1513.69 31.9861C1544.43 31.6343 1556.67 30.452 1570.13 30.1489C1578.79 29.9539 1600.05 28.6148 1629.73 28.3116C1645.49 28.1506 1661.36 26.7775 1681.24 26.4743C1694.48 26.2724 1722.49 24.9402 1759.21 24.6371C1787 24.4077 1804.14 21.8904 1816.07 20.9625C1828.06 20.0299 1841.51 18.8221 1877.62 17.9035C1911.29 17.0468 1976.18 17.5912 2011.42 17.8943C2046.65 18.1975 2050.29 18.8038 2056.11 19.1161C2061.92 19.4284 2069.8 19.4284 2074.25 23.103" stroke="url(#paint0_linear_11_123)" stroke-width="30" stroke-linecap="round"/>
<path d="M-24 41.7603C-18.5249 44.8102 -3.86356 49.6973 11.4684 51.2498C20.1672 52.1306 32.2571 50.3587 43.0235 48.5031C55.1919 46.4058 65.9526 43.0097 86.4656 41.4572C91.1014 41.1063 94.1362 40.5477 128.741 40.2354C163.346 39.9231 229.433 39.9231 264.387 40.2262C301.169 40.5452 320.616 41.7603 348.469 42.0635C358.743 42.1753 361.165 42.9729 392.122 43.2853C423.08 43.5976 482.498 43.5976 514.925 43.9008C563.249 44.3525 585.311 46.6475 604.566 47.8784C625.927 49.2441 637.967 52.1593 651.756 53.0871C666.801 54.0995 681.474 55.8338 696.456 56.7616C712.693 57.7671 737.179 59.5083 786.042 60.4362C806.462 60.8239 817.431 63.1829 828.143 64.1107C830.923 64.3515 833.342 59.8207 911.894 60.4362C990.447 61.0516 1145.05 61.6579 1226.82 61.364C1308.59 61.07 1312.83 65.0569 1317.14 64.1291C1334.64 60.3594 1359.31 59.5451 1379.61 57.9926C1383.91 57.6631 1388.16 57.0831 1413.99 56.7708C1439.82 56.4585 1487.11 56.4585 1513.6 56.1553C1544.34 55.8035 1556.58 54.6212 1570.04 54.3181C1578.69 54.1231 1599.96 52.7839 1629.64 52.4808C1645.4 52.3198 1661.27 50.9467 1681.15 50.6435C1694.39 50.4416 1722.4 49.1094 1759.12 48.8063C1786.91 48.5769 1804.04 46.0595 1815.98 45.1317C1827.97 44.1991 1841.41 42.9913 1877.52 42.0727C1911.2 41.216 1976.08 41.7603 2011.32 42.0635C2046.56 42.3666 2050.2 42.9729 2056.02 43.2853C2061.83 43.5976 2069.71 43.5976 2074.16 47.2721" stroke="url(#paint1_linear_11_123)" stroke-width="30" stroke-linecap="round"/>
<path d="M-24 65.7603C-18.5249 68.8102 -3.86356 73.6973 11.4684 75.2498C20.1672 76.1306 32.2571 74.3587 43.0235 72.5031C55.1919 70.4058 65.9526 67.0097 86.4656 65.4572C91.1014 65.1063 94.1362 64.5477 128.741 64.2354C163.346 63.9231 229.433 63.9231 264.387 64.2262C301.169 64.5452 320.616 65.7603 348.469 66.0635C358.743 66.1753 361.165 66.9729 392.122 67.2853C423.08 67.5976 482.498 67.5976 514.925 67.9008C563.249 68.3525 585.311 70.6475 604.566 71.8784C625.927 73.2441 637.967 76.1593 651.756 77.0871C666.801 78.0995 681.474 79.8338 696.456 80.7616C712.693 81.7671 737.179 83.5083 786.042 84.4362C806.462 84.8239 817.431 87.1829 828.143 88.1107C830.923 88.3515 833.342 83.8207 911.894 84.4362C990.447 85.0516 1145.05 85.6579 1226.82 85.364C1308.59 85.07 1312.83 89.0569 1317.14 88.1291C1334.64 84.3594 1359.31 83.5451 1379.61 81.9926C1383.91 81.6631 1388.16 81.0831 1413.99 80.7708C1439.82 80.4585 1487.11 80.4585 1513.6 80.1553C1544.34 79.8035 1556.58 78.6212 1570.04 78.3181C1578.69 78.1231 1599.96 76.7839 1629.64 76.4808C1645.4 76.3198 1661.27 74.9467 1681.15 74.6435C1694.39 74.4416 1722.4 73.1094 1759.12 72.8063C1786.91 72.5769 1804.04 70.0595 1815.98 69.1317C1827.97 68.1991 1841.41 66.9913 1877.52 66.0727C1911.2 65.216 1976.08 65.7603 2011.32 66.0635C2046.56 66.3666 2050.2 66.9729 2056.02 67.2853C2061.83 67.5976 2069.71 67.5976 2074.16 71.2721" stroke="url(#paint2_linear_11_123)" stroke-width="30" stroke-linecap="round"/>
<defs>
<linearGradient id="paint0_linear_11_123" x1="997.5" y1="-656" x2="999.5" y2="253.5" gradientUnits="userSpaceOnUse">
<stop offset="0.570956" stop-color="#FAF9F6"/>
<stop offset="1" stop-color="#E5EFF5"/>
</linearGradient>
<linearGradient id="paint1_linear_11_123" x1="997.408" y1="-631.831" x2="999.408" y2="277.669" gradientUnits="userSpaceOnUse">
<stop stop-color="#FAF9F6"/>
<stop offset="1" stop-color="#E5EFF5"/>
</linearGradient>
<linearGradient id="paint2_linear_11_123" x1="997.408" y1="-607.831" x2="999.408" y2="301.669" gradientUnits="userSpaceOnUse">
<stop stop-color="#FAF9F6"/>
<stop offset="0.798077" stop-color="#E5EFF5"/>
</linearGradient>
</defs>
</svg>
