<svg width="970" height="2065" viewBox="0 0 970 2065" fill="none" xmlns="http://www.w3.org/2000/svg">
<path d="M200.798 2.552C193.538 6.88169 179.018 21.4452 162.224 37.4738C146.87 52.1285 130.91 70.9523 88.7069 116.086C63.7233 142.804 46.3285 177.314 31.7432 199.29C20.504 216.225 15.7146 241.516 8.38909 270.664C-0.619368 306.51 -0.379613 362.222 8.32349 411.336C13.4602 440.323 43.2671 451.527 61.5043 461.717C82.6819 473.55 107.381 473.394 223.649 473.438C278.477 473.459 301.299 460.362 331.869 452.314C373.999 441.224 410.634 419.514 428.871 406.415C447.481 393.05 476.148 380.24 509.736 360.516C537.088 344.454 560.73 323.386 585.571 304.384C608.758 286.647 629.305 272.305 646.821 264.979C663.854 257.855 722.197 256.21 771.42 267.822C793.739 273.087 812.989 285.337 830.504 299.157C852.735 316.697 885.763 359.51 923.024 415.621C947.626 452.669 947.165 492.113 949.374 522.901C951.885 557.902 950.139 601.623 940.671 626.398C929.856 654.698 905.006 691.978 882.417 711.702C858.745 732.372 839.404 738.686 810.277 749.641C785.21 759.07 762.126 756.223 706.452 758.41C658.027 760.312 568.515 759.154 520.254 759.875C457.331 760.816 434.163 769.3 411.531 776.625C385.434 785.072 351.068 807.174 335.696 823.246C320.749 838.874 294.214 858.168 279.563 877.17C265.967 894.804 253.366 919.396 243.111 942.006C226.807 977.951 224.152 1002.49 219.035 1035.25C211.029 1086.5 225.551 1107.45 239.371 1130.09C250.88 1148.93 266.311 1165.79 291.065 1176.77C311.51 1185.84 337.686 1196.45 383.366 1203.01C515.728 1222.02 540.35 1195.1 563.704 1187.05C587.537 1178.84 607.438 1171.74 624.954 1165.9C645.505 1159.05 677.325 1149.87 702.188 1144.76C735.135 1137.98 759.021 1139.64 789.635 1156.33C815.974 1170.68 840.629 1187.66 861.118 1204.46C878.395 1218.62 896.084 1232.88 923.746 1264.11C970.096 1316.43 961.773 1358.14 965.403 1402.51C974.751 1516.77 956 1540.42 947.231 1565.22C936.345 1596 918.126 1614.77 900.61 1632.33C883.488 1649.49 854.012 1668.74 826.306 1682.62C797.319 1697.15 775.29 1711.07 752.658 1721.26C732.413 1730.38 703.916 1737.31 680.496 1743.15C655.757 1749.32 632.454 1751.92 609.8 1756.27C578.476 1762.29 552.246 1767.93 528.892 1775.21C504.5 1782.81 489.531 1802.83 473.458 1821.83C460.809 1836.78 455.943 1856.79 455.178 1925.13C454.846 1954.72 461.716 1974.88 467.554 1996.02C474.836 2014.28 483.583 2031.73 493.773 2049.25C496.703 2053.64 499.59 2057.97 511.31 2062.43" stroke="url(#paint0_linear_11_140)" stroke-opacity="0.69" stroke-width="4" stroke-linecap="round" stroke-dasharray="50 50"/>
<defs>
<linearGradient id="paint0_linear_11_140" x1="484.832" y1="2.552" x2="484.832" y2="2062.43" gradientUnits="userSpaceOnUse">
<stop stop-color="#1B1F3B"/>
<stop offset="1" stop-color="#FFF3CE"/>
</linearGradient>
</defs>
</svg>
