<svg width="62" height="62" viewBox="0 0 62 62" fill="none" xmlns="http://www.w3.org/2000/svg">
<path d="M1 6.14917C1 13.5507 1.4588 20.9274 1.49587 28.3263C1.50145 29.4397 2.02012 44.119 3.25895 37.2882C5.01719 27.5935 7.38258 17.4902 12.6253 9.30865C13.973 7.20563 17.8715 -0.404893 20.3388 1.22768" stroke="#1B1F3B" stroke-width="2" stroke-linecap="round"/>
<path d="M7.94215 27.4756C7.94215 31.8744 7.62807 35.1171 11.7989 36.6503C15.5301 38.0218 17.6388 32.6142 17.8871 29.0554C18.1566 25.1918 19.3765 23.1126 15.876 21.7339C11.396 19.9694 9.54787 28.5865 8.43802 31.8503" stroke="#1B1F3B" stroke-width="2" stroke-linecap="round"/>
<path d="M18.8512 26.9288C17.6247 27.2669 17.5601 34.8856 18.3554 35.9819C20.6058 39.084 24.5441 32.1103 25.2424 30.2402C25.5544 29.4045 25.7934 26.2832 25.7934 26.625C25.7934 28.3566 25.7934 30.0883 25.7934 31.8199C25.7934 32.3871 25.4276 35.6281 26.2892 35.6781C28.0943 35.7829 29.4396 32.2341 30.146 30.8782C30.8917 29.4466 31.2479 27.972 31.2479 26.3212C31.2479 23.4808 30.6522 31.9995 29.8705 34.706C28.1886 40.529 26.7497 46.4367 25.0771 52.2654C24.752 53.3982 23.0902 62.5495 20.9173 60.7717C17.4763 57.9562 15.3601 51.1512 17.9697 47.0401C21.1194 42.078 26.5954 38.6393 31.8264 37.1971C38.8093 35.272 47.5971 35.9958 54.3884 38.5338C57.3956 39.6577 61 41.5853 61 45.5211" stroke="#1B1F3B" stroke-width="2" stroke-linecap="round"/>
</svg>
