<svg width="604" height="114" viewBox="0 0 604 114" fill="none" xmlns="http://www.w3.org/2000/svg">
<path d="M55.5997 112.958C55.9391 112.814 57.4564 113.037 58.0449 112.952C57.4267 114.315 54.3216 113.484 55.5997 112.958ZM114.865 13.2905C114.359 13.6446 113.853 13.9987 113.348 14.3528C114.838 14.4915 116.835 14.1503 118.217 14.3935C118.444 14.4345 117.909 15.413 118.443 15.4289C118.977 15.4445 118.809 14.1522 119.577 13.9748C120.441 13.7795 124.465 14.4862 125.843 14.3965C130.997 14.0546 136.161 13.0604 141.358 13.351C136.069 14.5677 141.491 15.2858 142.966 14.7984C143.293 14.6864 143.125 12.2755 148.51 12.6287C151.932 12.8534 148.949 16.4501 154.55 14.4556C150.068 12.2478 154.371 12.2146 157.794 11.9754C158.387 11.9333 163.166 12.0758 165.275 11.8728C165.995 11.8028 167.035 10.4891 167.987 10.4127C168.645 10.361 169.178 11.0292 170.155 10.9498C174.697 10.5892 179.191 10.3365 183.774 10.3723C181.252 13.7353 185.917 11.6663 186.152 11.8121C187.277 12.6471 182.366 13.1102 184.334 13.5779C187.062 13.3592 189.754 13.1438 192.497 12.9281C190.24 12.6231 195.344 10.0689 196.339 11.0931C195.818 8.23624 208.882 13.0883 210.81 12.0597C211.114 11.8928 209.599 11.0804 211.647 10.896C212.288 10.8392 213.268 10.8408 214.722 10.9387C215.394 10.986 215.173 11.8615 215.52 11.7678C215.726 11.7116 216.896 8.9118 218.33 10.3831C218.844 10.9212 215.737 12.8407 222.691 11.8664C219.813 9.15903 232.333 10.0156 234.657 10.6515C234.191 10.2894 233.723 9.92743 233.252 9.56561C235.537 10.5094 235.934 9.54391 236.449 9.57978C238.517 9.7242 241.403 10.5989 243.3 10.4566C245.56 10.2909 245.52 8.54746 248.154 9.15345C247.502 8.78643 246.896 8.41829 246.26 8.05118C248.037 8.09422 249.919 8.136 251.7 8.18214C247.593 10.5996 252.595 8.26825 252.958 8.20998C253.494 8.11217 252.746 9.07657 253.641 8.93596C253.732 8.91432 253.582 8.0278 254.95 7.89343C257.851 7.61554 257.42 8.74598 258.624 8.70434C258.739 8.69594 258.308 7.90378 260.428 7.66467C267.072 6.9105 260.416 8.27849 260.154 8.39634C259.83 8.55075 262.162 11.8444 256.496 10.7928C258.414 11.1242 258.625 12.6025 258.84 12.6341C259.021 12.6596 262.334 12.3742 262.496 12.3199C264.111 11.7803 262.654 10.7995 262.968 10.6109C263.243 10.4578 267.218 11.6926 268.098 8.62766C270.057 11.3994 267.025 11.2015 263.881 11.7029C263.44 12.2891 266.915 12.7751 267.119 12.7699C271.61 12.6729 269.08 10.4125 270.04 8.91501C270.552 8.1314 272.418 9.67296 270.68 7.63324C274.747 7.33645 272.304 8.58484 272.568 8.75745C272.976 9.01089 274.412 8.39026 274.588 8.46631C274.852 8.57872 273.954 9.31277 274.992 9.5469C275.164 9.58056 276.796 8.31617 274.65 7.76413C277.523 7.8884 277.291 6.8401 278.291 8.94569C280.21 4.89799 279.779 11.2949 280.56 11.5072C282.618 12.0678 281.995 8.92501 282.096 8.7696C282.847 7.77134 288.616 8.77219 290.016 8.30133C289.49 10.5783 285.483 8.38668 284.571 8.84124C281.629 10.3495 288.783 9.91652 286.668 12.8C287.544 12.0042 288.475 11.208 289.351 10.413C291.026 12.2262 288.704 13.0545 293.148 12.3295C293.855 10.7373 290.001 12.6183 290.762 11.3618C291.209 10.6239 293.8 10.4352 293.841 10.049C293.896 9.58369 291.541 10.1628 291.911 9.44384C292.719 7.89041 301.216 9.26259 294.756 10.1773C296.575 10.1299 297.543 13.1861 299.071 12.2138C300.075 11.5829 294.37 7.40865 302.864 8.09401C303.071 9.53995 299.492 8.55774 299.389 8.66916C299.259 8.83098 299.949 12.0914 300.061 12.2515C300.479 12.7779 309.052 10.9376 310.805 12.5512C310.596 12.0183 311.026 11.7537 311.725 11.6342C313.543 11.3344 317.196 11.9405 317.711 11.5137C317.903 11.3504 317.143 10.2107 317.351 10.0835C318.65 9.32791 322.145 11.2959 323.735 11.2872C325.501 11.2812 325.243 10.2887 325.34 10.2873C326.118 10.3107 325.526 11.0134 326.004 10.9913C326.658 10.967 331.891 10.845 332.258 10.684C332.339 10.6359 331.36 9.54207 332.58 9.26424C332.811 9.2171 332.66 10.5709 336.483 9.8111C341.12 8.90701 333.173 8.27348 335.045 6.77338C338.124 8.65269 337.962 6.66441 338.782 6.78746C338.988 6.8208 340.195 7.67482 341.699 8.07881C342.26 8.23355 342.89 8.3217 343.496 8.27328C342.916 8.39322 342.306 8.51491 341.718 8.6369C340.681 8.84603 339.664 9.05756 338.634 9.27282C339.435 9.38804 340.599 9.32851 341.739 9.27723C342.888 9.22515 344.006 9.18121 344.643 9.33294C345.268 9.47875 344.81 10.8887 346.139 10.8134C346.423 10.7907 347.467 7.35444 343.978 8.984C343.66 7.77792 345.375 8.51821 346.133 8.15379C346.253 8.09691 346.649 6.05522 347.67 7.28973C347.897 7.59533 345.559 13.5754 351.936 9.1263C352.14 8.98304 351.401 8.25985 351.6 8.10111C351.734 7.99356 353.389 8.25226 353.562 8.14276C353.743 8.02533 352.936 7.23569 353.151 7.07101C354.256 6.22245 355.819 9.39514 353.486 9.20849C354.275 9.58576 355.055 9.96332 355.843 10.3406C354.953 7.94232 357.042 9.62971 358.096 9.52829C364.863 8.87641 360.281 7.42088 361.425 6.57663C363.247 5.21958 361.946 9.39823 364.662 8.0775C364.908 7.95268 361.563 6.29543 368.034 7.09488C367.09 7.19267 366.142 7.28942 365.188 7.38539C365.811 9.70969 368.618 7.12245 368.833 7.08191C371.326 6.67881 369.677 7.58121 373.319 6.24588C373.644 6.12574 374.376 6.6765 375.062 6.36133C377.896 5.06352 371.224 5.78735 370.984 4.84085C370.906 4.38639 378.1 4.22849 378.317 4.4293C379.395 5.36161 375.124 4.99653 375.98 6.17366C376.198 6.46654 381.218 5.9225 384.633 5.63642C386.122 5.51473 387.397 5.44309 387.979 5.54476C390.212 5.93348 391.5 9.00583 391.219 5.45268C392.145 8.88836 392.513 6.46056 392.808 6.45946C396.406 6.47032 396.424 6.49771 399.676 5.85603C400.402 5.71418 401.135 6.71149 401.383 6.50802C401.528 6.3856 401.13 5.28169 401.859 4.8609C402.812 4.28239 409.626 4.84575 410.223 5.43761C410.78 6.02006 407.367 5.95156 408.064 6.92971C410.505 6.82317 412.859 6.37863 415.393 6.30933C416.438 6.28487 415.952 7.04343 416.405 7.02678C416.605 7.01795 420.167 6.15639 420.011 5.90202C419.589 5.26832 408.49 6.51082 411.322 5.03342C411.862 4.74381 413.986 6.25368 413.518 4.25798C417.278 4.15019 421.073 4.09277 424.838 4.08947C431.093 4.08718 437.021 4.22188 442.911 4.40285C437.532 6.01359 431.397 4.81314 425.402 5.22765C425.274 5.23627 425.097 5.24186 424.893 5.24922C423.775 5.2883 421.848 5.38746 422.179 6.23424C423.07 6.23257 423.98 6.20875 424.936 6.17241C429.445 6.00042 434.26 5.58646 438.121 6.04821C438.27 6.06679 437.746 6.99917 438.306 7.13187C439.356 7.37756 442.696 5.82826 443.268 6.20365C443.368 6.29087 441.473 7.53835 442.07 8.29818C443.599 10.2481 443.899 5.86261 445.184 5.89453C446.186 5.91571 452.832 7.96026 454.463 6.61755C456.207 5.17778 449.581 5.82694 450.055 4.6601C454.546 3.44158 459.092 4.6752 463.324 4.53481C463.398 4.5312 462.749 3.61647 463.698 3.48996C465.339 3.27045 465.773 4.56884 466.572 4.77926C467.434 5.00232 470.502 4.83634 470.905 5.31334C470.957 5.3757 470.329 6.65643 470.234 6.69191C468.889 7.21189 468.438 5.54126 468.313 5.51899C467.849 5.45308 467.411 6.09002 466.994 6.05006C466.306 5.98357 465.939 5.39075 465.035 5.33593C464.411 5.29608 465.008 6.43311 464.41 6.37975C464.196 6.355 461.823 3.75967 461.602 6.40708C461.567 7.05756 473.516 7.88623 479.752 8.00737C481.496 8.03618 482.783 8.00875 483.222 7.87992C482.073 7.64226 480.93 7.41032 479.768 7.18279C479.181 7.05861 478.546 6.9345 477.962 6.81205C478.533 6.95387 479.176 7.01313 479.771 7.02863C482.855 7.10405 486.021 6.20791 486.193 8.81099C490.713 9.06619 495.495 9.41352 500.717 10.0531C505.928 10.6683 511.488 11.7581 513.227 12.0416C515.048 12.375 518.428 12.665 522.36 12.9152C524.416 13.268 523.156 15.2283 526.726 14.787C525.824 14.1094 524.937 13.4328 524.071 12.7565C525.742 13.27 534.086 14.4975 535.505 14.1639C535.619 14.1352 535.79 13.4068 536.447 12.8607C536.654 12.5315 536.965 12.2613 537.492 12.2226C538.776 12.128 539.035 13.4937 539.807 13.7712C540.472 13.9997 541.261 13.6526 541.468 13.7302C541.628 13.7923 541.683 14.6269 542.068 14.7761C543.308 15.2363 542.307 12.8813 543.537 15.5848C543.231 15.6859 542.926 15.7866 542.626 15.887C544.121 16.2895 546.255 17.5149 543.971 18.1128C543.582 18.2153 543.919 17.4103 543.631 17.4102C532.847 17.3999 541.184 19.1428 545.331 17.8807C546.339 19.0851 552.304 18.3169 552.519 18.5453C552.801 18.8836 551.778 19.8492 553.14 20.6601C553.409 20.8381 561.576 20.0532 558.657 21.6833C558.047 22.0211 554.128 21.7287 553.199 21.7835C555.422 24.2961 560.605 20.5889 561.213 20.6714C563.612 21.0289 556.643 22.9378 562.049 23.1483C562.46 23.0719 563.727 23.1919 564.138 23.1155C564.142 23.3414 564.115 21.6502 564.104 20.9283C564.061 20.9364 563.927 20.9237 563.883 20.9317C563.942 20.9045 564.016 20.8866 564.103 20.8763C565.223 20.7424 568.529 22.1029 568.293 19.8459C569.458 19.5273 568.836 20.8386 568.988 20.9228C569.18 21.0004 571.263 20.128 571.79 20.5694C571.865 20.6249 571.782 21.8952 571.864 21.9896C571.946 22.0696 572.406 22.0009 572.769 21.8966C573.138 21.7925 573.412 21.6551 573.424 21.5991C573.44 21.5219 572.996 20.4818 573.064 20.201C573.159 19.882 574.076 19.96 574.193 19.604C574.054 19.1582 573.006 19.688 572.983 18.4376C573.398 18.5888 573.593 18.1831 574.669 17.3036C575.412 16.9778 577.849 16.7951 578.625 16.5594C580.818 16.0635 581.609 15.7896 582.112 15.4749C581.864 15.6543 581.074 15.73 578.561 16.0582C577.774 16.2974 575.3 16.4828 574.547 16.8134C574.122 16.9436 573.841 16.9956 573.702 16.9816C573.6 16.3245 573.753 15.861 574.23 15.5468C575.011 15.2036 577.579 15.0112 578.396 14.763C580.695 14.3199 581.708 14.3042 582.175 14.4261C582.407 14.4914 582.508 14.6029 582.533 14.755C582.552 14.9075 582.511 15.0997 582.259 15.3392C582.748 14.9286 582.682 14.6396 582.698 14.3511C582.688 14.064 582.687 13.782 582.756 13.4166C582.766 13.3426 582.84 13.2869 582.695 13.2433C582.564 13.1988 582.143 13.1747 581.609 13.1511C581.348 13.1396 581.062 13.1289 580.892 13.0929C580.853 13.0803 581.231 12.9522 581.568 12.8103C582.434 12.4625 582.678 12.0424 582.551 11.7899C582.455 11.6485 582.305 11.5392 581.415 11.568C580.216 11.3654 572.678 13.3507 570.635 14.673C568.267 15.9156 568.229 16.1376 568.114 16.2659C568.045 16.457 568.136 16.5514 568.313 16.5994C568.499 16.6428 568.797 16.616 569.436 16.4176C570.058 16.2301 571.127 15.8212 572.453 15.4144C573.76 15.0083 575.171 14.7085 575.562 14.7808C575.697 14.7511 572.132 16.5338 571.066 17.6607C569.842 18.8027 569.99 19.2463 569.982 19.318C570.379 19.9108 570.473 19.9159 571.791 19.266C572.97 18.631 576.338 17.3999 575.74 18.3188C572.536 19.8461 571.701 20.8639 571.451 21.3041C571.872 21.3307 572.461 21.0782 574.539 20.2568C576.448 19.4115 581.047 18.3555 582.251 18.3828C583.425 18.3245 583.257 18.4282 582.662 18.5203C582.026 18.6274 580.865 18.7456 578.947 19.0911C578.23 19.3091 575.975 19.478 575.289 19.7793C574.686 20.1012 574.474 20.4001 574.409 20.832C574.65 20.7088 574.974 20.5734 575.449 20.4193C576.121 20.1243 578.328 19.9589 579.031 19.7455C581.392 19.4234 582.358 19.4061 582.886 19.3903C583.368 19.3918 583.308 19.4304 582.406 19.6454C581.674 19.8113 579.851 20.2472 578.374 20.8693C576.873 21.4852 575.842 22.148 575.273 22.6703C574.154 23.725 574.326 24.4093 574.717 25.1616C575.074 25.7613 575.762 25.968 577.027 25.8491C578.262 25.7276 580.004 25.4998 579.902 25.7205C579.615 26.4213 577.233 27.3192 576.45 27.6025C575.562 27.8976 575.456 27.6114 575.448 27.6498C575.483 27.7181 575.525 27.7804 575.565 27.8412C575.565 27.8412 575.565 27.8412 575.565 27.8413C575.834 28.1265 575.68 28.5128 577.248 27.9856C578.016 27.7361 579.494 27.2589 580.697 27.0513C581.91 26.8338 582.527 26.8554 582.629 26.9186C583.57 27.2751 579.775 30.748 580.242 31.3084C580.145 31.3259 583.619 30.6621 583.825 31.2114C584.021 31.4224 584.063 31.6983 583.965 32.0305C583.956 32.0543 583.946 32.0778 583.934 32.1009C583.814 32.3426 583.413 32.5588 582.747 32.8513C582.088 33.1385 581.316 33.5046 580.863 33.7748C579.934 34.3348 579.959 34.4126 579.947 34.4642C580.064 34.6692 580.088 34.8706 580.938 34.6853C581.748 34.4529 584.115 34.0967 584.205 34.3077C584.338 34.3763 584.318 34.4572 584.328 34.5256C584.327 34.5819 584.375 34.7247 584.28 34.9224C584.192 35.126 583.674 35.4375 583.18 35.7934C582.688 36.1459 582.407 36.4656 582.421 36.5685C582.435 36.6905 582.792 36.7253 583.336 36.7989C583.884 36.8678 584.48 37.0509 584.579 37.3611C584.647 37.5419 584.638 37.7483 584.621 37.9696C584.559 38.4872 584.81 38.8919 584.797 39.1352C584.797 39.2319 584.785 39.3011 584.806 39.3303C584.809 39.3359 584.818 39.3402 584.823 39.3446C584.869 39.3653 584.653 39.4046 583.963 39.4588C583.319 39.5089 582.206 39.6072 581.576 39.7346C581.334 39.8082 580.573 39.8652 580.341 39.9669C580.274 39.9943 580.232 40.0167 580.22 40.033C580.139 40.1454 580.302 40.356 580.492 40.5691C580.71 40.4734 581.427 40.4197 581.654 40.3504C581.986 40.5822 582.299 40.8356 582.216 40.9549C582.156 41.0421 581.99 41.0974 581.756 41.1456C581.546 41.2093 580.887 41.2587 580.686 41.3467C580.368 41.4798 579.878 41.4903 580.02 41.695C580.059 41.7512 580.392 41.9407 580.898 42.1907C581.079 42.111 581.676 42.0663 581.866 42.0086C584.079 42.696 585.361 44.2663 585.502 44.8818C585.514 44.923 585.521 44.9609 585.525 44.9952C585.53 45.0411 585.532 45.0821 585.531 45.1187C585.733 46.1509 581.711 43.6836 585.672 48.5409C585.682 48.5528 585.802 48.4978 585.936 48.4225C586.172 48.2962 586.384 48.1062 586.397 48.1232C586.715 48.5469 586.419 49.2548 586.237 49.7409C586.162 49.9839 586.165 50.1802 586.437 50.2599C586.696 50.3334 587.301 50.3075 588.158 49.811C587.483 50.3814 586.749 50.714 586.245 50.939C583.399 52.1316 585.502 52.5111 586.56 53.5087C586.86 53.7918 587.043 54.1362 586.792 54.6168C586.771 54.6572 586.744 54.6974 586.711 54.7372C586.338 55.186 585.375 55.5336 584.739 55.763C584.071 55.9958 583.753 56.1452 583.766 56.2069C583.961 57.2864 584.544 56.3934 584.899 56.9149C585.004 57.1285 583.842 57.8888 583.971 58.5405L584.944 58.3575C584.836 58.625 584.827 58.8626 585.018 59.0207C585.043 59.0417 585.079 59.0577 585.122 59.0694L584.064 59.2685C584.067 59.4166 584.369 59.4314 585.011 59.415C585.612 59.4025 586.506 59.3245 586.594 59.3486C586.994 59.4835 587.244 59.6271 587.331 59.7909C587.378 59.8738 587.384 59.9613 587.363 60.0513C587.236 60.5308 586.49 61.0349 586.764 61.3354C586.846 61.4247 587.11 61.4743 587.538 61.4768C588.576 61.5718 591.53 60.7433 591.525 60.7303C591.594 60.7406 591.156 61.0771 590.35 61.5118C589.553 61.9506 588.415 62.4146 587.694 62.7477C586.665 63.2289 586.067 63.6086 585.845 63.8271C585.652 64.0249 585.928 64.249 586.309 64.436C586.68 64.6244 587.197 64.7644 586.982 64.865C583.899 66.0484 584.585 63.5087 585.183 66.9519C585.249 67.0544 585.503 67.0724 585.881 67.0609C586.246 67.0508 586.735 67.0045 586.766 67.0229C587.445 67.4606 586.744 67.7907 586.12 68.0727C585.47 68.3562 585.104 68.5986 585.099 69.0036C585.072 69.701 585.177 69.8459 585.518 69.929C585.67 69.9715 585.808 70.002 585.729 70.0929C585.681 70.1822 585.286 70.3384 585.181 70.591C585.461 71.0432 586.433 71.2713 588.715 71.0693C590.72 71.0457 596.414 69.2609 598.653 67.6605C596.708 69.101 590.836 71.1541 588.76 71.4361C586.185 72.0029 585.699 72.3136 585.432 72.7264C585.219 73.1218 585.541 73.5011 585.61 73.8683C585.718 74.234 585.437 74.6075 585.503 74.8691C585.548 74.9996 585.702 75.1045 586.177 75.1658C586.678 75.2184 587.382 75.2701 589.208 75.0873C590.246 74.9771 592.128 74.7054 594.277 74.0606C591.741 74.7896 590.078 75.0532 589.233 75.2939C587.619 75.73 587.334 76.1709 587.004 76.5884C586.717 76.9966 586.55 77.3369 586.252 77.368C586.129 77.3805 585.784 77.2525 585.683 77.1352C585.57 77.0172 585.741 76.9141 586.314 76.9413L589.447 76.3519C588.946 76.6443 588.779 77.4136 589.974 79.2271C590.022 79.3022 590.102 79.3396 590.198 79.3544L586.705 80.0115C586.458 80.0972 586.202 80.1407 586.055 80.1641C585.904 80.1882 585.856 80.1951 585.869 80.2227C585.907 80.2768 586.084 80.4196 585.976 80.9183C585.749 80.8951 586.165 80.8597 586.803 80.7777L590.386 80.1036C589.761 80.2598 589.516 80.385 589.628 80.455C589.731 80.5275 590.133 80.5578 590.508 80.5914L586.866 81.2765C585.7 81.6045 586.006 81.7406 585.999 81.8068C586.018 82.0734 585.977 82.295 586.036 82.4685C586.111 82.6379 586.239 82.7774 587.057 82.7799L590.876 82.0616C589.696 82.7946 585.048 83.7465 581.439 83.9989C577.787 84.294 574.983 84.1897 574.032 84.3798C571.295 84.9157 569.132 87.0769 568.559 87.0992C566.75 87.1532 568.223 86.0444 567.807 85.6646C567.596 85.4862 566.373 85.8836 565.114 86.3235C563.956 86.8063 562.729 87.3598 562.616 87.3027C561.784 86.8654 562.603 85.5899 562.516 85.5275C561.488 84.7715 555.684 85.8445 554.016 85.5653C554.081 86.3846 557.38 86.4098 555.336 87.7501C552.943 89.3114 552.763 85.7001 552.7 85.5422C546.407 85.6003 540.539 85.7086 532.789 85.3877C528.296 85.1735 523.833 85.0249 518.886 84.8313C519.027 86.7641 526.08 85.5969 526.174 85.8563C527.136 87.3868 515.277 86.9057 513.202 86.0652C514.485 86.5577 515.712 87.0356 516.897 87.5065C514.772 89.6195 510.02 86.5082 505.979 87.0428C504.687 87.2215 507.013 88.3279 506.95 88.3754C505.482 89.0991 503.176 88.1501 505.065 87.215C504.486 87.3257 504 87.3837 503.596 87.4046C501.61 87.5256 501.686 86.6514 499.853 86.2975C499.755 86.2781 500.487 87.2936 498.816 87.4088C497.876 87.4329 495.016 87.0005 494.665 87.7498C494.485 88.0549 495.267 91.6544 495.896 88.7431C497.335 89.6934 497.858 89.437 497.918 88.9275C498.015 88.4249 497.815 87.7011 498.602 87.8586C498.726 87.8859 498.574 88.2863 498.939 88.6661C499.325 89.0445 500.144 89.4149 502.961 89.3978C502.247 90.817 500.317 90.7385 498.877 90.3706C497.406 90.0001 496.436 89.3732 496.104 89.5075C495.468 89.7894 496.188 90.4735 497.728 90.906C499.226 91.3369 502.014 91.5444 503.04 90.4927C502.536 91.4968 502.615 91.6714 503.06 91.5977C503.625 91.5128 504.724 91.0644 505.878 91.237C508.168 91.5703 507.103 92.1621 508.309 92.2743C511.497 92.5472 510.308 90.8 512.647 92.4426C510.649 87.7149 516.686 92.069 518.161 93.3221C515.49 93.4373 512.609 93.5376 509.235 93.5084C509.409 93.7646 509.58 94.0201 509.751 94.2754C508.88 94.1754 507.978 94.0665 507.04 93.9444C507.212 93.7278 507.383 93.5109 507.552 93.2936C505.425 93.7554 503.867 93.6233 502.838 93.3398C501.568 92.9762 501.209 92.3652 500.994 92.3248C495.924 91.3726 494.062 91.0514 491.643 90.812C491.257 90.7793 491.49 92.2853 488.782 90.8942C487.875 90.4545 488.853 89.3457 487.757 89.4502C486.206 92.5457 486.376 90.0157 485.95 89.9884C484.745 89.9271 483.938 90.6862 483.822 90.6894C482.3 90.7476 479.987 90.5543 478.176 90.6304C478.151 90.6315 478.125 90.6326 478.099 90.6337C478.092 90.636 478.126 90.6796 478.174 90.7447C478.333 90.959 478.642 91.4067 478.162 91.3894C478.074 91.3863 477.959 91.3677 477.811 91.3294C477.389 91.2165 473.524 86.9751 469.986 88.3113C470.893 88.6005 471.797 88.8909 472.706 89.1829C471.654 88.7691 464.116 89.7818 465.952 90.9103C467.081 91.5968 469.846 88.923 470.123 91.5151C467.651 90.6953 453.791 91.8739 452.724 91.3032C452.574 91.2186 453.484 90.371 453.277 90.2653C453.115 90.1836 449.957 90.4131 449.535 90.0969C449.283 89.908 450.673 89.3773 450.556 89.0762C450.454 88.8595 446.504 88.5507 446.299 89.609C447.256 89.1705 449.982 89.5056 448.567 90.411C448.385 90.5234 447.427 89.8573 447.206 90.0004C445.162 91.3184 451.322 90.925 452.287 90.9324C448.412 92.3057 442.399 90.816 438.034 91.8111C436.235 90.9821 440.638 90.4028 438.603 89.7289C434.39 88.3385 437.527 90.9701 437.399 91.0849C436.397 91.9937 432.75 87.3744 432.883 90.9809C431.393 90.4938 431.837 90.0191 429.812 90.5778C430.093 90.8155 430.374 91.0534 430.651 91.2918C430.189 91.7618 429.573 91.897 428.943 91.8154C426.601 91.5167 423.556 88.3887 423.812 88.0575C424.713 86.9207 427.283 88.462 427.5 88.4127C427.664 88.3726 427.928 87.3048 428.708 86.7845C429.371 86.329 430.442 86.2949 432.154 87.7608C433.496 85.2453 426.528 86.3409 429.631 84.5312C429.374 84.5753 429.021 84.5955 428.605 84.5992C425.495 84.6063 418.504 83.8797 417.436 84.9327C417.294 85.0861 418.204 87.4625 415.906 86.4049C414.809 85.9024 417.33 85.6624 416.805 85.1476C415.743 83.5622 396.536 86.3753 389.544 86.8919C389.079 86.934 388.686 86.9675 388.38 86.9911C388.085 87.0108 388.147 86.247 387.862 86.2701C386.976 86.3439 383.838 87.638 382.283 87.3557C385.559 88.6127 379.323 89.007 377.77 88.9041C375.394 88.7584 375.497 87.4159 374.471 87.1681C370.525 86.2124 364.649 89.5476 361.615 86.6591C361.848 89.5972 356.473 85.3462 354.113 85.3789C352.257 85.4039 349.663 87.4193 352.162 88.5411C349.532 88.4961 346.825 88.9266 344.446 89.2348C343.942 89.2988 343.473 89.3569 342.993 89.4054C342.538 89.4525 343.138 88.559 342.356 88.6676C342.284 88.684 342.221 89.5392 341.554 89.655C336.025 90.6406 338.63 88.7172 337.552 88.2323C336.937 87.9637 336.476 87.8383 336.14 87.8061C339.553 87.4624 343.179 86.9878 344.213 86.9311C343.27 85.0667 337.077 87.5839 334.972 87.1934C334.901 87.1785 335.091 86.1298 335.02 86.126C335.019 86.1261 335.017 86.1262 335.016 86.1263C334.313 86.0858 329.259 86.7089 330.356 87.8947C330.647 88.2137 333.05 88.1005 335.63 87.856C334.939 88.1232 335.522 89.2578 335.401 89.3136C333.959 89.9637 329.94 89.0228 328.5 88.9241C328.174 88.9038 328.226 89.647 328.173 89.651C326.87 89.533 327.319 87.3878 326.071 89.6279C323.63 87.0666 330.46 89.0671 329.902 87.3585C329.445 86.1077 314.728 87.2226 314.885 89.2703C314.835 89.0478 314.614 88.7744 314.214 88.4655C313.962 88.2727 313.468 88.1563 312.853 88.0971C311.335 87.9449 309.147 88.1625 308.683 88.4445C308.57 88.5216 308.64 90.5474 308.498 90.5678C308.123 90.6196 303.38 89.0824 301.634 90.2988C302.588 90.5726 303.532 90.8465 304.498 91.1202C298.757 91.1993 299.658 91.7929 301.569 92.3783C301.663 92.3828 301.755 92.4587 301.845 92.466C303.344 92.898 305.248 93.309 305.28 93.4685C305.363 94.0776 295.674 94.5219 297.523 92.622C297.781 92.3618 302.285 93.1501 300.033 91.8329C299.655 91.6018 296.772 92.0167 296.628 91.8707C295.602 90.8986 301.87 89.5234 301.092 88.1352C299.55 89.4818 297.62 88.8024 295.866 89.1661C295.063 89.3306 294.898 90.3487 294.797 90.3691C293.34 90.6517 294.146 89.5767 293.656 89.6092C293.379 89.6306 290.551 91.9338 291.046 88.8018C281.623 91.2305 288.452 91.1285 294.274 90.8829C292.444 92.0428 288.833 91.539 287.233 91.8264C286.656 91.9305 287.018 92.9683 286.033 93.1912C284.026 93.645 274.421 92.6088 271.916 92.3803C273.449 91.9819 272.98 90.8546 271.788 90.9565C270.589 91.0593 271.628 92.5554 271.397 92.723C271.158 92.8952 265.603 92.2954 264.655 92.5147C268.845 91.8736 267.883 90.7608 264.305 90.7214C264.807 90.3837 265.329 90.0457 265.836 89.7083C263.745 90.2117 259.349 88.5868 258.139 89.1318C257.951 89.2192 258.659 90.1546 258.553 90.2037C257.475 90.6343 253.898 89.7541 253.713 90.0846C253.576 90.3587 255.149 91.1168 254.584 91.5247C254.457 91.6108 252.959 90.3616 251.51 90.7174C250.97 90.8484 251.321 91.7401 251.186 91.7961C250.059 92.2602 250.668 90.7256 248.624 91.0262C247.116 91.2489 246.004 92.7642 243.906 92.3344C250.84 94.0256 245.053 93.4003 242.158 94.061C241.691 94.1667 242.159 95.7878 239.373 95.0769C245.145 91.9421 237.627 93.5653 236.103 93.5836C236.018 93.5763 235.956 92.4991 235.196 92.5063C235.131 92.5094 235.249 93.2347 234.541 93.3134C227.885 94.0594 232.125 93.0964 230.832 92.4199C230.269 92.1319 227.068 93.2723 226.19 93.3282C225.987 93.3379 226.055 92.5776 225.271 92.6348C223.867 92.7385 222.704 93.5868 221.786 93.6839C221.678 93.6916 221.638 92.497 219.908 92.9479C219.418 93.0743 218.907 93.5177 219.597 93.8361C221.95 94.88 226.211 92.7718 228.807 93.8124C231.189 94.7582 223.774 95.1104 223.402 95.1316C223.262 95.1403 224.677 94.4962 223.213 94.4309C221.97 94.3773 219.703 96.5247 217.842 96.1443C217.7 96.1161 216.134 94.4236 216.198 94.3191C216.262 94.2419 218.546 93.7767 218.192 93.2832C218.152 93.2269 216.692 93.293 216.484 92.9236C216.232 92.4737 215.428 87.9969 215.106 87.896C214.596 87.7421 214.62 88.0712 214.586 88.3309C214.566 88.4897 214.525 88.6225 214.329 88.6028C213.236 88.493 209.285 87.3135 209.229 88.8785C209.862 88.9464 210.522 89.0133 211.164 89.0811C207.594 89.381 209.159 89.9853 208.662 90.2977C208.136 90.6355 208.235 89.2582 207.033 89.1769C206.768 89.1584 201.766 89.6468 201.882 90.2189C204.612 89.1907 203.651 90.9272 203.781 90.9521C204.266 91.0431 204.85 90.0676 205.508 90.0602C210.108 90.0259 205.538 91.7104 206.637 92.0531C207.016 92.168 207.724 91.3273 207.883 91.3626C208.4 91.4768 208.45 92.539 208.786 92.4397C209.571 92.209 208.587 90.7419 208.646 90.6612C209.302 89.6927 212.18 90.7533 210.487 92.4577C211.562 93.0063 211.607 91.0133 212.466 91.7762C214.169 93.2871 211.695 92.9772 211.029 93.265C208.642 94.3024 207.951 93.5649 204.531 93.9638C203.324 94.1047 201.914 95.1296 201.347 95.2059C200.985 95.2538 197.47 92.0333 197.592 97.2962C196.266 96.8416 194.031 93.4642 192.701 93.6795C191.495 93.8755 191.959 95.7195 191.849 95.7962C191.681 95.9167 190.203 95.8329 189.714 96.1173C189.143 96.453 189.461 97.1507 188.55 97.4799C186.292 98.2969 186.264 96.396 186.024 96.2828C183.212 94.9762 184.532 97.6247 183.931 97.868C183.375 98.0908 175.38 97.4039 173.735 98.1641C174.4 97.753 175.065 97.342 175.728 96.9312C174.457 95.8015 173.248 97.7917 173.13 95.669C173.033 99.109 170.418 96.931 169.665 97.0541C169.369 97.1042 169.419 97.6874 169.047 97.7296C167.592 97.8985 164.287 97.5846 163.51 97.9175C160.152 99.3509 168.988 101.069 169.682 101.167C168.301 101.191 160.549 102.319 164.206 103.801C164.771 104.03 165.679 102.451 165.987 102.376C168.071 101.885 166.48 103.336 166.651 103.459C166.941 103.657 168.268 102.264 168.641 102.406C168.765 102.451 168.037 103.732 170.044 103.667C169.112 104.918 163.43 104.194 162.701 104.512C162.443 104.626 164.212 107.128 159.271 104.847C159.338 105.084 159.405 105.321 159.472 105.558C156.79 105.782 154.105 106.007 151.422 106.234C151.687 105.668 153.145 104.489 151.254 104.814C150.166 105.002 151.034 106.192 150.936 106.233C149.97 106.614 132.562 107.046 129.192 107.354C128.052 107.455 124.899 108.601 124.656 108.631C123.208 108.802 118.005 108.418 116.989 108.61C116.353 108.731 117.013 109.727 116.439 109.708C115.905 109.689 116.406 108.668 116.246 108.635C114.897 108.341 105.012 110.148 102.575 109.336C104.054 109.541 111.174 107.19 110.99 106.498C110.958 106.404 109.158 105.738 108.812 106.125C108.166 105.296 106.243 108.017 105.109 107.56C104.977 107.509 105.409 106.015 103.386 105.851C102.688 105.796 100.952 107.032 99.0805 105.843C96.4695 106.593 82.6164 105.408 81.7222 107.038C81.6966 107.122 83.6771 107.563 82.3924 108.279C80.6923 109.231 82.1014 106.252 80.0667 106.108C79.7769 106.085 74.1185 106.679 73.9453 106.868C72.3174 108.585 77.2826 108.982 77.2258 109.175C77.0759 109.66 73.0002 110.166 72.8155 110.063C72.6489 109.955 75.9014 107.621 71.9036 108.653C72.377 108.886 72.8528 109.119 73.3309 109.352C71.4555 109.955 71.2076 108.473 70.7471 108.406C69.3315 108.193 67.8502 110.543 65.4637 107.867C64.8103 107.158 65.7811 106.279 65.6932 106.172C64.9189 105.212 64.1086 107.935 62.918 106.001C62.8322 105.856 65.282 104.527 60.8821 104.761C61.2118 104.935 61.5074 105.111 61.8218 105.285C61.2181 105.746 56.7755 106.241 56.127 106.176C54.3366 105.978 55.7989 104.522 54.0476 104.782C55.3013 106.599 49.8878 107.141 50.1352 105.505C50.0435 105.809 49.867 106.04 49.628 106.213C48.1438 107.225 44.4943 106.276 42.6849 106.336C41.2912 106.384 38.6047 107.425 38.165 107.346C37.6351 107.249 37.7382 105.852 36.7634 105.598C36.4649 105.527 33.7211 106.702 31.1775 105.41C30.676 105.162 29.5603 102.868 30.3977 102.229C31.8895 101.133 34.873 102.863 34.7364 101.477C34.6416 99.9906 30.7498 101.101 29.7345 100.967C24.8987 100.351 27.5619 98.6091 27.409 98.1373C27.0042 96.9946 24.4003 97.1867 24.2765 97.0897C23.7866 96.6535 25.6209 95.6198 25.5841 94.9104C25.589 93.983 22.9296 92.4711 23.4957 92.1245C24.2817 91.6327 26.6816 92.8835 26.8511 92.8071C28.6912 91.7992 25.9421 89.8205 25.159 88.8158C24.9224 88.5063 25.756 87.9246 25.5708 87.8407C22.7195 86.5715 25.1475 90.875 23.3082 90.6891C21.6348 90.5264 23.6817 88.9942 23.6029 88.9216C23.5356 88.8402 21.5327 88.886 21.2183 88.408C21.017 88.1693 26.0033 85.1302 25.7146 83.9217C24.132 84.2862 22.4411 84.6589 20.8559 85.028C20.6394 83.4408 23.0706 84.4691 23.2808 84.2918C23.739 83.9329 22.3651 83.2067 22.3703 82.7006C22.4098 82.3763 23.8858 81.1384 22.4459 80.7527C21.9081 80.6222 20.9409 81.8025 19.0656 80.7751C25.2925 78.9233 20.8332 78.3012 20.6457 77.7455C20.4097 77.1934 23.3526 75.6769 19.6965 76.1398C19.3419 73.0478 19.7176 75.1537 20.7315 74.5435C21.9613 73.7955 18.9268 72.9543 23.686 73.4433C23.2943 72.008 19.5803 72.3388 19.3508 72.2381C19.1709 72.1439 19.9655 71.377 19.6504 71.1537C15.9414 68.5708 18.4427 69.6991 17.3188 67.9715C17.2019 67.8169 13.8204 67.3745 16.349 66.9446C20.9636 66.169 23.0305 68.1182 23.5557 63.6685C19.986 61.962 15.9873 65.0698 14.9514 65.1906C13.3429 65.37 14.9733 64.3573 14.7423 64.1206C14.6731 64.0432 13.2993 64.213 13.2594 64.1448C12.0436 60.8515 19.4136 63.674 21.6292 62.9615C21.0072 62.4949 20.3374 62.0315 19.7344 61.5644C20.5136 61.4958 21.3807 61.4226 22.1686 61.3548C18.2174 60.5819 21.9923 60.9807 22.8323 58.2032C23.0034 57.58 20.4921 58.7822 23.3231 56.9086C21.1246 56.6475 21.8341 56.0472 19.8874 56.9355C19.8753 55.8417 24.2078 54.3458 25.8928 53.6872C19.7194 52.8259 23.4401 56.6105 18.0016 54.825C17.114 56.2348 19.6234 55.8136 19.4334 56.0494C18.7081 56.8981 16.944 55.731 14.9913 58.6773C14.6803 59.1608 16.2203 60.4798 14.0765 60.5562C13.8348 60.5624 12.3721 59.4497 12.3958 59.3603C12.4945 58.3995 13.89 58.6585 13.9233 58.259C13.9448 57.8805 12.4375 58.2128 12.43 58.1098C12.2888 56.9256 13.6752 57.5651 13.4504 57.2075C12.9914 56.4254 7.25934 54.2693 14.5284 54.5053C8.66158 56.2672 13.8869 55.8584 16.133 55.1988C16.725 55.0306 16.7837 54.314 17.6382 54.0124C18.6581 53.6274 19.9413 53.8904 20.4951 53.7258C21.0808 53.5462 17.5807 52.0744 22.5251 52.277C19.915 50.7577 15.6528 52.808 13.0662 51.8129C7.80233 49.8091 16.4011 48.6883 17.2415 48.4187C17.4798 48.3411 16.608 47.434 16.7662 47.365C17.032 47.2555 21.7885 47.4073 22.2455 46.5852C22.6755 45.7637 20.4768 46.7285 20.3083 45.9094C20.1363 45.3597 25.8554 44.0274 22.7088 43.8334C20.5457 43.6996 16.7631 46.1804 15.9041 43.8235C19.0913 43.419 22.1971 43.0331 25.337 42.6487C23.6056 41.8323 21.7627 41.024 20.0182 40.2122C23.5104 39.7084 26.6431 40.5623 29.9046 39.0605C21.6807 36.5943 32.402 36.5681 32.4764 36.2081C32.4912 35.9929 29.2056 33.7931 28.6668 33.3877C31.4133 32.3092 39.9123 31.3833 34.7613 28.725C35.7534 29.3346 37.7721 27.5784 37.763 27.4549C37.4018 26.1723 32.6805 27.283 33.3967 26.0665C34.2058 24.6556 35.6167 26.4279 36.9666 26.2044C42.1759 25.3463 42.2541 21.5188 44.8676 19.8158C45.7551 19.2054 47.0012 18.8693 48.9203 19.0492C48.7681 18.8155 48.6168 18.5817 48.4649 18.3479C56.1775 18.3109 64.0126 18.2748 71.7477 18.2499C74.6998 16.0169 82.6672 14.3338 86.6429 14.3572C87.4446 14.3601 91.4221 15.2433 91.7219 15.4189C92.2846 15.7558 89.2977 16.0501 90.6854 16.6645C90.969 16.7903 97.6363 16.9045 97.0961 15.7712C96.3461 15.675 94.065 16.3763 93.6597 16.1236C90.8985 14.3103 111.398 14.8228 112.383 13.9899C111.912 13.6364 111.443 13.2829 110.973 12.9294C112.266 13.0499 113.563 13.1702 114.865 13.2905ZM60.6249 109.393C59.8943 110.598 57.9617 109.827 56.8269 110.216C55.2352 110.761 52.8877 115.377 53.7629 110.831C56.0129 110.353 58.3236 109.872 60.6249 109.393ZM94.5038 109.335C92.9092 108.791 94.0043 106.223 95.3111 107.199C95.4582 107.31 96.6283 110.067 94.5038 109.335ZM78.1819 108.997C78.2435 108.961 79.6084 108.955 79.646 108.993C80.9037 109.935 76.8347 109.944 78.1819 108.997ZM156.605 103.775C154.902 103.963 156.246 106.183 157.263 105.196C157.327 105.133 156.717 103.764 156.605 103.775ZM155.387 103.771C153.966 101.794 151.493 106.055 153.595 105.538C153.799 105.486 155.453 103.868 155.387 103.771ZM88.9259 108.626C89.0691 107.835 90.6643 108.13 91.3595 108.282C91.3747 108.996 89.5933 108.504 88.9259 108.626ZM129.444 106.349C129.484 105.731 123.926 106.04 123.589 106.869C124.448 106.482 129.41 106.904 129.444 106.349ZM143.65 104.791C143.504 104.691 141.592 104.946 141.674 105.485C142.645 106.151 144.308 105.241 143.65 104.791ZM171.943 103.502C172.044 103.361 170.443 99.9744 173.956 102.092C174.472 102.402 172.726 103.384 172.909 103.5C173.292 103.725 173.592 103.824 173.829 103.834C172.25 104.192 170.621 104.4 170.451 104.198C169.66 103.244 171.901 103.56 171.943 103.502ZM186.672 100.271C186.977 99.6934 189.053 99.9053 189.548 100.116C189.631 100.156 189.339 101.651 190.275 101.5C191.026 101.377 189.835 99.9093 191.313 100.089C192.805 100.269 190.872 101.434 191.004 101.505C191.184 101.599 193.441 100.821 193.406 101.706C193.383 102.361 190.915 102.023 190.309 102.188C189.537 102.4 190.53 103.447 189.214 103.27C188.392 103.159 188.763 101.227 188.587 101.138C188.442 101.066 185.641 102.29 186.677 100.277C186.675 100.275 186.674 100.273 186.672 100.271ZM174.254 103.73C174.138 103.8 173.999 103.84 173.829 103.834C173.972 103.801 174.114 103.765 174.254 103.73ZM65.0607 108.312C65.9099 108.858 63.5222 109.744 62.5916 109.02C62.5359 108.398 64.9184 108.228 65.0607 108.312ZM175.653 102.106C178.022 102.48 176.328 103.216 174.254 103.73C174.902 103.34 174.856 101.982 175.653 102.106ZM108.812 106.125C108.919 106.263 108.993 106.482 109.02 106.847C108.737 106.46 108.703 106.247 108.812 106.125ZM114.344 106.498C116.179 105.29 112.34 105.529 112.408 106.324C112.433 106.624 114.27 106.546 114.344 106.498ZM158.798 103.781C158.621 103.68 161.139 100.194 157.372 102.898C159.465 103.197 157.294 103.665 157.34 103.958C157.466 104.8 160.906 103.824 161.696 104.154C162.229 102.612 159.383 104.113 158.802 103.781C158.801 103.781 158.8 103.781 158.798 103.781ZM213.391 99.9891C212.959 100.894 211.459 100.666 210.44 100.654C210.881 99.7479 212.39 99.9751 213.391 99.9891ZM476.606 91.5925C470.043 92.3212 469.173 88.7059 475.224 90.2056C475.339 90.2367 477.011 91.2323 476.606 91.5925ZM420.679 91.6478C419.983 90.1186 421.894 89.7245 423.193 90.2945C423.49 90.4218 424.639 91.949 423.46 92.3361C423.377 90.4267 421.47 89.8208 420.679 91.6478ZM176.935 101.039C177.564 99.9586 179.721 100.611 180.835 100.72C180.2 101.614 177.921 101.324 176.935 101.039ZM454.716 89.6203C454.009 89.5057 453.545 90.8804 453.667 90.9935C454.213 91.5123 455.525 90.3955 454.716 89.6203ZM170.121 101.183C169.998 100.56 172.756 99.8296 173.026 101.372C172.416 101.287 170.211 101.573 170.121 101.183ZM211.477 99.5912C211.032 99.2889 213.252 98.6309 213.932 98.9222C213.906 99.5919 211.772 99.7873 211.477 99.5912ZM443.424 90.2264C442.8 90.1186 441.242 90.1149 441.086 90.6731C440.886 91.3697 443.156 91.0861 443.424 90.2264ZM565.313 93.0924C565.326 93.1222 565.292 93.1754 565.22 93.2449C564.816 93.7495 562.751 95.1214 561.735 94.7378C559.684 93.9546 564.58 93.0391 565.218 93.0732C565.273 93.0753 565.306 93.0816 565.313 93.0924ZM461.401 88.8901C463.4 90.194 461.182 88.9311 461.269 90.3042C462.614 90.3517 465.943 90.4278 463.658 89.0729C463.209 88.8108 462.031 88.9786 461.401 88.8901ZM459.557 88.4331C459.345 88.8781 457.913 90.2842 459.154 90.1804C459.724 90.1304 460.656 88.5711 459.557 88.4331ZM549.128 93.9016C547.18 92.7032 556.11 93.2843 556.334 93.485C556.47 93.5957 556.559 93.7006 556.609 93.7897C556.926 93.4007 558.578 93.3088 558.782 94.2801C558.285 94.2069 556.933 94.3107 556.775 94.2046C556.707 94.1595 556.655 94.117 556.62 94.0736C556.061 94.9314 549.526 94.1362 549.128 93.9016ZM532.932 92.4276C535.904 90.7615 536.121 93.7963 535.927 93.8935C532.938 95.0449 534.94 92.8603 534.854 92.7531C534.691 92.5763 532.386 93.5214 532.941 92.428C532.938 92.4278 532.935 92.4277 532.932 92.4276ZM546.04 93.4087C546.138 93.3697 548.044 93.46 548.121 93.5071C549.691 94.5284 544.278 94.2763 546.04 93.4087ZM197.757 97.6643C199.031 97.9147 197.842 99.0865 196.982 98.7187C196.911 98.6819 196.63 97.4433 197.757 97.6643ZM458.577 88.7377C458.289 88.5204 450.987 87.7708 451.445 89.4659C452.057 89.2513 460.349 90.0827 458.577 88.7377ZM405.691 90.7352C407.057 90.6201 405.724 92.3503 404.927 91.826C404.633 91.6312 405.348 90.7651 405.691 90.7352ZM166.284 99.9068C164.948 100.847 165.097 97.8925 166.337 98.8458C166.386 98.8831 166.337 99.8701 166.284 99.9068ZM416.049 90.7045C411.887 92.0449 412.504 86.8858 418.092 88.1416C417.942 88.3799 417.792 88.6181 417.64 88.8568C423.886 89.1417 418.108 89.1678 416.588 89.5858C416.011 89.7423 416.573 90.5434 416.054 90.7102C416.053 90.7083 416.051 90.7064 416.049 90.7045ZM398.215 91.3009C393.065 88.1103 402.56 89.6928 404.945 88.9781C402.653 90.6831 399.342 90.7509 403.901 91.8662C397.445 92.7401 399.985 91.0676 399.733 90.974C399.41 90.8679 398.438 91.4378 398.215 91.3009ZM410.342 90.1754C410.584 90.047 412.503 90.6036 413.135 90.4271C412.356 91.729 408.76 91.0403 410.342 90.1754ZM518.254 92.6245C518.462 91.6703 518.933 90.9823 520.491 91.4063C519.995 91.8699 518.951 92.2427 518.254 92.6245ZM58.8815 104.416C57.845 104.403 55.7398 104.155 56.4347 105.13C56.5358 105.211 58.9001 104.984 58.8815 104.416ZM437.547 88.2518C437.318 88.1334 431.962 88.2296 433.845 89.2297C434.4 89.5254 439.31 89.251 437.547 88.2518ZM466.202 88.0832C465.738 88.0708 463.842 88.247 463.804 88.4749C463.673 89.2609 465.995 88.8347 466.202 88.0832ZM53.5688 103.719C53.4514 103.625 50.2122 103.98 50.6083 104.426C51.3015 105.272 54.0795 104.035 53.5688 103.719ZM202.276 95.2224C202.54 95.176 202.933 96.2061 203.026 96.214C203.231 96.22 208.099 95.6227 206.287 97.0381C205.971 97.2746 198.948 97.0447 198.044 96.9508C197.631 95.5318 200.676 96.7719 201.406 96.5945C201.533 96.5612 201.567 95.3584 202.274 95.2285C202.274 95.2265 202.275 95.2245 202.276 95.2224ZM526.291 91.9395C526.557 91.0333 532.058 90.6798 531.928 91.7851C530.07 91.8301 528.193 91.8826 526.291 91.9395ZM523.438 91.6708C522.244 90.9768 525.106 90.8785 525.905 91.1975C525.898 91.811 523.615 91.7721 523.438 91.6708ZM455.631 84.6837C455.072 84.9099 456.801 86.2315 456.417 86.4924C456.169 86.6546 454.92 86.1628 454.521 86.5821C454.41 86.715 455.694 87.9579 456.059 87.9022C456.583 87.8273 456.069 86.8453 456.642 86.8357C458.539 86.8056 460.227 87.5043 462.007 87.4882C462.168 87.4848 460.92 86.7893 462.292 86.7994C462.502 86.7997 463.773 87.8356 465.415 87.6875C469.048 84.4947 471.692 87.6595 476.22 86.5702C476.062 86.2637 472.671 85.4096 472.473 85.3793C468.661 84.8062 461.752 84.7273 457.721 84.7403C456.689 84.7417 457.193 85.4185 456.747 85.4454C456.396 85.4655 456.805 84.2061 455.631 84.6837ZM59.3998 103.692C58.8134 102.466 57.1837 103.351 56.0133 103.35C56.4936 104.457 58.2854 103.474 59.3998 103.692ZM494.246 88.0171C493.862 88.0134 492.755 87.5033 492.613 87.8701C492.441 88.3441 494.054 88.8482 494.246 88.0171ZM229.677 94.5507C229.732 94.5146 231.078 94.5365 231.129 94.5745C232.363 95.5411 228.323 95.4705 229.677 94.5507ZM261.618 93.8717C262.638 93.6927 263.641 93.2775 264 94.2883C263.364 94.1464 261.517 94.5836 261.618 93.8717ZM305.753 93.143C305.519 91.8117 308.662 92.6405 309.253 92.7525C309.045 93.3484 305.92 94.1027 305.753 93.143ZM518.198 88.4304C520.199 88.596 519.846 86.5573 521.044 87.5221C521.229 87.6841 521.725 91.9164 519.642 90.2523C519.259 89.9522 520.848 89.0199 518.198 88.4304ZM418.974 88.1152C419.333 87.202 420.704 87.3626 421.61 87.3719C421.46 88.0382 419.613 88.0016 418.974 88.1152ZM47.7333 103.029C46.8115 101.832 42.7653 102.983 43.8264 103.748C43.9627 103.848 47.1765 103.013 47.7333 103.029ZM181.527 96.8063C183.152 95.7527 179.683 95.6013 178.625 96.6082C179.121 96.5232 181.418 96.8757 181.527 96.8063ZM295.061 92.5355C295.125 92.4944 296.921 92.5683 296.993 92.6159C298.452 93.6236 293.448 93.4191 295.061 92.5355ZM251.086 92.5181C251.702 91.693 255.897 92.2347 256.839 93.0206C255.982 94.2216 250.33 93.5465 251.086 92.5181ZM508.962 88.4544C510.76 88.5617 512.328 88.911 513.769 89.3426C513.481 90.0186 509.167 88.9955 508.962 88.4544ZM301.569 92.3783C301.663 92.3828 301.755 92.4587 301.845 92.466C301.751 92.4382 301.659 92.4063 301.569 92.3783ZM481.067 85.1724C480.091 84.8771 480.254 86.1283 480.318 86.1678C481.048 86.5897 482.191 85.5086 481.067 85.1724ZM58.0202 101.915C57.5903 100.813 55.7189 101.788 54.622 101.58C54.9703 102.45 57.1892 102.078 58.0202 101.915ZM392.801 89.4006C391.162 88.298 397.408 86.4296 398.758 87.0904C398.938 87.8402 393.06 89.5613 392.801 89.4006ZM176.256 95.353C176.106 94.478 173.745 95.6481 174.276 96.0407C174.612 96.2906 176.348 95.8966 176.256 95.353ZM401.899 87.3333C402.451 87.0144 403.847 87.7592 403.431 88.3291C402.896 89.0602 401.759 87.4232 401.899 87.3333ZM447.642 83.9752C447.409 83.8425 444.367 84.7949 445.644 85.673C446.529 86.2832 446.649 85.0085 446.855 85.0016C447.085 85.0003 452.024 86.4968 447.642 83.9752ZM358.858 89.9752C360.058 89.6064 361.539 89.9619 362.815 89.904C362.309 90.4626 359.388 90.6859 358.858 89.9752ZM185.532 94.7074C185.219 94.3636 177.315 94.4974 181.849 95.3949C182.104 95.4453 186.464 95.7464 185.532 94.7074ZM518.198 88.4304C517.942 88.4092 517.656 88.3544 517.309 88.2514C517.656 88.3016 517.941 88.374 518.198 88.4304ZM494.008 85.788C494.387 85.1871 492.907 84.8363 492.41 85.1321C492.203 85.8943 493.96 85.8676 494.008 85.788ZM362.888 89.0075C363.616 88.6214 364.965 88.9768 365.878 88.9086C365.739 89.5091 363.222 89.6048 362.888 89.0075ZM311.552 89.9735C311.991 90.0708 312.453 90.1236 312.883 90.1314C313.979 90.1497 314.882 89.9017 314.904 89.3848C314.937 89.4982 315.013 89.6179 315.136 89.7374C315.256 89.856 316.87 89.4877 317.57 89.7219C319.627 90.3896 315.924 90.7003 312.889 90.5582C309.721 90.4072 307.269 89.7806 312.861 88.6697C312.966 88.6495 313.072 88.6291 313.181 88.6086C313.076 88.6952 312.97 88.7818 312.864 88.8683C312.434 89.2369 311.996 89.6053 311.552 89.9735ZM245.386 90.9612C244.567 90.0968 242.324 91.276 242.925 91.6078C243.352 91.8342 246.214 91.831 245.386 90.9612ZM276.416 89.7029C276.185 89.5483 273.96 90.2112 273.925 90.6795C275.216 91.1474 277.519 90.4191 276.416 89.7029ZM239.153 90.1082C238.639 89.9901 238.029 91.441 238.091 91.5015C238.631 92.0072 240.032 90.8782 239.153 90.1082ZM514.046 84.3651C513.217 83.9137 510.175 84.7454 509.37 85.6201C509.258 85.4275 508.928 85.162 508.307 84.8191C508.309 84.8192 508.311 84.8194 508.313 84.8196C508.105 84.7052 506.427 84.4727 504.018 84.1017C500.236 83.5091 497.052 82.9193 495.939 82.9525C495.327 82.9526 495.086 83.0577 495.409 83.3027C495.788 83.557 496.483 83.9154 498.9 84.6453C499.339 84.7721 498.783 83.8305 500.685 84.2725C500.816 84.3032 500.774 84.9977 501.194 85.0939C501.556 85.1751 502.555 85.4037 503.824 85.6244C506.037 86.0082 508.501 86.2612 509.207 85.9705C509.205 86.0992 509.267 86.2269 509.409 86.3509C510.764 87.4751 514.745 84.7243 514.046 84.3651ZM280.785 89.501C280.319 89.2518 278.944 89.5187 278.805 90.1324C279.494 90.42 281.831 90.0827 280.785 89.501ZM185.178 92.2127C184.243 91.7502 181.971 92.7906 182.692 93.259C183.129 93.5472 186.257 92.7433 185.178 92.2127ZM266.725 90.0939C271.926 90.7067 267.96 90.0093 268.735 89.0964C268.054 89.4289 267.39 89.7613 266.725 90.0939ZM539.681 87.724C538.734 87.5028 539.88 85.7537 540.889 86.7243C541.209 87.0326 540.208 87.8443 539.681 87.724ZM583.44 85.648C581.97 84.3268 588.061 84.1616 585.942 85.6469C585.836 85.7119 583.528 85.7021 583.44 85.648ZM551.884 86.5466C551.302 87.6191 550.919 87.7501 549.238 87.4956C551.718 87.1794 549.415 86.251 551.884 86.5466ZM314.885 89.2703C314.896 89.3132 314.904 89.345 314.904 89.3848C314.892 89.3457 314.887 89.3086 314.885 89.2703ZM234.274 90.541C233.575 89.6585 231.781 89.7843 232.347 90.6766C232.4 90.7591 234.02 91.2178 234.274 90.541ZM509.37 85.6201C509.47 85.7909 509.404 85.8907 509.207 85.9705C509.208 85.8493 509.266 85.7397 509.37 85.6201ZM244.04 89.5012C244 90.1773 246.755 90.36 246.879 90.2775C248.447 89.0621 245.168 89.4269 244.04 89.5012ZM166.684 92.0912C166.543 92.1681 167.553 93.8657 168.091 93.1579C168.508 92.6086 167.212 91.7986 166.684 92.0912ZM557.485 86.0489C558.391 86.0381 559.67 86.0186 559.912 86.8425C559.308 86.7247 557.475 86.6565 557.485 86.0489ZM581.043 84.8491C579.473 86.0539 575.916 86.3936 573.904 86.3504C573.71 85.1037 579.379 85.4189 581.043 84.8491ZM516.731 84.9821C516.667 84.9293 514.182 84.4184 514.473 85.2906C514.937 86.5776 517.404 85.4813 516.731 84.9821ZM171.03 92.8183C171.992 92.1837 169.635 90.4747 168.651 91.9225C168.148 92.6637 170.869 92.9245 171.03 92.8183ZM228.535 89.547C227.255 90.087 230.513 90.86 230.937 89.9496C230.339 89.8975 228.98 89.356 228.535 89.547ZM272.729 87.4448C268.571 84.9413 270.893 89.6121 271.62 89.1829C271.724 89.1216 272.831 87.5036 272.729 87.4448ZM37.245 98.4409C36.6889 98.8321 38.9082 100.01 39.1636 99.1375C39.3053 98.5926 37.5866 98.1922 37.245 98.4409ZM336.14 87.8061C335.969 87.823 335.799 87.8401 335.63 87.856C335.755 87.8075 335.921 87.7853 336.14 87.8061ZM216.606 86.5093C219.628 90.0488 219.204 87.2504 219.458 87.2563C220.011 87.2753 221.319 88.2151 222.331 88.0168C221.185 88.469 219.993 88.9236 218.856 89.3766C219.796 89.6033 227.882 90.6612 228.015 90.0666C228.229 89.2159 225.72 89.5672 225.638 89.4959C225.528 89.3939 225.048 87.0662 224.808 86.9855C224.417 86.8553 217.698 87.0496 216.606 86.5093ZM264.173 88.0286C264.83 88.2925 265.051 89.2162 265.352 88.9876C265.455 88.9094 265.453 88.0237 265.805 87.7869C265.265 87.8672 264.705 87.9481 264.173 88.0286ZM211.554 89.9852C210.696 88.9354 214.375 89.205 214.487 89.3224C215.137 90.0315 212.265 90.8419 211.554 89.9852ZM242.627 88.7572C242.472 88.6983 239.684 88.445 239.718 89.0449C240.468 89.4791 244.236 89.4999 242.627 88.7572ZM266.243 87.7169C267.221 87.7988 269.112 88.6512 268.871 87.3226C268.869 87.3227 268.868 87.3227 268.866 87.3227C267.977 87.454 267.116 87.5851 266.243 87.7169ZM174.298 89.8518C172.359 87.8135 173.355 90.4544 175.016 91.0656C175.466 90.091 174.616 90.1834 174.298 89.8518ZM168.333 88.5375C167.8 88.1789 162.541 88.8403 163.398 89.9257C163.704 90.3123 166.687 89.164 166.835 89.2351C167.052 89.3404 166.139 90.6266 167.75 90.3062C167.636 89.8898 168.514 88.6569 168.333 88.5375ZM172.711 88.5623C170.8 87.0322 170.533 90.026 171.905 89.9719C172.445 89.9527 172.983 88.7833 172.711 88.5623ZM180.199 88.4816C179.531 88.2283 177.746 87.8952 176.588 88.9386C178.204 88.951 179.839 88.9631 181.453 88.9767C181.614 88.4078 180.786 88.7041 180.195 88.4818C180.196 88.4817 180.197 88.4817 180.199 88.4816ZM596.919 73.9229C592.418 74.9967 595.684 73.7936 598.622 72.2376C601.502 70.6668 602.825 69.6231 603.039 69.6341C603.574 69.6889 603.272 70.3131 602.235 71.1846C601.277 72.0244 598.896 73.3834 596.919 73.9229ZM24.3425 72.0843C23.93 71.7717 23.5962 70.6817 22.7314 71.3155C23.7045 72.0759 24.5953 72.8418 25.5728 73.603C26.1824 71.6898 24.7883 72.4295 24.3425 72.0843ZM20.5078 65.4579C20.6379 65.4045 19.7428 62.5724 21.5334 64.39C22.6972 65.6189 16.7921 67.2516 15.6103 66.0548C16.7654 65.3818 19.4458 65.8933 20.5078 65.4579ZM8.80242 53.7764C8.75486 53.5434 11.2504 53.0009 11.498 53.1492C13.0214 53.8921 9.46427 54.9396 8.80242 53.7764ZM16.5023 53.764C15.3986 53.2744 17.7757 52.7598 18.4907 53.0385C18.5958 53.5689 16.662 53.8349 16.5023 53.764ZM571.673 36.2103C570.594 34.3289 569.967 38.5916 571.437 37.6402C571.51 37.595 571.722 36.3028 571.673 36.2103ZM11.0535 50.6738C12.2243 51.1477 9.7573 51.6906 8.87099 51.4521C8.75674 50.9202 10.8984 50.6002 11.0535 50.6738ZM570.676 31.6062C569.367 30.28 570.066 34.9714 570.248 35.1523C570.992 35.8699 573.011 33.8349 573.305 33.3271C570.331 34.33 571.258 32.22 570.676 31.6062ZM564.672 34.6861C563.365 35.2145 566.745 36.1183 567.302 34.7703C566.68 34.8574 565.035 34.5359 564.672 34.6861ZM556.042 33.2984C555.278 33.1395 553.026 32.7593 552.658 33.5065C553.478 33.3643 555.728 34.0687 556.042 33.2984ZM554.3 31.0898C553.111 30.0919 552.857 33.0408 554.21 32.1484C554.262 32.1138 554.343 31.1455 554.3 31.0898ZM547.706 30.0779C546.944 28.9088 546.079 31.7632 547.315 31.8375C547.681 31.8541 547.787 30.2119 547.706 30.0779ZM568.852 26.6185C567.942 26.1602 566.828 28.2513 568.803 28.3877C568.136 28.7334 567.447 29.0733 566.726 29.4083C569.454 30.4575 569.068 27.6179 569.788 27.6977C570.761 27.8026 570.845 30.1363 570.704 30.8834C571.503 29.4085 574.451 29.0861 575.487 28.5516C574.343 28.194 572.118 27.4162 570.376 27.1446C569.899 27.0672 569.465 27.7353 569.036 27.686C568.34 27.6028 568.904 26.6498 568.856 26.6183C568.855 26.6183 568.853 26.6184 568.852 26.6185ZM539.336 29.9837C537.305 28.6096 538.522 31.5074 539.734 31.0187C539.785 30.9803 539.385 30.0172 539.336 29.9837ZM6.37454 42.3518C9.01814 42.6757 8.92578 43.4123 9.75787 43.5852C10.5032 43.7736 11.6526 43.4748 14.9053 42.0535C12.2005 43.943 14.8484 43.2868 14.3436 44.0102C13.9147 44.5838 12.2306 44.2473 13.2906 45.2741C12.5715 44.7255 10.9441 44.6178 9.15909 44.6733C8.24736 44.7053 7.42641 44.7575 6.20218 44.8927C5.58311 44.9666 4.84636 45.0476 3.57293 45.3072C2.95422 45.4338 2.20519 45.6238 1.69412 45.7702C1.18794 45.9146 1.02051 45.9641 0.974523 45.9657C0.981691 45.9633 0.989573 45.9607 0.998156 45.9578C0.879041 45.9671 0.840407 45.7802 0.808637 45.5143C0.756649 45.2584 1.17255 44.75 2.12435 44.1651C4.17756 42.9759 5.43644 42.2785 6.37454 42.3518ZM555.934 25.8062C555.132 22.3393 554.9 27.8616 553.385 24.9964C551.45 29.2048 558.849 24.9316 559.833 28.4464C551.65 28.1551 565.296 31.8673 559.501 26.6626C564.248 28.5099 561.036 25.9836 561.754 25.2983C562.217 24.8668 563.34 24.9477 564.164 24.8199C564.664 24.7325 565.005 24.5426 564.948 24.0137C564.947 24.0137 564.945 24.0138 564.944 24.0138C564.687 24.0359 564.423 24.0576 564.153 24.0788C562.809 24.1732 561.474 24.2684 560.149 24.3623C561.792 27.1309 558.44 26.3451 557.29 24.0839C556.842 24.6582 556.382 25.2324 555.934 25.8062ZM565.097 28.2898C565.051 28.2698 564.696 28.3051 564.219 28.3789C563.121 28.5327 561.556 28.8583 561.719 29.2331C561.95 29.3978 563.183 29.3724 564.232 29.2178C565.273 29.0457 566.056 28.7008 565.097 28.2898ZM575.72 26.7496C575.006 26.9117 574.115 26.511 573.862 27.6101C574.554 27.5209 575.531 27.878 575.72 26.7496ZM516.673 26.6639C515.177 27.4443 519.632 27.9507 518.39 26.8563C518.318 26.8058 516.738 26.6292 516.673 26.6639ZM552.3 26.3732C550.673 25.3253 551.465 28.7008 552.661 27.8079C552.73 27.7552 552.375 26.4209 552.3 26.3732ZM9.73427 41.6297C9.86608 40.7797 14.6658 41.0294 15.4563 40.9762C15.0565 41.7679 9.75056 42.571 9.73427 41.6297ZM581.11 22.6574C580.645 22.4924 580.082 22.3705 579.358 22.3141C578.715 22.5095 576.693 22.661 576.078 22.9312C574.687 22.25 574.368 22.569 574.024 23.1299C573.705 23.6856 573.407 24.4633 573.314 24.4412C573.12 24.3913 573.222 23.0613 573.173 23.0329C573.122 23.0034 572.651 23.0816 572.044 23.1758C571.444 23.2708 570.738 23.3764 570.674 23.4267C570.581 23.5048 571.231 25.29 570.697 25.9097C571.24 25.3504 572.75 25.117 573.691 24.9719C574.175 24.9004 574.559 24.8559 574.909 24.7965C575.254 24.7385 575.595 24.6579 575.646 24.5937C575.716 24.498 575.337 24.1073 575.195 23.7727C575.122 23.6059 575.093 23.4574 575.197 23.3706C575.308 23.2816 575.512 23.264 576.167 23.2892C576.775 23.0226 578.77 22.8731 579.404 22.6802C580.027 22.6446 580.595 22.64 581.099 22.6584C581.103 22.6581 581.107 22.6577 581.11 22.6574ZM572.782 24.11C573.43 24.8036 571.888 25.0897 571.355 24.8435C570.33 24.301 572.791 24.0345 572.782 24.11ZM568.166 23.7599C567.932 23.6047 565.547 23.5263 565.349 24.3799C566.568 25.4669 568.769 24.1354 568.166 23.7599ZM537.898 24.0978C537.397 24.1695 536.32 23.752 535.89 23.9056C535.692 23.9465 535.557 24.0367 535.521 24.2018C535.619 24.1932 535.739 24.1975 535.874 24.2102C536.476 24.285 537.792 24.7498 537.898 24.0978ZM25.1471 34.1128C23.8403 33.5639 26.7382 33.1383 27.6412 33.3864C27.685 33.8824 25.2956 34.1576 25.1471 34.1128ZM551.96 19.2396C551.492 19.0293 542.832 19.6246 541.754 19.9397C542.796 20.5378 551.401 20.5537 551.828 20.2621C551.943 20.1786 552.015 19.2748 551.96 19.2396ZM569.718 18.5163C570.184 17.3826 570.597 18.6692 570.665 18.6803C571.336 18.7962 572.273 18.4311 572.187 19.5075C571.439 19.1937 568.738 20.7705 569.718 18.5163ZM537.532 19.1108C536.361 19.272 536.867 19.684 537.637 19.9069C538.412 20.1298 539.534 20.1547 539.21 19.5733C539.152 19.5039 537.771 19.0779 537.532 19.1108ZM552.942 18.9097C553.57 18.0232 562.515 18.6582 564.049 18.6327C562.75 20.2909 561.676 19.0641 559.927 19.1744C559.463 19.2059 559.596 19.8854 559.546 19.8873C558.732 19.931 559.325 19.135 558.829 19.1305C558.501 19.1336 552.012 20.1741 552.942 18.9097ZM569.97 17.7351C570.106 17.4103 571.062 17.1106 571.694 16.9074C572.35 16.7039 572.666 16.6159 572.714 16.6933C573.016 17.2682 572.792 17.5653 572.091 17.7129C571.415 17.8615 570.115 17.8366 569.97 17.7351ZM552.118 17.4615C553.036 15.5511 557.46 16.7708 554.455 17.7569C554.167 17.8467 552.945 17.0352 552.118 17.4615ZM537.849 17.3073C537.771 17.2711 536.818 17.0847 536.234 17.0761C535.577 17.057 535.052 17.1179 535.016 17.3525C535.148 17.4244 535.619 17.511 536.209 17.5852C537.075 17.7478 538.837 17.7805 537.849 17.3073ZM539.247 15.2949C539.187 15.3076 539.771 16.4893 538.542 16.3115C538.456 16.2938 538.22 14.9817 536.873 15.4097C536.672 15.4763 536.383 15.979 536.276 16.2435C536.215 16.3271 536.183 16.3868 536.194 16.4004C536.217 16.4253 536.24 16.4494 536.265 16.4728C537.328 18.4512 542.58 14.6863 539.247 15.2949ZM569.956 16.6697C569.729 16.1308 570.058 14.4588 570.479 15.2573C570.664 15.6015 570.478 16.6112 569.956 16.6697ZM527.977 16.3378C529.923 15.4188 523.951 14.988 523.695 15.2328C523.829 15.8605 527.764 16.4259 527.977 16.3378ZM27.67 26.2546C27.6685 26.2546 27.6671 26.2547 27.6656 26.2548C29.2427 26.3902 28.3226 27.2743 28.3956 27.2961C31.8907 28.3159 30.8331 26.495 31.3634 26.2424C32.4863 25.6982 32.4323 27.9898 34.278 26.9366C31.232 28.5102 34.0313 27.7643 34.1748 28.5705C34.7055 31.8631 29.9304 27.255 28.3365 28.044C28.1178 28.153 29.8122 29.1161 29.2616 29.4495C27.5122 30.5269 21.5063 25.7477 27.67 26.2546ZM570.736 15.0883C570.89 14.586 571.618 14.5014 571.991 14.6603C572.374 14.8205 572.62 15.2138 572.548 15.6365C572.534 15.704 572.25 15.9224 571.71 15.9566C571.187 15.9899 570.514 15.8215 570.736 15.0883ZM314.124 16.0228C315.369 15.1575 312.43 14.2174 311.87 14.8808C311.609 15.212 313.566 16.4034 314.124 16.0228ZM292.567 12.6749C290.975 12.8655 289.312 16.404 291.311 15.8329C291.521 15.7705 292.751 13.1605 292.567 12.6749ZM393.811 11.0794C392.191 9.95762 392.477 12.2761 393.588 12.148C393.981 12.1028 393.862 11.1149 393.811 11.0794ZM332.053 13.8949C331.871 13.8225 329.986 14.0667 330.09 14.5986C330.774 14.887 333.171 14.3989 332.053 13.8949ZM394.267 10.7059C393.398 11.2044 395.101 12.7516 396.086 11.0037C395.523 11.1914 394.354 10.6552 394.267 10.7059ZM548.812 12.3255C548.037 13.2893 545.853 13.0057 544.633 13.166C544.494 11.9259 547.898 12.5586 548.812 12.3255ZM299.379 14.0113C297.866 14.9033 301.133 15.5848 300.811 14.431C300.775 14.3685 299.443 13.9733 299.379 14.0113ZM450.277 7.51617C449.149 8.26811 452.762 9.23022 451.759 7.93722C451.71 7.88433 450.339 7.4741 450.277 7.51617ZM465.99 7.89507C465.132 7.64036 461.467 7.71348 462.89 8.43792C463.117 8.54834 465.925 8.57274 465.99 7.89507ZM31.4069 25.3442C30.885 24.0956 33.5199 24.2502 33.895 24.4526C34.0392 24.5373 32.1142 26.9668 31.4069 25.3442ZM384.217 11.5839C383.467 11.7889 381.435 11.5917 381.104 12.2773C382.069 12.093 384.547 12.902 384.217 11.5839ZM306.22 13.9312C304.895 12.5594 302.681 12.7199 303.246 14.5258C305.725 14.3774 302.928 12.901 306.22 13.9312ZM399.378 8.73688C398.692 8.69534 398.347 10.4753 398.429 10.5499C399.223 11.2588 400.115 9.34724 399.378 8.73688ZM350.724 12.5237C350.67 11.7811 348.432 12.1765 348.741 12.6473C348.852 12.805 350.777 13.1242 350.724 12.5237ZM521.905 11.1235C520.992 10.4051 523.899 9.86552 524.795 10.6934C525.169 11.8517 521.994 11.207 521.905 11.1235ZM419.872 7.50225C419.914 6.39031 416.117 7.25851 417.686 8.07407C418.081 8.27659 419.849 7.87235 419.872 7.50225ZM455.078 5.22397C452.688 6.5477 462.762 7.44659 460.113 5.81611C459.919 5.6973 455.287 5.10934 455.078 5.22397ZM471.559 6.06822C471.139 5.91984 471.386 2.21258 473.101 3.65977C473.326 3.84746 472.25 4.81689 472.436 5.04299C472.546 5.17 476.297 5.73508 476.49 5.65336C476.678 5.55777 476.475 4.36627 476.667 4.23573C476.836 4.11227 478.545 4.86134 479.807 5.12214C480.058 5.17069 480.291 5.2024 480.495 5.2084C482.926 5.28069 483.247 4.30652 483.439 4.30734C484.054 4.31835 485.005 5.04918 486.247 5.09417C492.082 5.22378 503.553 5.33703 508.559 8.33699C504.057 6.78354 498.68 7.10652 494.098 7.07925C495.558 5.08927 487.308 8.27158 492.128 6.16031C490.882 6.35825 484.852 6.31872 479.784 6.33352C475.754 6.33488 472.174 6.27833 471.563 6.06826C471.562 6.06824 471.56 6.06823 471.559 6.06822ZM286.21 11.7186C287.182 10.4381 282.117 10.7963 281.686 12.2691C282.383 12.4608 286.087 11.8633 286.21 11.7186ZM309.322 8.35871C309.703 8.16479 310.073 6.2868 311.65 6.56868C311.906 6.61278 312.191 6.71014 312.505 6.87561C312.507 6.87558 312.509 6.87555 312.511 6.87551C313.185 7.23136 312.434 7.84639 312.559 8.05928C312.595 8.1469 314.736 9.34207 312.981 9.56944C312.174 9.67608 311.814 9.54229 311.691 9.30645C311.601 9.12859 311.634 8.89274 311.681 8.65773C311.749 8.33327 311.845 8.01038 311.669 7.84396C311.596 7.7717 311.474 7.72886 311.277 7.72805C311.113 7.72918 308.379 9.10424 308.528 9.39597C308.547 9.43003 309.387 9.13617 309.521 9.25661C310.04 9.70935 309.8 10.4853 309.873 10.5211C309.958 10.559 310.791 10.3456 311.703 10.1627C313.051 9.90317 314.614 9.70144 315.009 10.3678C315.106 10.5494 313.471 10.883 311.718 11.1435C309.944 11.4099 308.016 11.6025 307.882 11.5068C307.703 11.3874 307.752 9.24162 307.565 9.03284C307.465 8.92929 304.541 9.76599 304.164 9.57262C304.053 9.51679 303.967 9.45623 303.904 9.40624C304.356 10.0651 301.683 10.046 301.751 9.29641C301.803 9.00153 303.63 9.15231 303.708 9.20289C303.737 9.22435 303.763 9.2541 303.787 9.27456C303.409 8.47075 309.581 8.43677 308.227 7.24826C309.993 6.56706 307.995 9.01717 309.322 8.35871ZM317.534 6.89392C317.366 7.12345 317.196 7.35296 317.024 7.58244C319.965 6.96521 323.245 7.95423 326.516 7.79956C327.352 7.7615 326.32 6.42739 327.444 6.75317C328.343 7.01392 329.431 8.24103 328.945 8.55072C328.816 8.62876 326.944 7.88422 326.068 8.00666C323.457 8.3693 324.17 9.52019 324.015 9.55939C323.852 9.59991 322.17 8.82771 321.256 8.89182C318.976 9.0552 317.923 9.81028 314.656 8.92392C316.512 8.10801 315.465 6.43573 317.534 6.89392ZM435.685 3.49796C435.794 2.74934 438.027 3.35383 438.825 3.22748C438.715 3.97603 436.489 3.36602 435.685 3.49796ZM125.055 14.7258C124.472 15.9779 129.295 16.0435 127.978 15.09C127.686 14.8783 125.657 14.7047 125.055 14.7258ZM146.657 14.4226C147.284 14.0545 144.655 13.2988 144.705 14.2434C144.723 14.5461 146.577 14.4704 146.657 14.4226ZM358.49 6.66516C358.608 6.62401 360.352 6.85121 360.404 6.91189C361.592 8.17962 355.851 7.57663 358.49 6.66516ZM172.834 11.7066C170.628 12.6069 177.397 12.6526 175.287 11.7243C175.181 11.6791 172.937 11.663 172.834 11.7066ZM182.217 11.0688C181.683 11.1349 179.262 10.8427 179.251 11.2165C179.225 11.8198 181.993 12.1102 182.217 11.0688ZM399.401 4.09752C399.005 2.752 402.238 3.49301 403.379 3.21367C403.765 4.56081 400.439 3.82417 399.401 4.09752ZM381.606 4.45883C382.728 4.29646 383.709 4.17358 384.54 4.0861C391.195 3.34335 390.303 5.01101 384.609 5.24074C383.571 5.27685 382.338 5.26046 380.933 5.16471C380.873 4.28309 380.863 4.56547 381.606 4.45883ZM396.555 3.50882C396.18 4.42971 394.752 4.29813 393.828 4.30841C393.932 3.68428 395.87 3.73231 396.555 3.50882ZM119.247 13.12C120.021 11.9656 123.773 13.1551 123.139 13.6467C123 13.7529 118.968 13.7473 119.247 13.12ZM359.549 5.45924C359.219 4.12878 363.112 4.5721 363.411 4.86036C364.638 6.0238 359.864 5.1567 359.549 5.45924ZM419.65 1.27446C420.369 0.179909 422.674 0.592934 424.103 0.539783C423.496 1.46504 420.872 1.21883 419.65 1.27446ZM409.212 1.19808C409.296 1.14971 411.286 1.08304 411.379 1.12524C413.08 2.0151 407.467 2.20867 409.212 1.19808ZM24.8683 16.3271C24.9177 16.2903 26.2865 16.2777 26.3447 16.3139C27.6219 17.2483 23.5258 17.2806 24.8683 16.3271Z" fill="url(#paint0_linear_7_199)"/>
<defs>
<linearGradient id="paint0_linear_7_199" x1="8" y1="57.6025" x2="589.364" y2="57.6025" gradientUnits="userSpaceOnUse">
<stop stop-color="#1F2D8D" stop-opacity="0.83"/>
<stop offset="0.706731" stop-color="#4F59A4" stop-opacity="0.866779"/>
<stop offset="1" stop-color="#FAF9F6"/>
</linearGradient>
</defs>
</svg>
