<svg width="847" height="224" viewBox="0 0 847 224" fill="none" xmlns="http://www.w3.org/2000/svg">
<path d="M10.0896 3.94824C3.60283 18.8504 2.29768 44.6612 4.87877 60.4107C6.73597 71.7431 21.7386 76.6472 39.553 86.6988C56.8269 96.4455 66.5424 94.1791 79.516 95.8252C85.3919 96.5707 112.437 97.4517 150.734 97.1303C167.203 96.9921 173.039 93.5752 180.802 87.7605C200.329 73.1332 201.616 62.4269 204.557 53.9824C205.42 51.5067 204.889 48.1676 203.924 45.869C200.526 37.768 191.272 38.3692 188.029 38.3595C179.908 38.3351 180.227 54.557 179.243 62.6801C176.788 82.9534 182.759 118.139 187.99 128.912C195.127 143.612 226.784 162.281 249.624 172.099C258.932 176.1 268.471 181.196 278.834 185.403C289.436 189.708 313.781 198.046 353.929 207.445C396.155 217.33 423.667 218.227 432.735 218.549C441.849 218.872 454.153 220.175 468.413 220.497C502.785 221.271 544.423 220.837 557.105 219.854C569.197 218.916 583.383 216.941 601.197 214.672C647.626 208.757 666.445 200.072 678.542 196.488C690.39 192.977 702.873 186.436 714.882 182.209C733.417 175.685 763.689 159.904 785.672 148.129C797.839 141.611 807.402 131.269 826.229 112.782C832.661 106.467 837.946 99.4387 842.826 92.9519C844.522 90.697 841.92 89.0364 837.391 88.3741C825.791 87.7118 816.577 88.3546 812.691 89.65C810.733 90.3026 808.804 90.9455 806.817 91.6078" stroke="url(#paint0_linear_13_506)" stroke-width="6" stroke-linecap="round"/>
<defs>
<linearGradient id="paint0_linear_13_506" x1="764" y1="91.5" x2="-128" y2="-212.5" gradientUnits="userSpaceOnUse">
<stop stop-color="#DC8C9E"/>
<stop offset="0.947217" stop-color="#1B1F3B"/>
</linearGradient>
</defs>
</svg>
