<svg xmlns="http://www.w3.org/2000/svg" version="1.1" xmlns:xlink="http://www.w3.org/1999/xlink" xmlns:svgjs="http://svgjs.dev/svgjs" viewBox="0 0 2400 800" opacity="0.66"><defs><linearGradient id="sssurf-grad" x1="50%" y1="0%" x2="50%" y2="100%"><stop stop-color="#584d42" stop-opacity="1" offset="0%"/><stop stop-color="#978779" stop-opacity="1" offset="50%"/><stop stop-color="#d1c2ae" stop-opacity="1" offset="100%"/></linearGradient></defs><g fill="url(#sssurf-grad)" transform="matrix(1,0,0,1,0,-211.62991333007812)"><path d="M 0 311.25979474745805 Q 360 603.7351701652309 480 316.5282586152123 Q 840 502.4294643868588 960 318.00243270508906 Q 1320 612.8205961045455 1440 345.4232606692469 Q 1800 503.8610984393637 1920 316.28224603629957 Q 2280 619.9226469018432 2400 320.81092749113714 L 2400 800 L 0 800 L 0 331.0439913037053 Z" transform="matrix(1,0,0,1,0,64)" opacity="0.05"></path><path d="M 0 311.25979474745805 Q 360 603.7351701652309 480 316.5282586152123 Q 840 502.4294643868588 960 318.00243270508906 Q 1320 612.8205961045455 1440 345.4232606692469 Q 1800 503.8610984393637 1920 316.28224603629957 Q 2280 619.9226469018432 2400 320.81092749113714 L 2400 800 L 0 800 L 0 331.0439913037053 Z" transform="matrix(1,0,0,1,0,128)" opacity="0.21"></path><path d="M 0 311.25979474745805 Q 360 603.7351701652309 480 316.5282586152123 Q 840 502.4294643868588 960 318.00243270508906 Q 1320 612.8205961045455 1440 345.4232606692469 Q 1800 503.8610984393637 1920 316.28224603629957 Q 2280 619.9226469018432 2400 320.81092749113714 L 2400 800 L 0 800 L 0 331.0439913037053 Z" transform="matrix(1,0,0,1,0,192)" opacity="0.37"></path><path d="M 0 311.25979474745805 Q 360 603.7351701652309 480 316.5282586152123 Q 840 502.4294643868588 960 318.00243270508906 Q 1320 612.8205961045455 1440 345.4232606692469 Q 1800 503.8610984393637 1920 316.28224603629957 Q 2280 619.9226469018432 2400 320.81092749113714 L 2400 800 L 0 800 L 0 331.0439913037053 Z" transform="matrix(1,0,0,1,0,256)" opacity="0.53"></path><path d="M 0 311.25979474745805 Q 360 603.7351701652309 480 316.5282586152123 Q 840 502.4294643868588 960 318.00243270508906 Q 1320 612.8205961045455 1440 345.4232606692469 Q 1800 503.8610984393637 1920 316.28224603629957 Q 2280 619.9226469018432 2400 320.81092749113714 L 2400 800 L 0 800 L 0 331.0439913037053 Z" transform="matrix(1,0,0,1,0,320)" opacity="0.68"></path><path d="M 0 311.25979474745805 Q 360 603.7351701652309 480 316.5282586152123 Q 840 502.4294643868588 960 318.00243270508906 Q 1320 612.8205961045455 1440 345.4232606692469 Q 1800 503.8610984393637 1920 316.28224603629957 Q 2280 619.9226469018432 2400 320.81092749113714 L 2400 800 L 0 800 L 0 331.0439913037053 Z" transform="matrix(1,0,0,1,0,384)" opacity="0.84"></path><path d="M 0 311.25979474745805 Q 360 603.7351701652309 480 316.5282586152123 Q 840 502.4294643868588 960 318.00243270508906 Q 1320 612.8205961045455 1440 345.4232606692469 Q 1800 503.8610984393637 1920 316.28224603629957 Q 2280 619.9226469018432 2400 320.81092749113714 L 2400 800 L 0 800 L 0 331.0439913037053 Z" transform="matrix(1,0,0,1,0,448)" opacity="1"></path></g></svg>