<svg xmlns="http://www.w3.org/2000/svg" version="1.1" xmlns:xlink="http://www.w3.org/1999/xlink" viewBox="0 0 700 700" style="overflow: hidden; display: block;" width="700" height="700"><defs><linearGradient id="two-9" x1="350" y1="-350" x2="350" y2="350" spreadMethod="pad" gradientUnits="userSpaceOnUse"><stop offset="0%" stop-color="#FFF8F0" stop-opacity="1"></stop><stop offset="100%" stop-color="#FFF8F0" stop-opacity="1"></stop></linearGradient></defs><g id="two-0" transform="matrix(1 0 0 1 0 0)" opacity="1"><path transform="matrix(1 0 0 1 350 350)" id="two-163" d="M 315.774769 130.798192 C 297.285609 170.339677 272.809638 211.945415 237.222369 237.222369 C 202.533711 261.861057 156.311922 270.378836 114.055382 275.35405 C 76.594142 279.764673 37.259031 261.955101 0 267.834102 C -46.607351 275.188149 -86.564262 329.906945 -132.843973 320.71372 C -175.846787 312.171433 -198.118783 260.091529 -228.12997 228.129969 C -257.466027 196.887417 -304.499084 171.566211 -312.595009 129.481092 C -321.121295 85.158831 -279.285671 43.835677 -268.534217 0 C -260.218475 -33.904825 -261.394148 -70.817399 -252.407429 -104.550581 C -242.690214 -141.025801 -234.56995 -181.576566 -211.291691 -211.291691 C -187.463312 -241.709056 -151.089773 -263.796086 -115.280955 -278.312845 C -79.563956 -292.79238 -38.338135 -300.963736 -0.000001 -297.02059 C 37.32601 -293.181542 69.846994 -265.715217 106.180355 -256.342055 C 148.681054 -245.377863 203.564155 -265.241123 237.902551 -237.902552 C 271.155185 -211.428414 266.135637 -156.209737 283.89005 -117.591109 C 302.327628 -77.486491 341.959613 -43.773586 347.633942 -0.000001 C 353.344977 44.056755 334.592084 90.554903 315.774769 130.798192 Z " fill="#FFF8F0" stroke="undefined" stroke-width="1" stroke-opacity="1" fill-opacity="1" visibility="visible" stroke-linecap="butt" stroke-linejoin="miter" stroke-miterlimit="4"></path></g></svg>